G04 #@! TF.GenerationSoftware,KiCad,Pcbnew,8.0.6*
G04 #@! TF.CreationDate,2024-12-04T22:51:12+00:00*
G04 #@! TF.ProjectId,Pulse generator daughter board,50756c73-6520-4676-956e-657261746f72,rev?*
G04 #@! TF.SameCoordinates,Original*
G04 #@! TF.FileFunction,Copper,L1,Top*
G04 #@! TF.FilePolarity,Positive*
%FSLAX46Y46*%
G04 Gerber Fmt 4.6, Leading zero omitted, Abs format (unit mm)*
G04 Created by KiCad (PCBNEW 8.0.6) date 2024-12-04 22:51:12*
%MOMM*%
%LPD*%
G01*
G04 APERTURE LIST*
G04 Aperture macros list*
%AMRoundRect*
0 Rectangle with rounded corners*
0 $1 Rounding radius*
0 $2 $3 $4 $5 $6 $7 $8 $9 X,Y pos of 4 corners*
0 Add a 4 corners polygon primitive as box body*
4,1,4,$2,$3,$4,$5,$6,$7,$8,$9,$2,$3,0*
0 Add four circle primitives for the rounded corners*
1,1,$1+$1,$2,$3*
1,1,$1+$1,$4,$5*
1,1,$1+$1,$6,$7*
1,1,$1+$1,$8,$9*
0 Add four rect primitives between the rounded corners*
20,1,$1+$1,$2,$3,$4,$5,0*
20,1,$1+$1,$4,$5,$6,$7,0*
20,1,$1+$1,$6,$7,$8,$9,0*
20,1,$1+$1,$8,$9,$2,$3,0*%
G04 Aperture macros list end*
G04 #@! TA.AperFunction,SMDPad,CuDef*
%ADD10RoundRect,0.250000X-0.337500X-0.475000X0.337500X-0.475000X0.337500X0.475000X-0.337500X0.475000X0*%
G04 #@! TD*
G04 #@! TA.AperFunction,SMDPad,CuDef*
%ADD11RoundRect,0.150000X-0.875000X-0.150000X0.875000X-0.150000X0.875000X0.150000X-0.875000X0.150000X0*%
G04 #@! TD*
G04 #@! TA.AperFunction,SMDPad,CuDef*
%ADD12RoundRect,0.200000X0.300000X-0.200000X0.300000X0.200000X-0.300000X0.200000X-0.300000X-0.200000X0*%
G04 #@! TD*
G04 #@! TA.AperFunction,SMDPad,CuDef*
%ADD13RoundRect,0.249999X-1.425001X0.450001X-1.425001X-0.450001X1.425001X-0.450001X1.425001X0.450001X0*%
G04 #@! TD*
G04 #@! TA.AperFunction,SMDPad,CuDef*
%ADD14RoundRect,0.250000X0.450000X-0.350000X0.450000X0.350000X-0.450000X0.350000X-0.450000X-0.350000X0*%
G04 #@! TD*
G04 #@! TA.AperFunction,SMDPad,CuDef*
%ADD15RoundRect,0.250000X-0.350000X-0.450000X0.350000X-0.450000X0.350000X0.450000X-0.350000X0.450000X0*%
G04 #@! TD*
G04 #@! TA.AperFunction,SMDPad,CuDef*
%ADD16RoundRect,0.250000X0.350000X0.450000X-0.350000X0.450000X-0.350000X-0.450000X0.350000X-0.450000X0*%
G04 #@! TD*
G04 #@! TA.AperFunction,ComponentPad*
%ADD17RoundRect,0.250001X-0.799999X0.799999X-0.799999X-0.799999X0.799999X-0.799999X0.799999X0.799999X0*%
G04 #@! TD*
G04 #@! TA.AperFunction,ComponentPad*
%ADD18RoundRect,0.250001X-0.799999X-0.799999X0.799999X-0.799999X0.799999X0.799999X-0.799999X0.799999X0*%
G04 #@! TD*
G04 #@! TA.AperFunction,SMDPad,CuDef*
%ADD19RoundRect,0.125000X0.125000X-0.125000X0.125000X0.125000X-0.125000X0.125000X-0.125000X-0.125000X0*%
G04 #@! TD*
G04 #@! TA.AperFunction,SMDPad,CuDef*
%ADD20RoundRect,0.250000X0.475000X-0.337500X0.475000X0.337500X-0.475000X0.337500X-0.475000X-0.337500X0*%
G04 #@! TD*
G04 #@! TA.AperFunction,SMDPad,CuDef*
%ADD21RoundRect,0.250000X0.337500X0.475000X-0.337500X0.475000X-0.337500X-0.475000X0.337500X-0.475000X0*%
G04 #@! TD*
G04 #@! TA.AperFunction,SMDPad,CuDef*
%ADD22RoundRect,0.125000X0.125000X0.125000X-0.125000X0.125000X-0.125000X-0.125000X0.125000X-0.125000X0*%
G04 #@! TD*
G04 #@! TA.AperFunction,SMDPad,CuDef*
%ADD23RoundRect,0.250000X-0.650000X1.500000X-0.650000X-1.500000X0.650000X-1.500000X0.650000X1.500000X0*%
G04 #@! TD*
G04 #@! TA.AperFunction,ComponentPad*
%ADD24RoundRect,0.250001X0.799999X-0.799999X0.799999X0.799999X-0.799999X0.799999X-0.799999X-0.799999X0*%
G04 #@! TD*
G04 #@! TA.AperFunction,SMDPad,CuDef*
%ADD25RoundRect,0.250000X-0.475000X0.337500X-0.475000X-0.337500X0.475000X-0.337500X0.475000X0.337500X0*%
G04 #@! TD*
G04 #@! TA.AperFunction,SMDPad,CuDef*
%ADD26RoundRect,0.250000X0.650000X-1.500000X0.650000X1.500000X-0.650000X1.500000X-0.650000X-1.500000X0*%
G04 #@! TD*
G04 #@! TA.AperFunction,ComponentPad*
%ADD27C,1.600000*%
G04 #@! TD*
G04 #@! TA.AperFunction,SMDPad,CuDef*
%ADD28RoundRect,0.250000X-0.450000X0.350000X-0.450000X-0.350000X0.450000X-0.350000X0.450000X0.350000X0*%
G04 #@! TD*
G04 #@! TA.AperFunction,SMDPad,CuDef*
%ADD29RoundRect,0.249999X0.450001X1.425001X-0.450001X1.425001X-0.450001X-1.425001X0.450001X-1.425001X0*%
G04 #@! TD*
G04 #@! TA.AperFunction,ComponentPad*
%ADD30R,1.600000X1.600000*%
G04 #@! TD*
G04 #@! TA.AperFunction,ComponentPad*
%ADD31O,1.600000X1.600000*%
G04 #@! TD*
G04 #@! TA.AperFunction,SMDPad,CuDef*
%ADD32RoundRect,0.250000X-1.500000X-0.650000X1.500000X-0.650000X1.500000X0.650000X-1.500000X0.650000X0*%
G04 #@! TD*
G04 #@! TA.AperFunction,ComponentPad*
%ADD33R,1.700000X1.700000*%
G04 #@! TD*
G04 #@! TA.AperFunction,ComponentPad*
%ADD34O,1.700000X1.700000*%
G04 #@! TD*
G04 #@! TA.AperFunction,SMDPad,CuDef*
%ADD35RoundRect,0.125000X-0.125000X-0.125000X0.125000X-0.125000X0.125000X0.125000X-0.125000X0.125000X0*%
G04 #@! TD*
G04 #@! TA.AperFunction,SMDPad,CuDef*
%ADD36RoundRect,0.250000X1.500000X0.650000X-1.500000X0.650000X-1.500000X-0.650000X1.500000X-0.650000X0*%
G04 #@! TD*
G04 #@! TA.AperFunction,SMDPad,CuDef*
%ADD37RoundRect,0.100000X0.100000X-0.637500X0.100000X0.637500X-0.100000X0.637500X-0.100000X-0.637500X0*%
G04 #@! TD*
G04 #@! TA.AperFunction,ViaPad*
%ADD38C,0.600000*%
G04 #@! TD*
G04 #@! TA.AperFunction,Conductor*
%ADD39C,0.250000*%
G04 #@! TD*
G04 #@! TA.AperFunction,Conductor*
%ADD40C,0.200000*%
G04 #@! TD*
G04 #@! TA.AperFunction,Conductor*
%ADD41C,0.500000*%
G04 #@! TD*
G04 #@! TA.AperFunction,Conductor*
%ADD42C,0.300000*%
G04 #@! TD*
G04 APERTURE END LIST*
D10*
X142172500Y-141970000D03*
X144247500Y-141970000D03*
D11*
X138560000Y-128025000D03*
X138560000Y-129295000D03*
X138560000Y-130565000D03*
X138560000Y-131835000D03*
X138560000Y-133105000D03*
X138560000Y-134375000D03*
X138560000Y-135645000D03*
X138560000Y-136915000D03*
X147860000Y-136915000D03*
X147860000Y-135645000D03*
X147860000Y-134375000D03*
X147860000Y-133105000D03*
X147860000Y-131835000D03*
X147860000Y-130565000D03*
X147860000Y-129295000D03*
X147860000Y-128025000D03*
D12*
X142060000Y-58870000D03*
X142060000Y-56970000D03*
X139960000Y-57920000D03*
D13*
X123460000Y-73920000D03*
X123460000Y-80020000D03*
X129210000Y-73920000D03*
X129210000Y-80020000D03*
X136960000Y-73920000D03*
X136960000Y-80020000D03*
X142710000Y-73920000D03*
X142710000Y-80020000D03*
D14*
X150460000Y-58970000D03*
X150460000Y-56970000D03*
X150460000Y-66220000D03*
X150460000Y-68220000D03*
D15*
X150460000Y-62470000D03*
X152460000Y-62470000D03*
X150460000Y-71720000D03*
X152460000Y-71720000D03*
D16*
X125710000Y-55220000D03*
X123710000Y-55220000D03*
D17*
X136710000Y-89720000D03*
X123210000Y-89720000D03*
X136710000Y-84220000D03*
X123210000Y-84220000D03*
D18*
X112960000Y-51470000D03*
X112960000Y-46470000D03*
D19*
X128960000Y-87820000D03*
X128960000Y-85620000D03*
X142210000Y-87820000D03*
X142210000Y-85620000D03*
D20*
X146460000Y-59007500D03*
X146460000Y-56932500D03*
X146460000Y-68257500D03*
X146460000Y-66182500D03*
D12*
X142060000Y-68120000D03*
X142060000Y-66220000D03*
X139960000Y-67170000D03*
D16*
X158460000Y-138220000D03*
X156460000Y-138220000D03*
D15*
X162460000Y-138220000D03*
X164460000Y-138220000D03*
D10*
X164422500Y-134720000D03*
X166497500Y-134720000D03*
D21*
X155497500Y-134720000D03*
X153422500Y-134720000D03*
X160747500Y-131720000D03*
X158672500Y-131720000D03*
D22*
X108060000Y-96370000D03*
X105860000Y-96370000D03*
D16*
X143210000Y-111720000D03*
X141210000Y-111720000D03*
X107960000Y-100620000D03*
X105960000Y-100620000D03*
D23*
X107960000Y-136970000D03*
X107960000Y-141970000D03*
D18*
X157510000Y-143470000D03*
D10*
X149922500Y-112220000D03*
X151997500Y-112220000D03*
D24*
X101960000Y-72970000D03*
D25*
X124960000Y-111682500D03*
X124960000Y-113757500D03*
D26*
X108030000Y-127720000D03*
X108030000Y-122720000D03*
D15*
X137960000Y-96470000D03*
X139960000Y-96470000D03*
D27*
X151900000Y-91890000D03*
X151900000Y-94430000D03*
X151900000Y-102050000D03*
X151900000Y-107130000D03*
D16*
X102960000Y-104870000D03*
X100960000Y-104870000D03*
D28*
X102210000Y-108620000D03*
X102210000Y-110620000D03*
D29*
X129510000Y-128220000D03*
X123410000Y-128220000D03*
D16*
X102960000Y-100620000D03*
X100960000Y-100620000D03*
D10*
X161672500Y-122720000D03*
X163747500Y-122720000D03*
D16*
X107960000Y-104870000D03*
X105960000Y-104870000D03*
D29*
X119510000Y-122500000D03*
X113410000Y-122500000D03*
D21*
X107997500Y-108870000D03*
X105922500Y-108870000D03*
D18*
X102460000Y-122470000D03*
D30*
X142760000Y-100670000D03*
D31*
X140220000Y-100670000D03*
X137680000Y-100670000D03*
X135140000Y-100670000D03*
X135140000Y-108290000D03*
X137680000Y-108290000D03*
X140220000Y-108290000D03*
X142760000Y-108290000D03*
D10*
X149922500Y-114720000D03*
X151997500Y-114720000D03*
D15*
X134090000Y-47440000D03*
X136090000Y-47440000D03*
D21*
X143747500Y-50970000D03*
X141672500Y-50970000D03*
D18*
X102460000Y-127470000D03*
X118960000Y-46470000D03*
X118960000Y-51470000D03*
D15*
X101210000Y-57720000D03*
X103210000Y-57720000D03*
X125210000Y-96470000D03*
X127210000Y-96470000D03*
D18*
X163510000Y-143470000D03*
D29*
X129560000Y-122500000D03*
X123460000Y-122500000D03*
X119510000Y-128220000D03*
X113410000Y-128220000D03*
D14*
X106960000Y-73720000D03*
X106960000Y-71720000D03*
D32*
X124960000Y-47470000D03*
X129960000Y-47470000D03*
D17*
X101960000Y-90970000D03*
D18*
X102460000Y-136720000D03*
D15*
X106210000Y-57720000D03*
X108210000Y-57720000D03*
D18*
X151340000Y-46380000D03*
D24*
X101960000Y-77970000D03*
D33*
X113780000Y-80170000D03*
D34*
X116320000Y-80170000D03*
X113780000Y-82710000D03*
X116320000Y-82710000D03*
X113780000Y-85250000D03*
X116320000Y-85250000D03*
X113780000Y-87790000D03*
X116320000Y-87790000D03*
X113780000Y-90330000D03*
X116320000Y-90330000D03*
X113780000Y-92870000D03*
X116320000Y-92870000D03*
X113780000Y-95410000D03*
X116320000Y-95410000D03*
X113780000Y-97950000D03*
X116320000Y-97950000D03*
X113780000Y-100490000D03*
X116320000Y-100490000D03*
X113780000Y-103030000D03*
X116320000Y-103030000D03*
X113780000Y-105570000D03*
X116320000Y-105570000D03*
X113780000Y-108110000D03*
X116320000Y-108110000D03*
X113780000Y-110650000D03*
X116320000Y-110650000D03*
X113780000Y-113190000D03*
X116320000Y-113190000D03*
X113780000Y-115730000D03*
X116320000Y-115730000D03*
D30*
X130030000Y-100700000D03*
D31*
X127490000Y-100700000D03*
X124950000Y-100700000D03*
X122410000Y-100700000D03*
X122410000Y-108320000D03*
X124950000Y-108320000D03*
X127490000Y-108320000D03*
X130030000Y-108320000D03*
D25*
X137710000Y-111682500D03*
X137710000Y-113757500D03*
D33*
X159500000Y-75090000D03*
D34*
X162040000Y-75090000D03*
X159500000Y-77630000D03*
X162040000Y-77630000D03*
X159500000Y-80170000D03*
X162040000Y-80170000D03*
X159500000Y-82710000D03*
X162040000Y-82710000D03*
X159500000Y-85250000D03*
X162040000Y-85250000D03*
X159500000Y-87790000D03*
X162040000Y-87790000D03*
X159500000Y-90330000D03*
X162040000Y-90330000D03*
X159500000Y-92870000D03*
X162040000Y-92870000D03*
X159500000Y-95410000D03*
X162040000Y-95410000D03*
X159500000Y-97950000D03*
X162040000Y-97950000D03*
X159500000Y-100490000D03*
X162040000Y-100490000D03*
X159500000Y-103030000D03*
X162040000Y-103030000D03*
X159500000Y-105570000D03*
X162040000Y-105570000D03*
X159500000Y-108110000D03*
X162040000Y-108110000D03*
X159500000Y-110650000D03*
X162040000Y-110650000D03*
X159500000Y-113190000D03*
X162040000Y-113190000D03*
X159500000Y-115730000D03*
X162040000Y-115730000D03*
D22*
X108160000Y-66970000D03*
X105960000Y-66970000D03*
D10*
X123552500Y-51690000D03*
X125627500Y-51690000D03*
X101172500Y-53720000D03*
X103247500Y-53720000D03*
D16*
X130460000Y-111970000D03*
X128460000Y-111970000D03*
D29*
X129260000Y-136970000D03*
X123160000Y-136970000D03*
X119260000Y-142220000D03*
X113160000Y-142220000D03*
D18*
X102460000Y-141720000D03*
D20*
X137360000Y-126057500D03*
X137360000Y-123982500D03*
D10*
X148582500Y-85950000D03*
X150657500Y-85950000D03*
D35*
X100860000Y-96370000D03*
X103060000Y-96370000D03*
D36*
X145340000Y-47440000D03*
X140340000Y-47440000D03*
D28*
X106960000Y-90120000D03*
X106960000Y-92120000D03*
D15*
X106210000Y-62720000D03*
X108210000Y-62720000D03*
D33*
X159500000Y-48170000D03*
D34*
X162040000Y-48170000D03*
X159500000Y-50710000D03*
X162040000Y-50710000D03*
X159500000Y-53250000D03*
X162040000Y-53250000D03*
X159500000Y-55790000D03*
X162040000Y-55790000D03*
X159500000Y-58330000D03*
X162040000Y-58330000D03*
X159500000Y-60870000D03*
X162040000Y-60870000D03*
X159500000Y-63410000D03*
X162040000Y-63410000D03*
X159500000Y-65950000D03*
X162040000Y-65950000D03*
X159500000Y-68490000D03*
X162040000Y-68490000D03*
X159500000Y-71030000D03*
X162040000Y-71030000D03*
D35*
X101110000Y-66970000D03*
X103310000Y-66970000D03*
D10*
X102172500Y-113620000D03*
X104247500Y-113620000D03*
D21*
X106747500Y-47970000D03*
X104672500Y-47970000D03*
D18*
X151340000Y-51380000D03*
D37*
X155760000Y-127582500D03*
X156410000Y-127582500D03*
X157060000Y-127582500D03*
X157710000Y-127582500D03*
X158360000Y-127582500D03*
X159010000Y-127582500D03*
X159660000Y-127582500D03*
X159660000Y-121857500D03*
X159010000Y-121857500D03*
X158360000Y-121857500D03*
X157710000Y-121857500D03*
X157060000Y-121857500D03*
X156410000Y-121857500D03*
X155760000Y-121857500D03*
D29*
X129260000Y-142220000D03*
X123160000Y-142220000D03*
X119310000Y-136970000D03*
X113210000Y-136970000D03*
D17*
X101960000Y-85870000D03*
D15*
X101210000Y-62720000D03*
X103210000Y-62720000D03*
D14*
X106960000Y-53970000D03*
X106960000Y-51970000D03*
D10*
X148422500Y-125220000D03*
X150497500Y-125220000D03*
D33*
X113780000Y-57310000D03*
D34*
X116320000Y-57310000D03*
X113780000Y-59850000D03*
X116320000Y-59850000D03*
X113780000Y-62390000D03*
X116320000Y-62390000D03*
X113780000Y-64930000D03*
X116320000Y-64930000D03*
X113780000Y-67470000D03*
X116320000Y-67470000D03*
X113780000Y-70010000D03*
X116320000Y-70010000D03*
X113780000Y-72550000D03*
X116320000Y-72550000D03*
X113780000Y-75090000D03*
X116320000Y-75090000D03*
D38*
X153660000Y-109720000D03*
X150060000Y-77620000D03*
X139260000Y-61720000D03*
X133360000Y-80720000D03*
X143860000Y-53520000D03*
X132460000Y-99520000D03*
X120660000Y-74220000D03*
X125660000Y-58920000D03*
X118560000Y-76820000D03*
X150960000Y-77620000D03*
X150460000Y-64720000D03*
X146460000Y-64720000D03*
X142660000Y-65020000D03*
X142060000Y-55520000D03*
X146460000Y-55320000D03*
X150160000Y-55420000D03*
X151760000Y-53820000D03*
X139860000Y-50920000D03*
X139860000Y-44920000D03*
X131660000Y-50420000D03*
X127560000Y-53120000D03*
X109760000Y-108820000D03*
X109460000Y-103320000D03*
X111560000Y-77520000D03*
X134860000Y-124120000D03*
X127360000Y-119120000D03*
X101460000Y-59920000D03*
X111615000Y-62765000D03*
X103160000Y-47920000D03*
X142160000Y-84520000D03*
X153785000Y-115645000D03*
X128560000Y-84520000D03*
X136160000Y-96420000D03*
X123560000Y-96320000D03*
X152060000Y-85920000D03*
X153690000Y-110650000D03*
X137260000Y-122520000D03*
X136260000Y-129320000D03*
X132160000Y-111920000D03*
X144960000Y-111720000D03*
X136460000Y-115320000D03*
X123360000Y-113720000D03*
X134960000Y-139920000D03*
X110360000Y-142020000D03*
X108030000Y-119720000D03*
X105560000Y-113620000D03*
X105960000Y-110420000D03*
X99560000Y-104920000D03*
X99660000Y-100620000D03*
X100860000Y-98320000D03*
X109660000Y-67020000D03*
X109660000Y-62720000D03*
X109660000Y-57720000D03*
X103260000Y-51920000D03*
X154659997Y-71920000D03*
X139710000Y-126220000D03*
X155460000Y-71920000D03*
X140460000Y-131720000D03*
X141360000Y-132220000D03*
X142210000Y-132720000D03*
X136960000Y-138257500D03*
X161335000Y-121095000D03*
X150960000Y-117470000D03*
X155460000Y-129220000D03*
X152210000Y-125220000D03*
X154835000Y-120095000D03*
X157710000Y-120470000D03*
X149960000Y-133220000D03*
X145710000Y-129220000D03*
X151960000Y-134720000D03*
X166460000Y-132720000D03*
X164960000Y-122720000D03*
X149960000Y-136970000D03*
X140710000Y-141970000D03*
X145710000Y-141970000D03*
X147160000Y-83920000D03*
D39*
X165660000Y-51790000D02*
X162040000Y-48170000D01*
X164560000Y-118320000D02*
X165660000Y-117220000D01*
X165660000Y-117220000D02*
X165660000Y-51790000D01*
X157760000Y-118320000D02*
X164560000Y-118320000D01*
X155085000Y-115645000D02*
X157760000Y-118320000D01*
X153785000Y-115645000D02*
X155085000Y-115645000D01*
X140660000Y-129720000D02*
X140660000Y-127170000D01*
X139815000Y-130565000D02*
X140660000Y-129720000D01*
X138560000Y-130565000D02*
X139815000Y-130565000D01*
X140660000Y-127170000D02*
X139710000Y-126220000D01*
D40*
X157710000Y-128682500D02*
X157710000Y-127582500D01*
X160747500Y-131720000D02*
X157710000Y-128682500D01*
D39*
X116460000Y-52720000D02*
X116460000Y-49970000D01*
X117460000Y-53720000D02*
X116460000Y-52720000D01*
X118660000Y-53720000D02*
X117460000Y-53720000D01*
X116460000Y-49970000D02*
X112960000Y-46470000D01*
X120160000Y-55220000D02*
X118660000Y-53720000D01*
X123710000Y-55220000D02*
X120160000Y-55220000D01*
X150460000Y-62470000D02*
X150460000Y-58970000D01*
X135635000Y-125245000D02*
X135707500Y-125172500D01*
X135635000Y-133744999D02*
X135635000Y-125245000D01*
X137535001Y-135645000D02*
X135635000Y-133744999D01*
X138560000Y-135645000D02*
X137535001Y-135645000D01*
D41*
X134860000Y-124325000D02*
X135707500Y-125172500D01*
X135707500Y-125172500D02*
X138107500Y-127572500D01*
X143860000Y-53520000D02*
X143860000Y-51082500D01*
X143860000Y-51082500D02*
X143747500Y-50970000D01*
X133360000Y-67620000D02*
X139260000Y-61720000D01*
X132460000Y-100820000D02*
X132460000Y-99520000D01*
X133360000Y-80720000D02*
X133360000Y-67620000D01*
X137680000Y-106040000D02*
X132460000Y-100820000D01*
X137680000Y-108290000D02*
X137680000Y-106040000D01*
X120660000Y-104030000D02*
X124950000Y-108320000D01*
X120660000Y-74220000D02*
X120660000Y-104030000D01*
X115510000Y-76820000D02*
X113780000Y-75090000D01*
X118560000Y-76820000D02*
X115510000Y-76820000D01*
X125660000Y-55270000D02*
X125710000Y-55220000D01*
X125660000Y-58920000D02*
X125660000Y-55270000D01*
X148660000Y-88650000D02*
X148660000Y-87420000D01*
X148660000Y-87420000D02*
X148582500Y-87342500D01*
X148582500Y-87342500D02*
X148582500Y-85950000D01*
X151900000Y-91890000D02*
X148660000Y-88650000D01*
D39*
X150960000Y-77820000D02*
X150960000Y-77620000D01*
X147760000Y-81020000D02*
X150960000Y-77820000D01*
X145860000Y-82920000D02*
X147760000Y-81020000D01*
X145860000Y-89520000D02*
X145860000Y-87220000D01*
X135260000Y-92920000D02*
X142460000Y-92920000D01*
X134560000Y-93620000D02*
X135260000Y-92920000D01*
X134260000Y-93620000D02*
X134560000Y-93620000D01*
X142460000Y-92920000D02*
X145860000Y-89520000D01*
X131560000Y-96320000D02*
X134260000Y-93620000D01*
X127360000Y-96320000D02*
X131560000Y-96320000D01*
X127210000Y-96470000D02*
X127360000Y-96320000D01*
X145860000Y-87220000D02*
X145860000Y-82920000D01*
X150460000Y-71720000D02*
X150460000Y-68220000D01*
X150422500Y-68257500D02*
X150460000Y-68220000D01*
X146460000Y-68257500D02*
X150422500Y-68257500D01*
X150460000Y-66220000D02*
X150460000Y-64720000D01*
X146460000Y-66182500D02*
X146460000Y-64720000D01*
X142060000Y-65620000D02*
X142660000Y-65020000D01*
X142060000Y-66220000D02*
X142060000Y-65620000D01*
X146322500Y-68120000D02*
X146460000Y-68257500D01*
X142060000Y-68120000D02*
X146322500Y-68120000D01*
X139960000Y-71170000D02*
X142710000Y-73920000D01*
X139960000Y-67170000D02*
X139960000Y-71170000D01*
X136960000Y-73920000D02*
X142710000Y-73920000D01*
X129210000Y-80020000D02*
X123460000Y-80020000D01*
X123460000Y-73920000D02*
X129210000Y-73920000D01*
X131860000Y-71270000D02*
X129210000Y-73920000D01*
X138460000Y-58020000D02*
X131860000Y-64620000D01*
X139860000Y-58020000D02*
X138460000Y-58020000D01*
X139960000Y-57920000D02*
X139860000Y-58020000D01*
X131860000Y-64620000D02*
X131860000Y-71270000D01*
X142060000Y-56970000D02*
X142060000Y-55520000D01*
X146322500Y-58870000D02*
X146460000Y-59007500D01*
X142060000Y-58870000D02*
X146322500Y-58870000D01*
X146497500Y-58970000D02*
X146460000Y-59007500D01*
X150460000Y-58970000D02*
X146497500Y-58970000D01*
X146460000Y-55320000D02*
X146460000Y-56932500D01*
X150160000Y-56670000D02*
X150460000Y-56970000D01*
X150160000Y-55420000D02*
X150160000Y-56670000D01*
D41*
X151340000Y-53400000D02*
X151760000Y-53820000D01*
X151340000Y-51380000D02*
X151340000Y-53400000D01*
X150280000Y-47440000D02*
X151340000Y-46380000D01*
X145340000Y-47440000D02*
X150280000Y-47440000D01*
X138070000Y-49420000D02*
X136090000Y-47440000D01*
X143060000Y-50548122D02*
X143060000Y-49420000D01*
X143060000Y-49420000D02*
X138070000Y-49420000D01*
X143481878Y-50970000D02*
X143060000Y-50548122D01*
X143747500Y-50970000D02*
X143481878Y-50970000D01*
X139910000Y-50970000D02*
X139860000Y-50920000D01*
X141672500Y-50970000D02*
X139910000Y-50970000D01*
X140340000Y-45400000D02*
X139860000Y-44920000D01*
X140340000Y-47440000D02*
X140340000Y-45400000D01*
X134090000Y-46450000D02*
X132060000Y-44420000D01*
X128010000Y-44420000D02*
X124960000Y-47470000D01*
X134090000Y-47440000D02*
X134090000Y-46450000D01*
X132060000Y-44420000D02*
X128010000Y-44420000D01*
X129960000Y-48720000D02*
X131660000Y-50420000D01*
X129960000Y-47470000D02*
X129960000Y-48720000D01*
X122710000Y-47470000D02*
X124960000Y-47470000D01*
X121710000Y-46470000D02*
X122710000Y-47470000D01*
X118960000Y-46470000D02*
X121710000Y-46470000D01*
X123552500Y-52312500D02*
X125710000Y-54470000D01*
X125710000Y-54470000D02*
X125710000Y-55220000D01*
X123552500Y-51690000D02*
X123552500Y-52312500D01*
X123552500Y-50427500D02*
X123552500Y-51690000D01*
X123960000Y-48470000D02*
X123960000Y-50020000D01*
X123960000Y-50020000D02*
X123552500Y-50427500D01*
X124960000Y-47470000D02*
X123960000Y-48470000D01*
X126130000Y-51690000D02*
X127560000Y-53120000D01*
X125627500Y-51690000D02*
X126130000Y-51690000D01*
D39*
X109590000Y-107220000D02*
X113780000Y-103030000D01*
X102210000Y-110620000D02*
X105610000Y-107220000D01*
X105610000Y-107220000D02*
X109590000Y-107220000D01*
X109760000Y-108820000D02*
X108047500Y-108820000D01*
X108047500Y-108820000D02*
X107997500Y-108870000D01*
X109460000Y-103370000D02*
X107960000Y-104870000D01*
X109460000Y-103320000D02*
X109460000Y-103370000D01*
X111615000Y-77465000D02*
X111560000Y-77520000D01*
X111615000Y-62765000D02*
X111615000Y-77465000D01*
D41*
X134860000Y-124120000D02*
X134860000Y-124325000D01*
X138107500Y-127572500D02*
X138560000Y-128025000D01*
X137360000Y-126825000D02*
X138107500Y-127572500D01*
X127305000Y-119120000D02*
X127360000Y-119120000D01*
X117860000Y-55020000D02*
X119460000Y-56620000D01*
X111560000Y-55020000D02*
X117860000Y-55020000D01*
X111560000Y-62661522D02*
X111560000Y-55020000D01*
X119460000Y-111275000D02*
X127305000Y-119120000D01*
X111615000Y-62716522D02*
X111560000Y-62661522D01*
X119460000Y-56620000D02*
X119460000Y-111275000D01*
X111615000Y-62765000D02*
X111615000Y-62716522D01*
X113780000Y-64930000D02*
X111615000Y-62765000D01*
D39*
X102172500Y-113620000D02*
X102172500Y-110657500D01*
X102172500Y-110657500D02*
X102210000Y-110620000D01*
X102960000Y-107870000D02*
X102210000Y-108620000D01*
X102960000Y-104870000D02*
X102960000Y-107870000D01*
X105960000Y-104870000D02*
X102960000Y-104870000D01*
X102960000Y-104870000D02*
X102960000Y-100620000D01*
X102960000Y-100620000D02*
X105960000Y-100620000D01*
X105860000Y-96370000D02*
X103060000Y-96370000D01*
X106960000Y-95270000D02*
X108060000Y-96370000D01*
X106960000Y-92120000D02*
X106960000Y-95270000D01*
X106210000Y-90120000D02*
X101960000Y-85870000D01*
X106960000Y-90120000D02*
X106210000Y-90120000D01*
X106960000Y-73720000D02*
X102710000Y-73720000D01*
X102710000Y-73720000D02*
X101960000Y-72970000D01*
X110660000Y-79590000D02*
X110660000Y-55670000D01*
X110660000Y-55670000D02*
X106960000Y-51970000D01*
X113780000Y-82710000D02*
X110660000Y-79590000D01*
X101460000Y-59920000D02*
X101460000Y-57970000D01*
X101460000Y-57970000D02*
X101210000Y-57720000D01*
X103310000Y-66970000D02*
X105960000Y-66970000D01*
X105860000Y-71720000D02*
X101110000Y-66970000D01*
X106960000Y-71720000D02*
X105860000Y-71720000D01*
X101210000Y-66870000D02*
X101110000Y-66970000D01*
X101210000Y-62720000D02*
X101210000Y-66870000D01*
X103210000Y-62720000D02*
X106210000Y-62720000D01*
X106210000Y-57720000D02*
X106210000Y-62720000D01*
X101172500Y-57682500D02*
X101210000Y-57720000D01*
X101172500Y-53720000D02*
X101172500Y-57682500D01*
X103210000Y-57720000D02*
X106210000Y-57720000D01*
X106960000Y-56970000D02*
X106210000Y-57720000D01*
X106960000Y-53970000D02*
X106960000Y-56970000D01*
X106747500Y-51757500D02*
X106960000Y-51970000D01*
X106747500Y-47970000D02*
X106747500Y-51757500D01*
X103210000Y-47970000D02*
X103160000Y-47920000D01*
X104672500Y-47970000D02*
X103210000Y-47970000D01*
X143409999Y-86620001D02*
X143409999Y-80719999D01*
X143409999Y-80719999D02*
X142710000Y-80020000D01*
X142210000Y-87820000D02*
X143409999Y-86620001D01*
X142210000Y-84570000D02*
X142160000Y-84520000D01*
X142210000Y-85620000D02*
X142210000Y-84570000D01*
X140310000Y-89720000D02*
X142210000Y-87820000D01*
X136710000Y-89720000D02*
X140310000Y-89720000D01*
X140220000Y-96730000D02*
X139960000Y-96470000D01*
X140220000Y-100670000D02*
X140220000Y-96730000D01*
X153960000Y-63970000D02*
X152460000Y-62470000D01*
X153960000Y-81620000D02*
X153960000Y-63970000D01*
X162560000Y-86520000D02*
X158860000Y-86520000D01*
X163360000Y-91550000D02*
X163360000Y-87320000D01*
X163360000Y-87320000D02*
X162560000Y-86520000D01*
X158860000Y-86520000D02*
X153960000Y-81620000D01*
X162040000Y-92870000D02*
X163360000Y-91550000D01*
X158860000Y-89020000D02*
X152460000Y-82620000D01*
X160730000Y-89020000D02*
X158860000Y-89020000D01*
X162040000Y-90330000D02*
X160730000Y-89020000D01*
X152460000Y-82620000D02*
X152460000Y-71720000D01*
X160730000Y-64720000D02*
X162040000Y-63410000D01*
X157260000Y-68520000D02*
X157260000Y-66120000D01*
X157260000Y-66120000D02*
X158660000Y-64720000D01*
X158660000Y-64720000D02*
X160730000Y-64720000D01*
X154659997Y-71120003D02*
X157260000Y-68520000D01*
X154659997Y-71920000D02*
X154659997Y-71120003D01*
X158060000Y-67390000D02*
X159500000Y-65950000D01*
X158060000Y-69420000D02*
X158060000Y-67390000D01*
X155560000Y-71920000D02*
X158060000Y-69420000D01*
X155460000Y-71920000D02*
X155560000Y-71920000D01*
X127490000Y-96750000D02*
X127210000Y-96470000D01*
X127490000Y-100700000D02*
X127490000Y-96750000D01*
X127060000Y-89720000D02*
X128960000Y-87820000D01*
X123210000Y-89720000D02*
X127060000Y-89720000D01*
X129909999Y-86870001D02*
X129909999Y-80719999D01*
X129909999Y-80719999D02*
X129210000Y-80020000D01*
X128960000Y-87820000D02*
X129909999Y-86870001D01*
X128960000Y-84920000D02*
X128560000Y-84520000D01*
X128960000Y-85620000D02*
X128960000Y-84920000D01*
D41*
X108030000Y-119720000D02*
X108030000Y-122720000D01*
X110310000Y-141970000D02*
X110360000Y-142020000D01*
X107960000Y-141970000D02*
X110310000Y-141970000D01*
D39*
X136210000Y-96470000D02*
X136160000Y-96420000D01*
X137960000Y-96470000D02*
X136210000Y-96470000D01*
X123710000Y-96470000D02*
X123560000Y-96320000D01*
X125210000Y-96470000D02*
X123710000Y-96470000D01*
D41*
X152030000Y-85950000D02*
X152060000Y-85920000D01*
X150657500Y-85950000D02*
X152030000Y-85950000D01*
D39*
X153690000Y-110650000D02*
X159500000Y-110650000D01*
D41*
X154460000Y-107320000D02*
X154460000Y-104610000D01*
X151997500Y-109782500D02*
X154460000Y-107320000D01*
X154460000Y-104610000D02*
X151900000Y-102050000D01*
X151997500Y-112220000D02*
X151997500Y-109782500D01*
X137360000Y-126057500D02*
X137360000Y-126825000D01*
X137360000Y-122620000D02*
X137260000Y-122520000D01*
X137360000Y-123982500D02*
X137360000Y-122620000D01*
X129260000Y-134020000D02*
X129260000Y-136970000D01*
X132060000Y-131220000D02*
X129260000Y-134020000D01*
X132060000Y-123320000D02*
X132060000Y-131220000D01*
X141210000Y-111720000D02*
X141210000Y-114170000D01*
X141210000Y-114170000D02*
X132060000Y-123320000D01*
X136285000Y-129295000D02*
X136260000Y-129320000D01*
X138560000Y-129295000D02*
X136285000Y-129295000D01*
X107710000Y-136720000D02*
X107960000Y-136970000D01*
X102460000Y-136720000D02*
X107710000Y-136720000D01*
X113210000Y-136970000D02*
X107960000Y-136970000D01*
X113160000Y-137020000D02*
X113210000Y-136970000D01*
X113160000Y-142220000D02*
X113160000Y-137020000D01*
X123160000Y-136970000D02*
X119310000Y-136970000D01*
X123160000Y-142220000D02*
X119260000Y-142220000D01*
X129260000Y-136970000D02*
X129260000Y-142220000D01*
X140220000Y-110730000D02*
X141210000Y-111720000D01*
X140220000Y-108290000D02*
X140220000Y-110730000D01*
X132110000Y-111970000D02*
X132160000Y-111920000D01*
X130460000Y-111970000D02*
X132110000Y-111970000D01*
X143210000Y-111720000D02*
X144960000Y-111720000D01*
X137710000Y-114070000D02*
X136460000Y-115320000D01*
X137710000Y-113757500D02*
X137710000Y-114070000D01*
X137710000Y-108320000D02*
X137680000Y-108290000D01*
X137710000Y-111682500D02*
X137710000Y-108320000D01*
X123397500Y-113757500D02*
X123360000Y-113720000D01*
X124960000Y-113757500D02*
X123397500Y-113757500D01*
X124960000Y-108330000D02*
X124950000Y-108320000D01*
X124960000Y-111682500D02*
X124960000Y-108330000D01*
X127490000Y-111000000D02*
X128460000Y-111970000D01*
X127490000Y-108320000D02*
X127490000Y-111000000D01*
X128460000Y-113620000D02*
X128460000Y-111970000D01*
X128560000Y-113720000D02*
X128460000Y-113620000D01*
X128560000Y-114120000D02*
X128560000Y-113720000D01*
X129560000Y-115120000D02*
X128560000Y-114120000D01*
X129560000Y-122500000D02*
X129560000Y-115120000D01*
X129510000Y-122550000D02*
X129560000Y-122500000D01*
X129510000Y-128220000D02*
X129510000Y-122550000D01*
X119510000Y-122500000D02*
X123460000Y-122500000D01*
X119510000Y-128220000D02*
X123410000Y-128220000D01*
X113410000Y-128220000D02*
X113410000Y-122500000D01*
X112910000Y-127720000D02*
X113410000Y-128220000D01*
X108030000Y-127720000D02*
X112910000Y-127720000D01*
X102780000Y-122470000D02*
X108030000Y-127720000D01*
X102460000Y-122470000D02*
X102780000Y-122470000D01*
X134960000Y-138257500D02*
X134960000Y-139920000D01*
D39*
X108030000Y-119720000D02*
X108030000Y-119650000D01*
X108060000Y-119620000D02*
X108030000Y-119650000D01*
X104247500Y-113620000D02*
X105560000Y-113620000D01*
X105922500Y-109920000D02*
X105922500Y-110382500D01*
X105922500Y-108870000D02*
X105922500Y-109920000D01*
X105922500Y-110382500D02*
X105960000Y-110420000D01*
X99610000Y-104870000D02*
X100960000Y-104870000D01*
X99560000Y-104920000D02*
X99610000Y-104870000D01*
X100960000Y-100620000D02*
X99660000Y-100620000D01*
X100860000Y-96370000D02*
X100860000Y-98320000D01*
X109610000Y-66970000D02*
X109660000Y-67020000D01*
X108160000Y-66970000D02*
X109610000Y-66970000D01*
X108210000Y-62720000D02*
X109660000Y-62720000D01*
X109660000Y-57720000D02*
X108210000Y-57720000D01*
X103247500Y-51932500D02*
X103260000Y-51920000D01*
X103247500Y-53720000D02*
X103247500Y-51932500D01*
X141360000Y-132220000D02*
X140475000Y-133105000D01*
X140475000Y-133105000D02*
X138560000Y-133105000D01*
X140345000Y-131835000D02*
X140460000Y-131720000D01*
X138560000Y-131835000D02*
X140345000Y-131835000D01*
X140555000Y-134375000D02*
X138560000Y-134375000D01*
X142210000Y-132720000D02*
X140555000Y-134375000D01*
D41*
X136960000Y-138257500D02*
X137217500Y-138257500D01*
X137217500Y-138257500D02*
X138560000Y-136915000D01*
X134960000Y-138257500D02*
X136960000Y-138257500D01*
X161672500Y-121432500D02*
X161335000Y-121095000D01*
X161672500Y-122720000D02*
X161672500Y-121432500D01*
X149922500Y-117470000D02*
X150960000Y-117470000D01*
X149922500Y-117470000D02*
X149922500Y-121470000D01*
X149922500Y-114720000D02*
X149922500Y-117470000D01*
D39*
X157710000Y-120470000D02*
X157710000Y-121857500D01*
D41*
X149922500Y-121470000D02*
X149922500Y-123720000D01*
D39*
X155760000Y-128920000D02*
X155460000Y-129220000D01*
X155760000Y-127582500D02*
X155760000Y-128920000D01*
X150960000Y-133769999D02*
X151759999Y-132970000D01*
X150960000Y-139720000D02*
X150960000Y-133769999D01*
X151759999Y-132970000D02*
X154210000Y-132970000D01*
X151460000Y-140220000D02*
X150960000Y-139720000D01*
X157210000Y-140220000D02*
X151460000Y-140220000D01*
X154210000Y-132970000D02*
X156410000Y-130770000D01*
X156410000Y-130770000D02*
X156410000Y-127582500D01*
X158460000Y-138970000D02*
X157210000Y-140220000D01*
X158460000Y-138220000D02*
X158460000Y-138970000D01*
X159960000Y-123720000D02*
X159960000Y-123282500D01*
X159710000Y-123970000D02*
X159960000Y-123720000D01*
X159710000Y-125495001D02*
X159710000Y-123970000D01*
X158360000Y-126845001D02*
X159710000Y-125495001D01*
X158360000Y-127582500D02*
X158360000Y-126845001D01*
X159960000Y-123282500D02*
X160522500Y-122720000D01*
D41*
X150497500Y-125220000D02*
X152210000Y-125220000D01*
X147860000Y-127320000D02*
X147860000Y-128025000D01*
X147960000Y-127220000D02*
X147860000Y-127320000D01*
X147960000Y-126720000D02*
X147960000Y-127220000D01*
X148422500Y-126257500D02*
X147960000Y-126720000D01*
X148422500Y-125220000D02*
X148422500Y-126257500D01*
X149922500Y-123720000D02*
X148422500Y-125220000D01*
X164960000Y-122720000D02*
X163747500Y-122720000D01*
X160522500Y-122720000D02*
X159660000Y-121857500D01*
X161672500Y-122720000D02*
X160522500Y-122720000D01*
X154835000Y-120095000D02*
X151997500Y-117257500D01*
X149922500Y-112220000D02*
X149922500Y-114720000D01*
X149922500Y-109107500D02*
X149922500Y-112220000D01*
X151900000Y-107130000D02*
X149922500Y-109107500D01*
X151997500Y-114720000D02*
X151997500Y-112220000D01*
X151997500Y-117257500D02*
X151997500Y-114720000D01*
X155460000Y-120720000D02*
X154835000Y-120095000D01*
D42*
X155760000Y-121020000D02*
X155460000Y-120720000D01*
X155760000Y-121857500D02*
X155760000Y-121020000D01*
D39*
X148805000Y-134375000D02*
X149960000Y-133220000D01*
X147860000Y-134375000D02*
X148805000Y-134375000D01*
X155460000Y-126220000D02*
X155781188Y-126220000D01*
X154960000Y-126720000D02*
X155460000Y-126220000D01*
X154960000Y-127041188D02*
X154960000Y-126720000D01*
X159010000Y-122991188D02*
X159010000Y-121857500D01*
X148896188Y-133105000D02*
X154960000Y-127041188D01*
X147860000Y-133105000D02*
X148896188Y-133105000D01*
X155781188Y-126220000D02*
X159010000Y-122991188D01*
X158360000Y-122594999D02*
X158360000Y-121857500D01*
X149119999Y-131835000D02*
X158360000Y-122594999D01*
X147860000Y-131835000D02*
X149119999Y-131835000D01*
X157060000Y-122594999D02*
X157060000Y-121857500D01*
X147860000Y-130565000D02*
X149089999Y-130565000D01*
X149089999Y-130565000D02*
X157060000Y-122594999D01*
X155672500Y-134720000D02*
X158672500Y-131720000D01*
X155497500Y-134720000D02*
X155672500Y-134720000D01*
X156460000Y-135682500D02*
X155497500Y-134720000D01*
X156460000Y-138220000D02*
X156460000Y-135682500D01*
X158460000Y-142520000D02*
X157510000Y-143470000D01*
X158460000Y-138220000D02*
X158460000Y-142520000D01*
X162460000Y-138220000D02*
X162460000Y-142420000D01*
X162460000Y-142420000D02*
X163510000Y-143470000D01*
X164460000Y-135220000D02*
X164460000Y-138220000D01*
X164422500Y-135182500D02*
X164460000Y-135220000D01*
X164422500Y-134720000D02*
X164422500Y-135182500D01*
X161422500Y-131720000D02*
X160747500Y-131720000D01*
X161691250Y-131988750D02*
X161422500Y-131720000D01*
X164422500Y-134720000D02*
X161691250Y-131988750D01*
D40*
X164460000Y-138220000D02*
X164422500Y-138182500D01*
D39*
X157060000Y-129470000D02*
X157060000Y-130107500D01*
X157060000Y-127582500D02*
X157060000Y-129470000D01*
D40*
X160747500Y-131357499D02*
X160747500Y-131720000D01*
D39*
X157060000Y-130107500D02*
X158672500Y-131720000D01*
D41*
X145785000Y-129295000D02*
X145710000Y-129220000D01*
X147860000Y-129295000D02*
X145785000Y-129295000D01*
X153422500Y-134720000D02*
X151960000Y-134720000D01*
X166497500Y-132757500D02*
X166460000Y-132720000D01*
X166497500Y-134720000D02*
X166497500Y-132757500D01*
X149905000Y-136915000D02*
X149960000Y-136970000D01*
X147860000Y-136915000D02*
X149905000Y-136915000D01*
X142172500Y-141970000D02*
X140710000Y-141970000D01*
X144247500Y-141970000D02*
X145710000Y-141970000D01*
X148582500Y-85950000D02*
X148582500Y-85342500D01*
X148582500Y-85342500D02*
X147160000Y-83920000D01*
M02*
