<?xml version="1.0" standalone="no"?>
 <!DOCTYPE svg PUBLIC "-//W3C//DTD SVG 1.1//EN" 
 "http://www.w3.org/Graphics/SVG/1.1/DTD/svg11.dtd"> 
<svg
  xmlns:svg="http://www.w3.org/2000/svg"
  xmlns="http://www.w3.org/2000/svg"
  xmlns:xlink="http://www.w3.org/1999/xlink"
  version="1.1"
  width="297.0022mm" height="210.0072mm" viewBox="0.0000 0.0000 297.0022 210.0072">
<title>SVG Image created as Pulse generator daughter board-NPTH-drl_map.svg date 2024/12/04 22:51:33 </title>
  <desc>Image generated by PCBNEW </desc>
<g style="fill:#000000; fill-opacity:1.0000;stroke:#000000; stroke-opacity:1.0000;
stroke-linecap:round; stroke-linejoin:round;"
 transform="translate(0 0) scale(1 1)">
<path style="fill:none; 
stroke:#000000; stroke-width:0.2212; stroke-opacity:1; 
stroke-linecap:round; stroke-linejoin:round;fill:none"
d="M 108.5520,5.1106
188.4502,5.1106
188.4502,120.8937
108.5520,120.8937
Z" /> 
</g>
<g style="fill:none; 
stroke:#000000; stroke-width:0.2000; stroke-opacity:1; 
stroke-linecap:round; stroke-linejoin:round;">
<text x="110.4415" y="124.2043"
textLength="14.8667" font-size="2.6667" lengthAdjust="spacingAndGlyphs"
text-anchor="start" opacity="0" stroke-opacity="0">Drill Map:</text>
<g class="stroked-text"><desc>Drill Map:</desc>
<path d="M111.0492 124.1192
L111.0492 122.1192
" />
<path d="M111.0492 122.1192
L111.5254 122.1192
" />
<path d="M111.5254 122.1192
L111.8111 122.2144
" />
<path d="M111.8111 122.2144
L112.0016 122.4049
" />
<path d="M112.0016 122.4049
L112.0968 122.5953
" />
<path d="M112.0968 122.5953
L112.1921 122.9763
" />
<path d="M112.1921 122.9763
L112.1921 123.2620
" />
<path d="M112.1921 123.2620
L112.0968 123.6430
" />
<path d="M112.0968 123.6430
L112.0016 123.8334
" />
<path d="M112.0016 123.8334
L111.8111 124.0239
" />
<path d="M111.8111 124.0239
L111.5254 124.1192
" />
<path d="M111.5254 124.1192
L111.0492 124.1192
" />
<path d="M113.0492 124.1192
L113.0492 122.7858
" />
<path d="M113.0492 123.1668
L113.1445 122.9763
" />
<path d="M113.1445 122.9763
L113.2397 122.8811
" />
<path d="M113.2397 122.8811
L113.4302 122.7858
" />
<path d="M113.4302 122.7858
L113.6207 122.7858
" />
<path d="M114.2873 124.1192
L114.2873 122.7858
" />
<path d="M114.2873 122.1192
L114.1921 122.2144
" />
<path d="M114.1921 122.2144
L114.2873 122.3096
" />
<path d="M114.2873 122.3096
L114.3826 122.2144
" />
<path d="M114.3826 122.2144
L114.2873 122.1192
" />
<path d="M114.2873 122.1192
L114.2873 122.3096
" />
<path d="M115.5254 124.1192
L115.3349 124.0239
" />
<path d="M115.3349 124.0239
L115.2397 123.8334
" />
<path d="M115.2397 123.8334
L115.2397 122.1192
" />
<path d="M116.5730 124.1192
L116.3826 124.0239
" />
<path d="M116.3826 124.0239
L116.2873 123.8334
" />
<path d="M116.2873 123.8334
L116.2873 122.1192
" />
<path d="M118.8587 124.1192
L118.8587 122.1192
" />
<path d="M118.8587 122.1192
L119.5254 123.5477
" />
<path d="M119.5254 123.5477
L120.1921 122.1192
" />
<path d="M120.1921 122.1192
L120.1921 124.1192
" />
<path d="M122.0016 124.1192
L122.0016 123.0715
" />
<path d="M122.0016 123.0715
L121.9064 122.8811
" />
<path d="M121.9064 122.8811
L121.7159 122.7858
" />
<path d="M121.7159 122.7858
L121.3349 122.7858
" />
<path d="M121.3349 122.7858
L121.1445 122.8811
" />
<path d="M122.0016 124.0239
L121.8111 124.1192
" />
<path d="M121.8111 124.1192
L121.3349 124.1192
" />
<path d="M121.3349 124.1192
L121.1445 124.0239
" />
<path d="M121.1445 124.0239
L121.0492 123.8334
" />
<path d="M121.0492 123.8334
L121.0492 123.6430
" />
<path d="M121.0492 123.6430
L121.1445 123.4525
" />
<path d="M121.1445 123.4525
L121.3349 123.3573
" />
<path d="M121.3349 123.3573
L121.8111 123.3573
" />
<path d="M121.8111 123.3573
L122.0016 123.2620
" />
<path d="M122.9540 122.7858
L122.9540 124.7858
" />
<path d="M122.9540 122.8811
L123.1445 122.7858
" />
<path d="M123.1445 122.7858
L123.5254 122.7858
" />
<path d="M123.5254 122.7858
L123.7159 122.8811
" />
<path d="M123.7159 122.8811
L123.8111 122.9763
" />
<path d="M123.8111 122.9763
L123.9064 123.1668
" />
<path d="M123.9064 123.1668
L123.9064 123.7382
" />
<path d="M123.9064 123.7382
L123.8111 123.9287
" />
<path d="M123.8111 123.9287
L123.7159 124.0239
" />
<path d="M123.7159 124.0239
L123.5254 124.1192
" />
<path d="M123.5254 124.1192
L123.1445 124.1192
" />
<path d="M123.1445 124.1192
L122.9540 124.0239
" />
<path d="M124.7635 123.9287
L124.8587 124.0239
" />
<path d="M124.8587 124.0239
L124.7635 124.1192
" />
<path d="M124.7635 124.1192
L124.6683 124.0239
" />
<path d="M124.6683 124.0239
L124.7635 123.9287
" />
<path d="M124.7635 123.9287
L124.7635 124.1192
" />
<path d="M124.7635 122.8811
L124.8587 122.9763
" />
<path d="M124.8587 122.9763
L124.7635 123.0715
" />
<path d="M124.7635 123.0715
L124.6683 122.9763
" />
<path d="M124.6683 122.9763
L124.7635 122.8811
" />
<path d="M124.7635 122.8811
L124.7635 123.0715
" />
</g></g> 
</svg>
