G04 #@! TF.GenerationSoftware,KiCad,Pcbnew,8.0.6*
G04 #@! TF.CreationDate,2024-12-04T22:51:12+00:00*
G04 #@! TF.ProjectId,Pulse generator daughter board,50756c73-6520-4676-956e-657261746f72,rev?*
G04 #@! TF.SameCoordinates,Original*
G04 #@! TF.FileFunction,Soldermask,Bot*
G04 #@! TF.FilePolarity,Negative*
%FSLAX46Y46*%
G04 Gerber Fmt 4.6, Leading zero omitted, Abs format (unit mm)*
G04 Created by KiCad (PCBNEW 8.0.6) date 2024-12-04 22:51:12*
%MOMM*%
%LPD*%
G01*
G04 APERTURE LIST*
G04 Aperture macros list*
%AMRoundRect*
0 Rectangle with rounded corners*
0 $1 Rounding radius*
0 $2 $3 $4 $5 $6 $7 $8 $9 X,Y pos of 4 corners*
0 Add a 4 corners polygon primitive as box body*
4,1,4,$2,$3,$4,$5,$6,$7,$8,$9,$2,$3,0*
0 Add four circle primitives for the rounded corners*
1,1,$1+$1,$2,$3*
1,1,$1+$1,$4,$5*
1,1,$1+$1,$6,$7*
1,1,$1+$1,$8,$9*
0 Add four rect primitives between the rounded corners*
20,1,$1+$1,$2,$3,$4,$5,0*
20,1,$1+$1,$4,$5,$6,$7,0*
20,1,$1+$1,$6,$7,$8,$9,0*
20,1,$1+$1,$8,$9,$2,$3,0*%
G04 Aperture macros list end*
%ADD10RoundRect,0.250001X-0.799999X0.799999X-0.799999X-0.799999X0.799999X-0.799999X0.799999X0.799999X0*%
%ADD11RoundRect,0.250001X-0.799999X-0.799999X0.799999X-0.799999X0.799999X0.799999X-0.799999X0.799999X0*%
%ADD12RoundRect,0.250001X0.799999X-0.799999X0.799999X0.799999X-0.799999X0.799999X-0.799999X-0.799999X0*%
%ADD13C,1.600000*%
%ADD14R,1.600000X1.600000*%
%ADD15O,1.600000X1.600000*%
%ADD16R,1.700000X1.700000*%
%ADD17O,1.700000X1.700000*%
G04 APERTURE END LIST*
D10*
X136710000Y-89720000D03*
X123210000Y-89720000D03*
X136710000Y-84220000D03*
X123210000Y-84220000D03*
D11*
X112960000Y-51470000D03*
X112960000Y-46470000D03*
X157510000Y-143470000D03*
D12*
X101960000Y-72970000D03*
D13*
X151900000Y-91890000D03*
X151900000Y-94430000D03*
X151900000Y-102050000D03*
X151900000Y-107130000D03*
D11*
X102460000Y-122470000D03*
D14*
X142760000Y-100670000D03*
D15*
X140220000Y-100670000D03*
X137680000Y-100670000D03*
X135140000Y-100670000D03*
X135140000Y-108290000D03*
X137680000Y-108290000D03*
X140220000Y-108290000D03*
X142760000Y-108290000D03*
D11*
X102460000Y-127470000D03*
X118960000Y-46470000D03*
X118960000Y-51470000D03*
X163510000Y-143470000D03*
D10*
X101960000Y-90970000D03*
D11*
X102460000Y-136720000D03*
X151340000Y-46380000D03*
D12*
X101960000Y-77970000D03*
D16*
X113780000Y-80170000D03*
D17*
X116320000Y-80170000D03*
X113780000Y-82710000D03*
X116320000Y-82710000D03*
X113780000Y-85250000D03*
X116320000Y-85250000D03*
X113780000Y-87790000D03*
X116320000Y-87790000D03*
X113780000Y-90330000D03*
X116320000Y-90330000D03*
X113780000Y-92870000D03*
X116320000Y-92870000D03*
X113780000Y-95410000D03*
X116320000Y-95410000D03*
X113780000Y-97950000D03*
X116320000Y-97950000D03*
X113780000Y-100490000D03*
X116320000Y-100490000D03*
X113780000Y-103030000D03*
X116320000Y-103030000D03*
X113780000Y-105570000D03*
X116320000Y-105570000D03*
X113780000Y-108110000D03*
X116320000Y-108110000D03*
X113780000Y-110650000D03*
X116320000Y-110650000D03*
X113780000Y-113190000D03*
X116320000Y-113190000D03*
X113780000Y-115730000D03*
X116320000Y-115730000D03*
D14*
X130030000Y-100700000D03*
D15*
X127490000Y-100700000D03*
X124950000Y-100700000D03*
X122410000Y-100700000D03*
X122410000Y-108320000D03*
X124950000Y-108320000D03*
X127490000Y-108320000D03*
X130030000Y-108320000D03*
D16*
X159500000Y-75090000D03*
D17*
X162040000Y-75090000D03*
X159500000Y-77630000D03*
X162040000Y-77630000D03*
X159500000Y-80170000D03*
X162040000Y-80170000D03*
X159500000Y-82710000D03*
X162040000Y-82710000D03*
X159500000Y-85250000D03*
X162040000Y-85250000D03*
X159500000Y-87790000D03*
X162040000Y-87790000D03*
X159500000Y-90330000D03*
X162040000Y-90330000D03*
X159500000Y-92870000D03*
X162040000Y-92870000D03*
X159500000Y-95410000D03*
X162040000Y-95410000D03*
X159500000Y-97950000D03*
X162040000Y-97950000D03*
X159500000Y-100490000D03*
X162040000Y-100490000D03*
X159500000Y-103030000D03*
X162040000Y-103030000D03*
X159500000Y-105570000D03*
X162040000Y-105570000D03*
X159500000Y-108110000D03*
X162040000Y-108110000D03*
X159500000Y-110650000D03*
X162040000Y-110650000D03*
X159500000Y-113190000D03*
X162040000Y-113190000D03*
X159500000Y-115730000D03*
X162040000Y-115730000D03*
D11*
X102460000Y-141720000D03*
D16*
X159500000Y-48170000D03*
D17*
X162040000Y-48170000D03*
X159500000Y-50710000D03*
X162040000Y-50710000D03*
X159500000Y-53250000D03*
X162040000Y-53250000D03*
X159500000Y-55790000D03*
X162040000Y-55790000D03*
X159500000Y-58330000D03*
X162040000Y-58330000D03*
X159500000Y-60870000D03*
X162040000Y-60870000D03*
X159500000Y-63410000D03*
X162040000Y-63410000D03*
X159500000Y-65950000D03*
X162040000Y-65950000D03*
X159500000Y-68490000D03*
X162040000Y-68490000D03*
X159500000Y-71030000D03*
X162040000Y-71030000D03*
D11*
X151340000Y-51380000D03*
D10*
X101960000Y-85870000D03*
D16*
X113780000Y-57310000D03*
D17*
X116320000Y-57310000D03*
X113780000Y-59850000D03*
X116320000Y-59850000D03*
X113780000Y-62390000D03*
X116320000Y-62390000D03*
X113780000Y-64930000D03*
X116320000Y-64930000D03*
X113780000Y-67470000D03*
X116320000Y-67470000D03*
X113780000Y-70010000D03*
X116320000Y-70010000D03*
X113780000Y-72550000D03*
X116320000Y-72550000D03*
X113780000Y-75090000D03*
X116320000Y-75090000D03*
M02*
