G04 #@! TF.GenerationSoftware,KiCad,Pcbnew,8.0.6*
G04 #@! TF.CreationDate,2024-12-04T22:51:12+00:00*
G04 #@! TF.ProjectId,Pulse generator daughter board,50756c73-6520-4676-956e-657261746f72,rev?*
G04 #@! TF.SameCoordinates,Original*
G04 #@! TF.FileFunction,Copper,L3,Inr*
G04 #@! TF.FilePolarity,Positive*
%FSLAX46Y46*%
G04 Gerber Fmt 4.6, Leading zero omitted, Abs format (unit mm)*
G04 Created by KiCad (PCBNEW 8.0.6) date 2024-12-04 22:51:12*
%MOMM*%
%LPD*%
G01*
G04 APERTURE LIST*
G04 Aperture macros list*
%AMRoundRect*
0 Rectangle with rounded corners*
0 $1 Rounding radius*
0 $2 $3 $4 $5 $6 $7 $8 $9 X,Y pos of 4 corners*
0 Add a 4 corners polygon primitive as box body*
4,1,4,$2,$3,$4,$5,$6,$7,$8,$9,$2,$3,0*
0 Add four circle primitives for the rounded corners*
1,1,$1+$1,$2,$3*
1,1,$1+$1,$4,$5*
1,1,$1+$1,$6,$7*
1,1,$1+$1,$8,$9*
0 Add four rect primitives between the rounded corners*
20,1,$1+$1,$2,$3,$4,$5,0*
20,1,$1+$1,$4,$5,$6,$7,0*
20,1,$1+$1,$6,$7,$8,$9,0*
20,1,$1+$1,$8,$9,$2,$3,0*%
G04 Aperture macros list end*
G04 #@! TA.AperFunction,ComponentPad*
%ADD10RoundRect,0.250001X-0.799999X0.799999X-0.799999X-0.799999X0.799999X-0.799999X0.799999X0.799999X0*%
G04 #@! TD*
G04 #@! TA.AperFunction,ComponentPad*
%ADD11RoundRect,0.250001X-0.799999X-0.799999X0.799999X-0.799999X0.799999X0.799999X-0.799999X0.799999X0*%
G04 #@! TD*
G04 #@! TA.AperFunction,ComponentPad*
%ADD12RoundRect,0.250001X0.799999X-0.799999X0.799999X0.799999X-0.799999X0.799999X-0.799999X-0.799999X0*%
G04 #@! TD*
G04 #@! TA.AperFunction,ComponentPad*
%ADD13C,1.600000*%
G04 #@! TD*
G04 #@! TA.AperFunction,ComponentPad*
%ADD14R,1.600000X1.600000*%
G04 #@! TD*
G04 #@! TA.AperFunction,ComponentPad*
%ADD15O,1.600000X1.600000*%
G04 #@! TD*
G04 #@! TA.AperFunction,ComponentPad*
%ADD16R,1.700000X1.700000*%
G04 #@! TD*
G04 #@! TA.AperFunction,ComponentPad*
%ADD17O,1.700000X1.700000*%
G04 #@! TD*
G04 #@! TA.AperFunction,ViaPad*
%ADD18C,0.600000*%
G04 #@! TD*
G04 APERTURE END LIST*
D10*
X136710000Y-89720000D03*
X123210000Y-89720000D03*
X136710000Y-84220000D03*
X123210000Y-84220000D03*
D11*
X112960000Y-51470000D03*
X112960000Y-46470000D03*
X157510000Y-143470000D03*
D12*
X101960000Y-72970000D03*
D13*
X151900000Y-91890000D03*
X151900000Y-94430000D03*
X151900000Y-102050000D03*
X151900000Y-107130000D03*
D11*
X102460000Y-122470000D03*
D14*
X142760000Y-100670000D03*
D15*
X140220000Y-100670000D03*
X137680000Y-100670000D03*
X135140000Y-100670000D03*
X135140000Y-108290000D03*
X137680000Y-108290000D03*
X140220000Y-108290000D03*
X142760000Y-108290000D03*
D11*
X102460000Y-127470000D03*
X118960000Y-46470000D03*
X118960000Y-51470000D03*
X163510000Y-143470000D03*
D10*
X101960000Y-90970000D03*
D11*
X102460000Y-136720000D03*
X151340000Y-46380000D03*
D12*
X101960000Y-77970000D03*
D16*
X113780000Y-80170000D03*
D17*
X116320000Y-80170000D03*
X113780000Y-82710000D03*
X116320000Y-82710000D03*
X113780000Y-85250000D03*
X116320000Y-85250000D03*
X113780000Y-87790000D03*
X116320000Y-87790000D03*
X113780000Y-90330000D03*
X116320000Y-90330000D03*
X113780000Y-92870000D03*
X116320000Y-92870000D03*
X113780000Y-95410000D03*
X116320000Y-95410000D03*
X113780000Y-97950000D03*
X116320000Y-97950000D03*
X113780000Y-100490000D03*
X116320000Y-100490000D03*
X113780000Y-103030000D03*
X116320000Y-103030000D03*
X113780000Y-105570000D03*
X116320000Y-105570000D03*
X113780000Y-108110000D03*
X116320000Y-108110000D03*
X113780000Y-110650000D03*
X116320000Y-110650000D03*
X113780000Y-113190000D03*
X116320000Y-113190000D03*
X113780000Y-115730000D03*
X116320000Y-115730000D03*
D14*
X130030000Y-100700000D03*
D15*
X127490000Y-100700000D03*
X124950000Y-100700000D03*
X122410000Y-100700000D03*
X122410000Y-108320000D03*
X124950000Y-108320000D03*
X127490000Y-108320000D03*
X130030000Y-108320000D03*
D16*
X159500000Y-75090000D03*
D17*
X162040000Y-75090000D03*
X159500000Y-77630000D03*
X162040000Y-77630000D03*
X159500000Y-80170000D03*
X162040000Y-80170000D03*
X159500000Y-82710000D03*
X162040000Y-82710000D03*
X159500000Y-85250000D03*
X162040000Y-85250000D03*
X159500000Y-87790000D03*
X162040000Y-87790000D03*
X159500000Y-90330000D03*
X162040000Y-90330000D03*
X159500000Y-92870000D03*
X162040000Y-92870000D03*
X159500000Y-95410000D03*
X162040000Y-95410000D03*
X159500000Y-97950000D03*
X162040000Y-97950000D03*
X159500000Y-100490000D03*
X162040000Y-100490000D03*
X159500000Y-103030000D03*
X162040000Y-103030000D03*
X159500000Y-105570000D03*
X162040000Y-105570000D03*
X159500000Y-108110000D03*
X162040000Y-108110000D03*
X159500000Y-110650000D03*
X162040000Y-110650000D03*
X159500000Y-113190000D03*
X162040000Y-113190000D03*
X159500000Y-115730000D03*
X162040000Y-115730000D03*
D11*
X102460000Y-141720000D03*
D16*
X159500000Y-48170000D03*
D17*
X162040000Y-48170000D03*
X159500000Y-50710000D03*
X162040000Y-50710000D03*
X159500000Y-53250000D03*
X162040000Y-53250000D03*
X159500000Y-55790000D03*
X162040000Y-55790000D03*
X159500000Y-58330000D03*
X162040000Y-58330000D03*
X159500000Y-60870000D03*
X162040000Y-60870000D03*
X159500000Y-63410000D03*
X162040000Y-63410000D03*
X159500000Y-65950000D03*
X162040000Y-65950000D03*
X159500000Y-68490000D03*
X162040000Y-68490000D03*
X159500000Y-71030000D03*
X162040000Y-71030000D03*
D11*
X151340000Y-51380000D03*
D10*
X101960000Y-85870000D03*
D16*
X113780000Y-57310000D03*
D17*
X116320000Y-57310000D03*
X113780000Y-59850000D03*
X116320000Y-59850000D03*
X113780000Y-62390000D03*
X116320000Y-62390000D03*
X113780000Y-64930000D03*
X116320000Y-64930000D03*
X113780000Y-67470000D03*
X116320000Y-67470000D03*
X113780000Y-70010000D03*
X116320000Y-70010000D03*
X113780000Y-72550000D03*
X116320000Y-72550000D03*
X113780000Y-75090000D03*
X116320000Y-75090000D03*
D18*
X153660000Y-109720000D03*
X150060000Y-77620000D03*
X139260000Y-61720000D03*
X133360000Y-80720000D03*
X143860000Y-53520000D03*
X132460000Y-99520000D03*
X120660000Y-74220000D03*
X125660000Y-58920000D03*
X118560000Y-76820000D03*
X150960000Y-77620000D03*
X150460000Y-64720000D03*
X146460000Y-64720000D03*
X142660000Y-65020000D03*
X142060000Y-55520000D03*
X146460000Y-55320000D03*
X150160000Y-55420000D03*
X151760000Y-53820000D03*
X139860000Y-50920000D03*
X139860000Y-44920000D03*
X131660000Y-50420000D03*
X127560000Y-53120000D03*
X109760000Y-108820000D03*
X109460000Y-103320000D03*
X111560000Y-77520000D03*
X134860000Y-124120000D03*
X127360000Y-119120000D03*
X101460000Y-59920000D03*
X111615000Y-62765000D03*
X103160000Y-47920000D03*
X142160000Y-84520000D03*
X153785000Y-115645000D03*
X128560000Y-84520000D03*
X136160000Y-96420000D03*
X123560000Y-96320000D03*
X152060000Y-85920000D03*
X153690000Y-110650000D03*
X137260000Y-122520000D03*
X136260000Y-129320000D03*
X132160000Y-111920000D03*
X144960000Y-111720000D03*
X136460000Y-115320000D03*
X123360000Y-113720000D03*
X134960000Y-139920000D03*
X110360000Y-142020000D03*
X108030000Y-119720000D03*
X105560000Y-113620000D03*
X105960000Y-110420000D03*
X99560000Y-104920000D03*
X99660000Y-100620000D03*
X100860000Y-98320000D03*
X109660000Y-67020000D03*
X109660000Y-62720000D03*
X109660000Y-57720000D03*
X103260000Y-51920000D03*
X154659997Y-71920000D03*
X139710000Y-126220000D03*
X155460000Y-71920000D03*
X140460000Y-131720000D03*
X141360000Y-132220000D03*
X142210000Y-132720000D03*
X136960000Y-138257500D03*
X161335000Y-121095000D03*
X150960000Y-117470000D03*
X155460000Y-129220000D03*
X152210000Y-125220000D03*
X154835000Y-120095000D03*
X157710000Y-120470000D03*
X149960000Y-133220000D03*
X145710000Y-129220000D03*
X151960000Y-134720000D03*
X166460000Y-132720000D03*
X164960000Y-122720000D03*
X149960000Y-136970000D03*
X140710000Y-141970000D03*
X145710000Y-141970000D03*
X147160000Y-83920000D03*
G04 #@! TA.AperFunction,Conductor*
G36*
X124629920Y-100454394D02*
G01*
X124577259Y-100545606D01*
X124550000Y-100647339D01*
X124550000Y-100752661D01*
X124577259Y-100854394D01*
X124629920Y-100945606D01*
X124634314Y-100950000D01*
X122725686Y-100950000D01*
X122730080Y-100945606D01*
X122782741Y-100854394D01*
X122810000Y-100752661D01*
X122810000Y-100647339D01*
X122782741Y-100545606D01*
X122730080Y-100454394D01*
X122725686Y-100450000D01*
X124634314Y-100450000D01*
X124629920Y-100454394D01*
G37*
G04 #@! TD.AperFunction*
G04 #@! TA.AperFunction,Conductor*
G36*
X137359920Y-100424394D02*
G01*
X137307259Y-100515606D01*
X137280000Y-100617339D01*
X137280000Y-100722661D01*
X137307259Y-100824394D01*
X137359920Y-100915606D01*
X137364314Y-100920000D01*
X135455686Y-100920000D01*
X135460080Y-100915606D01*
X135512741Y-100824394D01*
X135540000Y-100722661D01*
X135540000Y-100617339D01*
X135512741Y-100515606D01*
X135460080Y-100424394D01*
X135455686Y-100420000D01*
X137364314Y-100420000D01*
X137359920Y-100424394D01*
G37*
G04 #@! TD.AperFunction*
G04 #@! TA.AperFunction,Conductor*
G36*
X113587007Y-70475925D02*
G01*
X113714174Y-70510000D01*
X113834246Y-70510000D01*
X113838245Y-71225929D01*
X113842849Y-72050000D01*
X113714174Y-72050000D01*
X113587007Y-72084075D01*
X113530000Y-72116988D01*
X113530000Y-70443012D01*
X113587007Y-70475925D01*
G37*
G04 #@! TD.AperFunction*
G04 #@! TA.AperFunction,Conductor*
G36*
X169262539Y-43110185D02*
G01*
X169308294Y-43162989D01*
X169319500Y-43214500D01*
X169319500Y-118840500D01*
X169299815Y-118907539D01*
X169247011Y-118953294D01*
X169195500Y-118964500D01*
X158005685Y-118964500D01*
X157875685Y-118981502D01*
X157875678Y-118981503D01*
X157814045Y-118997905D01*
X157755887Y-119021822D01*
X157686398Y-119029113D01*
X157657214Y-119019934D01*
X157623777Y-119004663D01*
X157556732Y-118984976D01*
X157494662Y-118976052D01*
X157414315Y-118964500D01*
X143584000Y-118964500D01*
X143583991Y-118964500D01*
X143583990Y-118964501D01*
X143476549Y-118976052D01*
X143476537Y-118976054D01*
X143425027Y-118987260D01*
X143322502Y-119021383D01*
X143322496Y-119021386D01*
X143201462Y-119099171D01*
X143201451Y-119099179D01*
X143148659Y-119144923D01*
X143054433Y-119253664D01*
X143054430Y-119253668D01*
X142994664Y-119384534D01*
X142974976Y-119451582D01*
X142954500Y-119594001D01*
X142954500Y-132033060D01*
X142934815Y-132100099D01*
X142882011Y-132145854D01*
X142812853Y-132155798D01*
X142749297Y-132126773D01*
X142742819Y-132120741D01*
X142712262Y-132090184D01*
X142559523Y-131994211D01*
X142389254Y-131934631D01*
X142389249Y-131934630D01*
X142210004Y-131914435D01*
X142210000Y-131914435D01*
X142197215Y-131915875D01*
X142128393Y-131903817D01*
X142078342Y-131858626D01*
X141991237Y-131720000D01*
X141989816Y-131717738D01*
X141862262Y-131590184D01*
X141709523Y-131494211D01*
X141539254Y-131434631D01*
X141539249Y-131434630D01*
X141360004Y-131414435D01*
X141360001Y-131414435D01*
X141360000Y-131414435D01*
X141300523Y-131421135D01*
X141231702Y-131409080D01*
X141181648Y-131363887D01*
X141089815Y-131217737D01*
X140962262Y-131090184D01*
X140809523Y-130994211D01*
X140639254Y-130934631D01*
X140639249Y-130934630D01*
X140460004Y-130914435D01*
X140459996Y-130914435D01*
X140280750Y-130934630D01*
X140280745Y-130934631D01*
X140110476Y-130994211D01*
X139957737Y-131090184D01*
X139830184Y-131217737D01*
X139734211Y-131370476D01*
X139674631Y-131540745D01*
X139674630Y-131540750D01*
X139654435Y-131719996D01*
X139654435Y-131720003D01*
X139674630Y-131899249D01*
X139674631Y-131899254D01*
X139734211Y-132069523D01*
X139788422Y-132155798D01*
X139830184Y-132222262D01*
X139957738Y-132349816D01*
X140110478Y-132445789D01*
X140280745Y-132505368D01*
X140280750Y-132505369D01*
X140459996Y-132525565D01*
X140460000Y-132525565D01*
X140460002Y-132525565D01*
X140519473Y-132518864D01*
X140588295Y-132530918D01*
X140638350Y-132576111D01*
X140730182Y-132722260D01*
X140730184Y-132722262D01*
X140857738Y-132849816D01*
X141010478Y-132945789D01*
X141180745Y-133005368D01*
X141180750Y-133005369D01*
X141359996Y-133025565D01*
X141360000Y-133025565D01*
X141372778Y-133024125D01*
X141441600Y-133036178D01*
X141491656Y-133081371D01*
X141580184Y-133222262D01*
X141707738Y-133349816D01*
X141860478Y-133445789D01*
X142030745Y-133505368D01*
X142030750Y-133505369D01*
X142209996Y-133525565D01*
X142210000Y-133525565D01*
X142210004Y-133525565D01*
X142389249Y-133505369D01*
X142389252Y-133505368D01*
X142389255Y-133505368D01*
X142559522Y-133445789D01*
X142712262Y-133349816D01*
X142742819Y-133319259D01*
X142804142Y-133285774D01*
X142873834Y-133290758D01*
X142929767Y-133332630D01*
X142954184Y-133398094D01*
X142954500Y-133406940D01*
X142954500Y-146665500D01*
X142934815Y-146732539D01*
X142882011Y-146778294D01*
X142830500Y-146789500D01*
X98194500Y-146789500D01*
X98127461Y-146769815D01*
X98081706Y-146717011D01*
X98070500Y-146665500D01*
X98070500Y-140870014D01*
X100910000Y-140870014D01*
X100910000Y-141470000D01*
X101969252Y-141470000D01*
X101947482Y-141507708D01*
X101910000Y-141647591D01*
X101910000Y-141792409D01*
X101947482Y-141932292D01*
X101969252Y-141970000D01*
X100910000Y-141970000D01*
X100910000Y-142569985D01*
X100920493Y-142672689D01*
X100920494Y-142672696D01*
X100975641Y-142839118D01*
X100975643Y-142839123D01*
X101067684Y-142988344D01*
X101191655Y-143112315D01*
X101340876Y-143204356D01*
X101340881Y-143204358D01*
X101507303Y-143259505D01*
X101507310Y-143259506D01*
X101610014Y-143269999D01*
X101610027Y-143270000D01*
X102210000Y-143270000D01*
X102210000Y-142210747D01*
X102247708Y-142232518D01*
X102387591Y-142270000D01*
X102532409Y-142270000D01*
X102672292Y-142232518D01*
X102710000Y-142210747D01*
X102710000Y-143270000D01*
X103309973Y-143270000D01*
X103309985Y-143269999D01*
X103412689Y-143259506D01*
X103412696Y-143259505D01*
X103579118Y-143204358D01*
X103579123Y-143204356D01*
X103728344Y-143112315D01*
X103852315Y-142988344D01*
X103944356Y-142839123D01*
X103944358Y-142839118D01*
X103999505Y-142672696D01*
X103999506Y-142672689D01*
X104009999Y-142569985D01*
X104010000Y-142569972D01*
X104010000Y-141970000D01*
X102950748Y-141970000D01*
X102972518Y-141932292D01*
X103010000Y-141792409D01*
X103010000Y-141647591D01*
X102972518Y-141507708D01*
X102950748Y-141470000D01*
X104010000Y-141470000D01*
X104010000Y-140870027D01*
X104009999Y-140870014D01*
X103999506Y-140767310D01*
X103999505Y-140767303D01*
X103944358Y-140600881D01*
X103944356Y-140600876D01*
X103852315Y-140451655D01*
X103728344Y-140327684D01*
X103579123Y-140235643D01*
X103579118Y-140235641D01*
X103412696Y-140180494D01*
X103412689Y-140180493D01*
X103309985Y-140170000D01*
X102710000Y-140170000D01*
X102710000Y-141229252D01*
X102672292Y-141207482D01*
X102532409Y-141170000D01*
X102387591Y-141170000D01*
X102247708Y-141207482D01*
X102210000Y-141229252D01*
X102210000Y-140170000D01*
X101610014Y-140170000D01*
X101507310Y-140180493D01*
X101507303Y-140180494D01*
X101340881Y-140235641D01*
X101340876Y-140235643D01*
X101191655Y-140327684D01*
X101067684Y-140451655D01*
X100975643Y-140600876D01*
X100975641Y-140600881D01*
X100920494Y-140767303D01*
X100920493Y-140767310D01*
X100910000Y-140870014D01*
X98070500Y-140870014D01*
X98070500Y-135869984D01*
X100909500Y-135869984D01*
X100909500Y-137570015D01*
X100920000Y-137672795D01*
X100920001Y-137672796D01*
X100975186Y-137839335D01*
X100975187Y-137839337D01*
X101067286Y-137988651D01*
X101067289Y-137988655D01*
X101191344Y-138112710D01*
X101191348Y-138112713D01*
X101340662Y-138204812D01*
X101340664Y-138204813D01*
X101340666Y-138204814D01*
X101507203Y-138259999D01*
X101609992Y-138270500D01*
X101609997Y-138270500D01*
X103310003Y-138270500D01*
X103310008Y-138270500D01*
X103412797Y-138259999D01*
X103579334Y-138204814D01*
X103728655Y-138112711D01*
X103852711Y-137988655D01*
X103944814Y-137839334D01*
X103999999Y-137672797D01*
X104010500Y-137570008D01*
X104010500Y-135869992D01*
X103999999Y-135767203D01*
X103944814Y-135600666D01*
X103852711Y-135451345D01*
X103728655Y-135327289D01*
X103728651Y-135327286D01*
X103579337Y-135235187D01*
X103579335Y-135235186D01*
X103496065Y-135207593D01*
X103412797Y-135180001D01*
X103412795Y-135180000D01*
X103310015Y-135169500D01*
X103310008Y-135169500D01*
X101609992Y-135169500D01*
X101609984Y-135169500D01*
X101507204Y-135180000D01*
X101507203Y-135180001D01*
X101340664Y-135235186D01*
X101340662Y-135235187D01*
X101191348Y-135327286D01*
X101191344Y-135327289D01*
X101067289Y-135451344D01*
X101067286Y-135451348D01*
X100975187Y-135600662D01*
X100975186Y-135600664D01*
X100920001Y-135767203D01*
X100920000Y-135767204D01*
X100909500Y-135869984D01*
X98070500Y-135869984D01*
X98070500Y-126620014D01*
X100910000Y-126620014D01*
X100910000Y-127220000D01*
X101969252Y-127220000D01*
X101947482Y-127257708D01*
X101910000Y-127397591D01*
X101910000Y-127542409D01*
X101947482Y-127682292D01*
X101969252Y-127720000D01*
X100910000Y-127720000D01*
X100910000Y-128319985D01*
X100920493Y-128422689D01*
X100920494Y-128422696D01*
X100975641Y-128589118D01*
X100975643Y-128589123D01*
X101067684Y-128738344D01*
X101191655Y-128862315D01*
X101340876Y-128954356D01*
X101340881Y-128954358D01*
X101507303Y-129009505D01*
X101507310Y-129009506D01*
X101610014Y-129019999D01*
X101610027Y-129020000D01*
X102210000Y-129020000D01*
X102210000Y-127960747D01*
X102247708Y-127982518D01*
X102387591Y-128020000D01*
X102532409Y-128020000D01*
X102672292Y-127982518D01*
X102710000Y-127960747D01*
X102710000Y-129020000D01*
X103309973Y-129020000D01*
X103309985Y-129019999D01*
X103412689Y-129009506D01*
X103412696Y-129009505D01*
X103579118Y-128954358D01*
X103579123Y-128954356D01*
X103728344Y-128862315D01*
X103852315Y-128738344D01*
X103944356Y-128589123D01*
X103944358Y-128589118D01*
X103999505Y-128422696D01*
X103999506Y-128422689D01*
X104009999Y-128319985D01*
X104010000Y-128319972D01*
X104010000Y-127720000D01*
X102950748Y-127720000D01*
X102972518Y-127682292D01*
X103010000Y-127542409D01*
X103010000Y-127397591D01*
X102972518Y-127257708D01*
X102950748Y-127220000D01*
X104010000Y-127220000D01*
X104010000Y-126620027D01*
X104009999Y-126620014D01*
X103999506Y-126517310D01*
X103999505Y-126517303D01*
X103944358Y-126350881D01*
X103944356Y-126350876D01*
X103863628Y-126219996D01*
X138904435Y-126219996D01*
X138904435Y-126220003D01*
X138924630Y-126399249D01*
X138924631Y-126399254D01*
X138984211Y-126569523D01*
X139015937Y-126620014D01*
X139080184Y-126722262D01*
X139207738Y-126849816D01*
X139360478Y-126945789D01*
X139393895Y-126957482D01*
X139530745Y-127005368D01*
X139530750Y-127005369D01*
X139709996Y-127025565D01*
X139710000Y-127025565D01*
X139710004Y-127025565D01*
X139889249Y-127005369D01*
X139889252Y-127005368D01*
X139889255Y-127005368D01*
X140059522Y-126945789D01*
X140212262Y-126849816D01*
X140339816Y-126722262D01*
X140435789Y-126569522D01*
X140495368Y-126399255D01*
X140495369Y-126399249D01*
X140515565Y-126220003D01*
X140515565Y-126219996D01*
X140495369Y-126040750D01*
X140495368Y-126040745D01*
X140476086Y-125985641D01*
X140435789Y-125870478D01*
X140339816Y-125717738D01*
X140212262Y-125590184D01*
X140059523Y-125494211D01*
X139889254Y-125434631D01*
X139889249Y-125434630D01*
X139710004Y-125414435D01*
X139709996Y-125414435D01*
X139530750Y-125434630D01*
X139530745Y-125434631D01*
X139360476Y-125494211D01*
X139207737Y-125590184D01*
X139080184Y-125717737D01*
X138984211Y-125870476D01*
X138924631Y-126040745D01*
X138924630Y-126040750D01*
X138904435Y-126219996D01*
X103863628Y-126219996D01*
X103852315Y-126201655D01*
X103728344Y-126077684D01*
X103579123Y-125985643D01*
X103579118Y-125985641D01*
X103412696Y-125930494D01*
X103412689Y-125930493D01*
X103309985Y-125920000D01*
X102710000Y-125920000D01*
X102710000Y-126979252D01*
X102672292Y-126957482D01*
X102532409Y-126920000D01*
X102387591Y-126920000D01*
X102247708Y-126957482D01*
X102210000Y-126979252D01*
X102210000Y-125920000D01*
X101610014Y-125920000D01*
X101507310Y-125930493D01*
X101507303Y-125930494D01*
X101340881Y-125985641D01*
X101340876Y-125985643D01*
X101191655Y-126077684D01*
X101067684Y-126201655D01*
X100975643Y-126350876D01*
X100975641Y-126350881D01*
X100920494Y-126517303D01*
X100920493Y-126517310D01*
X100910000Y-126620014D01*
X98070500Y-126620014D01*
X98070500Y-124119996D01*
X134054435Y-124119996D01*
X134054435Y-124120003D01*
X134074630Y-124299249D01*
X134074631Y-124299254D01*
X134134211Y-124469523D01*
X134230184Y-124622262D01*
X134357738Y-124749816D01*
X134510478Y-124845789D01*
X134680745Y-124905368D01*
X134680750Y-124905369D01*
X134859996Y-124925565D01*
X134860000Y-124925565D01*
X134860004Y-124925565D01*
X135039249Y-124905369D01*
X135039252Y-124905368D01*
X135039255Y-124905368D01*
X135209522Y-124845789D01*
X135362262Y-124749816D01*
X135489816Y-124622262D01*
X135585789Y-124469522D01*
X135645368Y-124299255D01*
X135665565Y-124120000D01*
X135654354Y-124020500D01*
X135645369Y-123940750D01*
X135645368Y-123940745D01*
X135585788Y-123770476D01*
X135489815Y-123617737D01*
X135362262Y-123490184D01*
X135209523Y-123394211D01*
X135039254Y-123334631D01*
X135039249Y-123334630D01*
X134860004Y-123314435D01*
X134859996Y-123314435D01*
X134680750Y-123334630D01*
X134680745Y-123334631D01*
X134510476Y-123394211D01*
X134357737Y-123490184D01*
X134230184Y-123617737D01*
X134134211Y-123770476D01*
X134074631Y-123940745D01*
X134074630Y-123940750D01*
X134054435Y-124119996D01*
X98070500Y-124119996D01*
X98070500Y-121619984D01*
X100909500Y-121619984D01*
X100909500Y-123320015D01*
X100920000Y-123422795D01*
X100920001Y-123422796D01*
X100975186Y-123589335D01*
X100975187Y-123589337D01*
X101067286Y-123738651D01*
X101067289Y-123738655D01*
X101191344Y-123862710D01*
X101191348Y-123862713D01*
X101340662Y-123954812D01*
X101340664Y-123954813D01*
X101340666Y-123954814D01*
X101507203Y-124009999D01*
X101609992Y-124020500D01*
X101609997Y-124020500D01*
X103310003Y-124020500D01*
X103310008Y-124020500D01*
X103412797Y-124009999D01*
X103579334Y-123954814D01*
X103728655Y-123862711D01*
X103852711Y-123738655D01*
X103944814Y-123589334D01*
X103999999Y-123422797D01*
X104010500Y-123320008D01*
X104010500Y-121619992D01*
X103999999Y-121517203D01*
X103944814Y-121350666D01*
X103852711Y-121201345D01*
X103728655Y-121077289D01*
X103728651Y-121077286D01*
X103579337Y-120985187D01*
X103579335Y-120985186D01*
X103496065Y-120957593D01*
X103412797Y-120930001D01*
X103412795Y-120930000D01*
X103310015Y-120919500D01*
X103310008Y-120919500D01*
X101609992Y-120919500D01*
X101609984Y-120919500D01*
X101507204Y-120930000D01*
X101507203Y-120930001D01*
X101340664Y-120985186D01*
X101340662Y-120985187D01*
X101191348Y-121077286D01*
X101191344Y-121077289D01*
X101067289Y-121201344D01*
X101067286Y-121201348D01*
X100975187Y-121350662D01*
X100975186Y-121350664D01*
X100920001Y-121517203D01*
X100920000Y-121517204D01*
X100909500Y-121619984D01*
X98070500Y-121619984D01*
X98070500Y-119119996D01*
X126554435Y-119119996D01*
X126554435Y-119120003D01*
X126574630Y-119299249D01*
X126574631Y-119299254D01*
X126634211Y-119469523D01*
X126712426Y-119594000D01*
X126730184Y-119622262D01*
X126857738Y-119749816D01*
X127010478Y-119845789D01*
X127180745Y-119905368D01*
X127180750Y-119905369D01*
X127359996Y-119925565D01*
X127360000Y-119925565D01*
X127360004Y-119925565D01*
X127539249Y-119905369D01*
X127539252Y-119905368D01*
X127539255Y-119905368D01*
X127709522Y-119845789D01*
X127862262Y-119749816D01*
X127989816Y-119622262D01*
X128085789Y-119469522D01*
X128145368Y-119299255D01*
X128145369Y-119299249D01*
X128165565Y-119120003D01*
X128165565Y-119119996D01*
X128145369Y-118940750D01*
X128145368Y-118940745D01*
X128085788Y-118770476D01*
X127989815Y-118617737D01*
X127862262Y-118490184D01*
X127709523Y-118394211D01*
X127539254Y-118334631D01*
X127539249Y-118334630D01*
X127360004Y-118314435D01*
X127359996Y-118314435D01*
X127180750Y-118334630D01*
X127180745Y-118334631D01*
X127010476Y-118394211D01*
X126857737Y-118490184D01*
X126730184Y-118617737D01*
X126634211Y-118770476D01*
X126574631Y-118940745D01*
X126574630Y-118940750D01*
X126554435Y-119119996D01*
X98070500Y-119119996D01*
X98070500Y-117469996D01*
X150154435Y-117469996D01*
X150154435Y-117470003D01*
X150174630Y-117649249D01*
X150174631Y-117649254D01*
X150234211Y-117819523D01*
X150330184Y-117972262D01*
X150457738Y-118099816D01*
X150610478Y-118195789D01*
X150780745Y-118255368D01*
X150780750Y-118255369D01*
X150959996Y-118275565D01*
X150960000Y-118275565D01*
X150960004Y-118275565D01*
X151139249Y-118255369D01*
X151139252Y-118255368D01*
X151139255Y-118255368D01*
X151309522Y-118195789D01*
X151462262Y-118099816D01*
X151589816Y-117972262D01*
X151685789Y-117819522D01*
X151745368Y-117649255D01*
X151765565Y-117470000D01*
X151745368Y-117290745D01*
X151685789Y-117120478D01*
X151589816Y-116967738D01*
X151462262Y-116840184D01*
X151461468Y-116839685D01*
X151309523Y-116744211D01*
X151139254Y-116684631D01*
X151139249Y-116684630D01*
X150960004Y-116664435D01*
X150959996Y-116664435D01*
X150780750Y-116684630D01*
X150780745Y-116684631D01*
X150610476Y-116744211D01*
X150457737Y-116840184D01*
X150330184Y-116967737D01*
X150234211Y-117120476D01*
X150174631Y-117290745D01*
X150174630Y-117290750D01*
X150154435Y-117469996D01*
X98070500Y-117469996D01*
X98070500Y-108819996D01*
X108954435Y-108819996D01*
X108954435Y-108820003D01*
X108974630Y-108999249D01*
X108974631Y-108999254D01*
X109034211Y-109169523D01*
X109102447Y-109278119D01*
X109130184Y-109322262D01*
X109257738Y-109449816D01*
X109410478Y-109545789D01*
X109580745Y-109605368D01*
X109580750Y-109605369D01*
X109759996Y-109625565D01*
X109760000Y-109625565D01*
X109760004Y-109625565D01*
X109939249Y-109605369D01*
X109939252Y-109605368D01*
X109939255Y-109605368D01*
X110109522Y-109545789D01*
X110262262Y-109449816D01*
X110389816Y-109322262D01*
X110485789Y-109169522D01*
X110545368Y-108999255D01*
X110547380Y-108981401D01*
X110565565Y-108820003D01*
X110565565Y-108819996D01*
X110545369Y-108640750D01*
X110545368Y-108640745D01*
X110532875Y-108605042D01*
X110485789Y-108470478D01*
X110389816Y-108317738D01*
X110262262Y-108190184D01*
X110109523Y-108094211D01*
X109939254Y-108034631D01*
X109939249Y-108034630D01*
X109760004Y-108014435D01*
X109759996Y-108014435D01*
X109580750Y-108034630D01*
X109580745Y-108034631D01*
X109410476Y-108094211D01*
X109257737Y-108190184D01*
X109130184Y-108317737D01*
X109034211Y-108470476D01*
X108974631Y-108640745D01*
X108974630Y-108640750D01*
X108954435Y-108819996D01*
X98070500Y-108819996D01*
X98070500Y-103319996D01*
X108654435Y-103319996D01*
X108654435Y-103320003D01*
X108674630Y-103499249D01*
X108674631Y-103499254D01*
X108734211Y-103669523D01*
X108758284Y-103707834D01*
X108830184Y-103822262D01*
X108957738Y-103949816D01*
X109110478Y-104045789D01*
X109175377Y-104068498D01*
X109280745Y-104105368D01*
X109280750Y-104105369D01*
X109459996Y-104125565D01*
X109460000Y-104125565D01*
X109460004Y-104125565D01*
X109639249Y-104105369D01*
X109639252Y-104105368D01*
X109639255Y-104105368D01*
X109809522Y-104045789D01*
X109962262Y-103949816D01*
X110089816Y-103822262D01*
X110185789Y-103669522D01*
X110245368Y-103499255D01*
X110261569Y-103355468D01*
X110265565Y-103320003D01*
X110265565Y-103319996D01*
X110245369Y-103140750D01*
X110245368Y-103140745D01*
X110213631Y-103050045D01*
X110185789Y-102970478D01*
X110089816Y-102817738D01*
X109962262Y-102690184D01*
X109809523Y-102594211D01*
X109639254Y-102534631D01*
X109639249Y-102534630D01*
X109460004Y-102514435D01*
X109459996Y-102514435D01*
X109280750Y-102534630D01*
X109280745Y-102534631D01*
X109110476Y-102594211D01*
X108957737Y-102690184D01*
X108830184Y-102817737D01*
X108734211Y-102970476D01*
X108674631Y-103140745D01*
X108674630Y-103140750D01*
X108654435Y-103319996D01*
X98070500Y-103319996D01*
X98070500Y-90120014D01*
X100410000Y-90120014D01*
X100410000Y-90720000D01*
X101469252Y-90720000D01*
X101447482Y-90757708D01*
X101410000Y-90897591D01*
X101410000Y-91042409D01*
X101447482Y-91182292D01*
X101469252Y-91220000D01*
X100410000Y-91220000D01*
X100410000Y-91819985D01*
X100420493Y-91922689D01*
X100420494Y-91922696D01*
X100475641Y-92089118D01*
X100475643Y-92089123D01*
X100567684Y-92238344D01*
X100691655Y-92362315D01*
X100840876Y-92454356D01*
X100840881Y-92454358D01*
X101007303Y-92509505D01*
X101007310Y-92509506D01*
X101110014Y-92519999D01*
X101110027Y-92520000D01*
X101710000Y-92520000D01*
X101710000Y-91460747D01*
X101747708Y-91482518D01*
X101887591Y-91520000D01*
X102032409Y-91520000D01*
X102172292Y-91482518D01*
X102210000Y-91460747D01*
X102210000Y-92520000D01*
X102809973Y-92520000D01*
X102809985Y-92519999D01*
X102912689Y-92509506D01*
X102912696Y-92509505D01*
X103079118Y-92454358D01*
X103079123Y-92454356D01*
X103228344Y-92362315D01*
X103352315Y-92238344D01*
X103444356Y-92089123D01*
X103444358Y-92089118D01*
X103499505Y-91922696D01*
X103499506Y-91922689D01*
X103509999Y-91819985D01*
X103510000Y-91819972D01*
X103510000Y-91220000D01*
X102450748Y-91220000D01*
X102472518Y-91182292D01*
X102510000Y-91042409D01*
X102510000Y-90897591D01*
X102472518Y-90757708D01*
X102450748Y-90720000D01*
X103510000Y-90720000D01*
X103510000Y-90120027D01*
X103509999Y-90120014D01*
X103499506Y-90017310D01*
X103499505Y-90017303D01*
X103444358Y-89850881D01*
X103444356Y-89850876D01*
X103352315Y-89701655D01*
X103228344Y-89577684D01*
X103079123Y-89485643D01*
X103079118Y-89485641D01*
X102912696Y-89430494D01*
X102912689Y-89430493D01*
X102809985Y-89420000D01*
X102210000Y-89420000D01*
X102210000Y-90479252D01*
X102172292Y-90457482D01*
X102032409Y-90420000D01*
X101887591Y-90420000D01*
X101747708Y-90457482D01*
X101710000Y-90479252D01*
X101710000Y-89420000D01*
X101110014Y-89420000D01*
X101007310Y-89430493D01*
X101007303Y-89430494D01*
X100840881Y-89485641D01*
X100840876Y-89485643D01*
X100691655Y-89577684D01*
X100567684Y-89701655D01*
X100475643Y-89850876D01*
X100475641Y-89850881D01*
X100420494Y-90017303D01*
X100420493Y-90017310D01*
X100410000Y-90120014D01*
X98070500Y-90120014D01*
X98070500Y-85019984D01*
X100409500Y-85019984D01*
X100409500Y-86720015D01*
X100420000Y-86822795D01*
X100420001Y-86822796D01*
X100475186Y-86989335D01*
X100475187Y-86989337D01*
X100567286Y-87138651D01*
X100567289Y-87138655D01*
X100691344Y-87262710D01*
X100691348Y-87262713D01*
X100840662Y-87354812D01*
X100840664Y-87354813D01*
X100840666Y-87354814D01*
X101007203Y-87409999D01*
X101109992Y-87420500D01*
X101109997Y-87420500D01*
X102810003Y-87420500D01*
X102810008Y-87420500D01*
X102912797Y-87409999D01*
X103079334Y-87354814D01*
X103228655Y-87262711D01*
X103352711Y-87138655D01*
X103444814Y-86989334D01*
X103499999Y-86822797D01*
X103510500Y-86720008D01*
X103510500Y-85019992D01*
X103499999Y-84917203D01*
X103444814Y-84750666D01*
X103433620Y-84732518D01*
X103352713Y-84601348D01*
X103352710Y-84601344D01*
X103228655Y-84477289D01*
X103228651Y-84477286D01*
X103079337Y-84385187D01*
X103079335Y-84385186D01*
X102996065Y-84357593D01*
X102912797Y-84330001D01*
X102912795Y-84330000D01*
X102810015Y-84319500D01*
X102810008Y-84319500D01*
X101109992Y-84319500D01*
X101109984Y-84319500D01*
X101007204Y-84330000D01*
X101007203Y-84330001D01*
X100840664Y-84385186D01*
X100840662Y-84385187D01*
X100691348Y-84477286D01*
X100691344Y-84477289D01*
X100567289Y-84601344D01*
X100567286Y-84601348D01*
X100475187Y-84750662D01*
X100475186Y-84750664D01*
X100420001Y-84917203D01*
X100420000Y-84917204D01*
X100409500Y-85019984D01*
X98070500Y-85019984D01*
X98070500Y-82709999D01*
X112424341Y-82709999D01*
X112424341Y-82710000D01*
X112444936Y-82945403D01*
X112444938Y-82945413D01*
X112506094Y-83173655D01*
X112506096Y-83173659D01*
X112506097Y-83173663D01*
X112560432Y-83290184D01*
X112605965Y-83387830D01*
X112605967Y-83387834D01*
X112741501Y-83581395D01*
X112741506Y-83581402D01*
X112908597Y-83748493D01*
X112908603Y-83748498D01*
X113094158Y-83878425D01*
X113137783Y-83933002D01*
X113144977Y-84002500D01*
X113113454Y-84064855D01*
X113094158Y-84081575D01*
X112908597Y-84211505D01*
X112741505Y-84378597D01*
X112605965Y-84572169D01*
X112605964Y-84572171D01*
X112506098Y-84786335D01*
X112506094Y-84786344D01*
X112444938Y-85014586D01*
X112444936Y-85014596D01*
X112424341Y-85249999D01*
X112424341Y-85250000D01*
X112444936Y-85485403D01*
X112444938Y-85485413D01*
X112506094Y-85713655D01*
X112506096Y-85713659D01*
X112506097Y-85713663D01*
X112605965Y-85927830D01*
X112605967Y-85927834D01*
X112741501Y-86121395D01*
X112741506Y-86121402D01*
X112908597Y-86288493D01*
X112908603Y-86288498D01*
X113094158Y-86418425D01*
X113137783Y-86473002D01*
X113144977Y-86542500D01*
X113113454Y-86604855D01*
X113094158Y-86621575D01*
X112908597Y-86751505D01*
X112741505Y-86918597D01*
X112605965Y-87112169D01*
X112605964Y-87112171D01*
X112506098Y-87326335D01*
X112506094Y-87326344D01*
X112444938Y-87554586D01*
X112444936Y-87554596D01*
X112424341Y-87789999D01*
X112424341Y-87790000D01*
X112444936Y-88025403D01*
X112444938Y-88025413D01*
X112506094Y-88253655D01*
X112506096Y-88253659D01*
X112506097Y-88253663D01*
X112598277Y-88451344D01*
X112605965Y-88467830D01*
X112605967Y-88467834D01*
X112741501Y-88661395D01*
X112741506Y-88661402D01*
X112908597Y-88828493D01*
X112908603Y-88828498D01*
X113094158Y-88958425D01*
X113137783Y-89013002D01*
X113144977Y-89082500D01*
X113113454Y-89144855D01*
X113094158Y-89161575D01*
X112908597Y-89291505D01*
X112741505Y-89458597D01*
X112605965Y-89652169D01*
X112605964Y-89652171D01*
X112506098Y-89866335D01*
X112506094Y-89866344D01*
X112444938Y-90094586D01*
X112444936Y-90094596D01*
X112424341Y-90329999D01*
X112424341Y-90330000D01*
X112444936Y-90565403D01*
X112444938Y-90565413D01*
X112506094Y-90793655D01*
X112506096Y-90793659D01*
X112506097Y-90793663D01*
X112554560Y-90897591D01*
X112605965Y-91007830D01*
X112605967Y-91007834D01*
X112741501Y-91201395D01*
X112741506Y-91201402D01*
X112908597Y-91368493D01*
X112908603Y-91368498D01*
X113094158Y-91498425D01*
X113137783Y-91553002D01*
X113144977Y-91622500D01*
X113113454Y-91684855D01*
X113094158Y-91701575D01*
X112908597Y-91831505D01*
X112741505Y-91998597D01*
X112605965Y-92192169D01*
X112605964Y-92192171D01*
X112506098Y-92406335D01*
X112506094Y-92406344D01*
X112444938Y-92634586D01*
X112444936Y-92634596D01*
X112424341Y-92869999D01*
X112424341Y-92870000D01*
X112444936Y-93105403D01*
X112444938Y-93105413D01*
X112506094Y-93333655D01*
X112506096Y-93333659D01*
X112506097Y-93333663D01*
X112605847Y-93547578D01*
X112605965Y-93547830D01*
X112605967Y-93547834D01*
X112741501Y-93741395D01*
X112741506Y-93741402D01*
X112908597Y-93908493D01*
X112908603Y-93908498D01*
X113094158Y-94038425D01*
X113137783Y-94093002D01*
X113144977Y-94162500D01*
X113113454Y-94224855D01*
X113094158Y-94241575D01*
X112908597Y-94371505D01*
X112741505Y-94538597D01*
X112605965Y-94732169D01*
X112605964Y-94732171D01*
X112506098Y-94946335D01*
X112506094Y-94946344D01*
X112444938Y-95174586D01*
X112444936Y-95174596D01*
X112424341Y-95409999D01*
X112424341Y-95410000D01*
X112444936Y-95645403D01*
X112444938Y-95645413D01*
X112506094Y-95873655D01*
X112506096Y-95873659D01*
X112506097Y-95873663D01*
X112605847Y-96087578D01*
X112605965Y-96087830D01*
X112605967Y-96087834D01*
X112741501Y-96281395D01*
X112741506Y-96281402D01*
X112908597Y-96448493D01*
X112908603Y-96448498D01*
X113094158Y-96578425D01*
X113137783Y-96633002D01*
X113144977Y-96702500D01*
X113113454Y-96764855D01*
X113094158Y-96781575D01*
X112908597Y-96911505D01*
X112741505Y-97078597D01*
X112605965Y-97272169D01*
X112605964Y-97272171D01*
X112506098Y-97486335D01*
X112506094Y-97486344D01*
X112444938Y-97714586D01*
X112444936Y-97714596D01*
X112424341Y-97949999D01*
X112424341Y-97950000D01*
X112444936Y-98185403D01*
X112444938Y-98185413D01*
X112506094Y-98413655D01*
X112506096Y-98413659D01*
X112506097Y-98413663D01*
X112605965Y-98627830D01*
X112605967Y-98627834D01*
X112741501Y-98821395D01*
X112741506Y-98821402D01*
X112908597Y-98988493D01*
X112908603Y-98988498D01*
X113094158Y-99118425D01*
X113137783Y-99173002D01*
X113144977Y-99242500D01*
X113113454Y-99304855D01*
X113094158Y-99321575D01*
X112908597Y-99451505D01*
X112741505Y-99618597D01*
X112605965Y-99812169D01*
X112605964Y-99812171D01*
X112506098Y-100026335D01*
X112506094Y-100026344D01*
X112444938Y-100254586D01*
X112444936Y-100254596D01*
X112424341Y-100489999D01*
X112424341Y-100490000D01*
X112444936Y-100725403D01*
X112444938Y-100725413D01*
X112506094Y-100953655D01*
X112506096Y-100953659D01*
X112506097Y-100953663D01*
X112596017Y-101146496D01*
X112605965Y-101167830D01*
X112605967Y-101167834D01*
X112741501Y-101361395D01*
X112741506Y-101361402D01*
X112908597Y-101528493D01*
X112908603Y-101528498D01*
X113094158Y-101658425D01*
X113137783Y-101713002D01*
X113144977Y-101782500D01*
X113113454Y-101844855D01*
X113094158Y-101861575D01*
X112908597Y-101991505D01*
X112741505Y-102158597D01*
X112605965Y-102352169D01*
X112605964Y-102352171D01*
X112506098Y-102566335D01*
X112506094Y-102566344D01*
X112444938Y-102794586D01*
X112444936Y-102794596D01*
X112424341Y-103029999D01*
X112424341Y-103030000D01*
X112444936Y-103265403D01*
X112444938Y-103265413D01*
X112506094Y-103493655D01*
X112506096Y-103493659D01*
X112506097Y-103493663D01*
X112508705Y-103499255D01*
X112605965Y-103707830D01*
X112605967Y-103707834D01*
X112741501Y-103901395D01*
X112741506Y-103901402D01*
X112908597Y-104068493D01*
X112908603Y-104068498D01*
X113094158Y-104198425D01*
X113137783Y-104253002D01*
X113144977Y-104322500D01*
X113113454Y-104384855D01*
X113094158Y-104401575D01*
X112908597Y-104531505D01*
X112741505Y-104698597D01*
X112605965Y-104892169D01*
X112605964Y-104892171D01*
X112506098Y-105106335D01*
X112506094Y-105106344D01*
X112444938Y-105334586D01*
X112444936Y-105334596D01*
X112424341Y-105569999D01*
X112424341Y-105570000D01*
X112444936Y-105805403D01*
X112444938Y-105805413D01*
X112506094Y-106033655D01*
X112506096Y-106033659D01*
X112506097Y-106033663D01*
X112605965Y-106247830D01*
X112605967Y-106247834D01*
X112741501Y-106441395D01*
X112741506Y-106441402D01*
X112908597Y-106608493D01*
X112908603Y-106608498D01*
X113094594Y-106738730D01*
X113138219Y-106793307D01*
X113145413Y-106862805D01*
X113113890Y-106925160D01*
X113094595Y-106941880D01*
X112908922Y-107071890D01*
X112908920Y-107071891D01*
X112741891Y-107238920D01*
X112741886Y-107238926D01*
X112606400Y-107432420D01*
X112606399Y-107432422D01*
X112506570Y-107646507D01*
X112506567Y-107646513D01*
X112449364Y-107859999D01*
X112449364Y-107860000D01*
X113346988Y-107860000D01*
X113314075Y-107917007D01*
X113280000Y-108044174D01*
X113280000Y-108175826D01*
X113314075Y-108302993D01*
X113346988Y-108360000D01*
X112449364Y-108360000D01*
X112506567Y-108573486D01*
X112506570Y-108573492D01*
X112606399Y-108787578D01*
X112741894Y-108981082D01*
X112908917Y-109148105D01*
X113094595Y-109278119D01*
X113138219Y-109332696D01*
X113145412Y-109402195D01*
X113113890Y-109464549D01*
X113094595Y-109481269D01*
X112908594Y-109611508D01*
X112741505Y-109778597D01*
X112605965Y-109972169D01*
X112605964Y-109972171D01*
X112506098Y-110186335D01*
X112506094Y-110186344D01*
X112444938Y-110414586D01*
X112444936Y-110414596D01*
X112424341Y-110649999D01*
X112424341Y-110650000D01*
X112444936Y-110885403D01*
X112444938Y-110885413D01*
X112506094Y-111113655D01*
X112506096Y-111113659D01*
X112506097Y-111113663D01*
X112524096Y-111152262D01*
X112605965Y-111327830D01*
X112605967Y-111327834D01*
X112741501Y-111521395D01*
X112741506Y-111521402D01*
X112908597Y-111688493D01*
X112908603Y-111688498D01*
X113094158Y-111818425D01*
X113137783Y-111873002D01*
X113144977Y-111942500D01*
X113113454Y-112004855D01*
X113094158Y-112021575D01*
X112908597Y-112151505D01*
X112741505Y-112318597D01*
X112605965Y-112512169D01*
X112605964Y-112512171D01*
X112506098Y-112726335D01*
X112506094Y-112726344D01*
X112444938Y-112954586D01*
X112444936Y-112954596D01*
X112424341Y-113189999D01*
X112424341Y-113190000D01*
X112444936Y-113425403D01*
X112444938Y-113425413D01*
X112506094Y-113653655D01*
X112506096Y-113653659D01*
X112506097Y-113653663D01*
X112605965Y-113867830D01*
X112605967Y-113867834D01*
X112741501Y-114061395D01*
X112741506Y-114061402D01*
X112908597Y-114228493D01*
X112908603Y-114228498D01*
X113094158Y-114358425D01*
X113137783Y-114413002D01*
X113144977Y-114482500D01*
X113113454Y-114544855D01*
X113094158Y-114561575D01*
X112908597Y-114691505D01*
X112741505Y-114858597D01*
X112605965Y-115052169D01*
X112605964Y-115052171D01*
X112506098Y-115266335D01*
X112506094Y-115266344D01*
X112444938Y-115494586D01*
X112444936Y-115494596D01*
X112424341Y-115729999D01*
X112424341Y-115730000D01*
X112444936Y-115965403D01*
X112444938Y-115965413D01*
X112506094Y-116193655D01*
X112506096Y-116193659D01*
X112506097Y-116193663D01*
X112605965Y-116407830D01*
X112605967Y-116407834D01*
X112635888Y-116450565D01*
X112741505Y-116601401D01*
X112908599Y-116768495D01*
X112982156Y-116820000D01*
X113102165Y-116904032D01*
X113102167Y-116904033D01*
X113102170Y-116904035D01*
X113316337Y-117003903D01*
X113544592Y-117065063D01*
X113732918Y-117081539D01*
X113779999Y-117085659D01*
X113780000Y-117085659D01*
X113780001Y-117085659D01*
X113819234Y-117082226D01*
X114015408Y-117065063D01*
X114243663Y-117003903D01*
X114457830Y-116904035D01*
X114651401Y-116768495D01*
X114663577Y-116756319D01*
X114724900Y-116722834D01*
X114751258Y-116720000D01*
X115348742Y-116720000D01*
X115415781Y-116739685D01*
X115436423Y-116756319D01*
X115448599Y-116768495D01*
X115522156Y-116820000D01*
X115642165Y-116904032D01*
X115642167Y-116904033D01*
X115642170Y-116904035D01*
X115856337Y-117003903D01*
X116084592Y-117065063D01*
X116272918Y-117081539D01*
X116319999Y-117085659D01*
X116320000Y-117085659D01*
X116320001Y-117085659D01*
X116359234Y-117082226D01*
X116555408Y-117065063D01*
X116783663Y-117003903D01*
X116997830Y-116904035D01*
X117191401Y-116768495D01*
X117358495Y-116601401D01*
X117494035Y-116407830D01*
X117593903Y-116193663D01*
X117655063Y-115965408D01*
X117675659Y-115730000D01*
X117668222Y-115644996D01*
X152979435Y-115644996D01*
X152979435Y-115645003D01*
X152999630Y-115824249D01*
X152999631Y-115824254D01*
X153059211Y-115994523D01*
X153155184Y-116147262D01*
X153282738Y-116274816D01*
X153435478Y-116370789D01*
X153541335Y-116407830D01*
X153605745Y-116430368D01*
X153605750Y-116430369D01*
X153784996Y-116450565D01*
X153785000Y-116450565D01*
X153785004Y-116450565D01*
X153964249Y-116430369D01*
X153964252Y-116430368D01*
X153964255Y-116430368D01*
X154134522Y-116370789D01*
X154287262Y-116274816D01*
X154414816Y-116147262D01*
X154510789Y-115994522D01*
X154570368Y-115824255D01*
X154590565Y-115645000D01*
X154573618Y-115494592D01*
X154570369Y-115465750D01*
X154570368Y-115465745D01*
X154510788Y-115295476D01*
X154414815Y-115142737D01*
X154287262Y-115015184D01*
X154134523Y-114919211D01*
X153964254Y-114859631D01*
X153964249Y-114859630D01*
X153785004Y-114839435D01*
X153784996Y-114839435D01*
X153605750Y-114859630D01*
X153605745Y-114859631D01*
X153435476Y-114919211D01*
X153282737Y-115015184D01*
X153155184Y-115142737D01*
X153059211Y-115295476D01*
X152999631Y-115465745D01*
X152999630Y-115465750D01*
X152979435Y-115644996D01*
X117668222Y-115644996D01*
X117655063Y-115494592D01*
X117593903Y-115266337D01*
X117494035Y-115052171D01*
X117359219Y-114859632D01*
X117358494Y-114858597D01*
X117191402Y-114691506D01*
X117191396Y-114691501D01*
X117005842Y-114561575D01*
X116962217Y-114506998D01*
X116955023Y-114437500D01*
X116986546Y-114375145D01*
X117005842Y-114358425D01*
X117028026Y-114342891D01*
X117191401Y-114228495D01*
X117358495Y-114061401D01*
X117494035Y-113867830D01*
X117593903Y-113653663D01*
X117655063Y-113425408D01*
X117675659Y-113190000D01*
X117655063Y-112954592D01*
X117593903Y-112726337D01*
X117494035Y-112512171D01*
X117358495Y-112318599D01*
X117358494Y-112318597D01*
X117191402Y-112151506D01*
X117191396Y-112151501D01*
X117005842Y-112021575D01*
X116962217Y-111966998D01*
X116955023Y-111897500D01*
X116986546Y-111835145D01*
X117005842Y-111818425D01*
X117028026Y-111802891D01*
X117191401Y-111688495D01*
X117358495Y-111521401D01*
X117494035Y-111327830D01*
X117593903Y-111113663D01*
X117655063Y-110885408D01*
X117675659Y-110650000D01*
X117675659Y-110649996D01*
X152884435Y-110649996D01*
X152884435Y-110650003D01*
X152904630Y-110829249D01*
X152904631Y-110829254D01*
X152964211Y-110999523D01*
X153035931Y-111113664D01*
X153060184Y-111152262D01*
X153187738Y-111279816D01*
X153340478Y-111375789D01*
X153510745Y-111435368D01*
X153510750Y-111435369D01*
X153689996Y-111455565D01*
X153690000Y-111455565D01*
X153690004Y-111455565D01*
X153869249Y-111435369D01*
X153869252Y-111435368D01*
X153869255Y-111435368D01*
X154039522Y-111375789D01*
X154192262Y-111279816D01*
X154319816Y-111152262D01*
X154415789Y-110999522D01*
X154475368Y-110829255D01*
X154495565Y-110650000D01*
X154475368Y-110470745D01*
X154415789Y-110300478D01*
X154319816Y-110147738D01*
X154192262Y-110020184D01*
X154115847Y-109972169D01*
X154039523Y-109924211D01*
X153869254Y-109864631D01*
X153869249Y-109864630D01*
X153690004Y-109844435D01*
X153689996Y-109844435D01*
X153510750Y-109864630D01*
X153510745Y-109864631D01*
X153340476Y-109924211D01*
X153187737Y-110020184D01*
X153060184Y-110147737D01*
X152964211Y-110300476D01*
X152904631Y-110470745D01*
X152904630Y-110470750D01*
X152884435Y-110649996D01*
X117675659Y-110649996D01*
X117655063Y-110414592D01*
X117593903Y-110186337D01*
X117494035Y-109972171D01*
X117460454Y-109924211D01*
X117358494Y-109778597D01*
X117191402Y-109611506D01*
X117191396Y-109611501D01*
X117005842Y-109481575D01*
X116962217Y-109426998D01*
X116955023Y-109357500D01*
X116986546Y-109295145D01*
X117005842Y-109278425D01*
X117028026Y-109262891D01*
X117191401Y-109148495D01*
X117358495Y-108981401D01*
X117494035Y-108787830D01*
X117593903Y-108573663D01*
X117655063Y-108345408D01*
X117657286Y-108319998D01*
X121104532Y-108319998D01*
X121104532Y-108320001D01*
X121124364Y-108546686D01*
X121124366Y-108546697D01*
X121183258Y-108766488D01*
X121183261Y-108766497D01*
X121279431Y-108972732D01*
X121279432Y-108972734D01*
X121409954Y-109159141D01*
X121570858Y-109320045D01*
X121570861Y-109320047D01*
X121757266Y-109450568D01*
X121963504Y-109546739D01*
X122183308Y-109605635D01*
X122345230Y-109619801D01*
X122409998Y-109625468D01*
X122410000Y-109625468D01*
X122410002Y-109625468D01*
X122466673Y-109620509D01*
X122636692Y-109605635D01*
X122856496Y-109546739D01*
X123062734Y-109450568D01*
X123249139Y-109320047D01*
X123410047Y-109159139D01*
X123540568Y-108972734D01*
X123567618Y-108914724D01*
X123613790Y-108862285D01*
X123680983Y-108843133D01*
X123747865Y-108863348D01*
X123792382Y-108914725D01*
X123819429Y-108972728D01*
X123819432Y-108972734D01*
X123949954Y-109159141D01*
X124110858Y-109320045D01*
X124110861Y-109320047D01*
X124297266Y-109450568D01*
X124503504Y-109546739D01*
X124723308Y-109605635D01*
X124885230Y-109619801D01*
X124949998Y-109625468D01*
X124950000Y-109625468D01*
X124950002Y-109625468D01*
X125006673Y-109620509D01*
X125176692Y-109605635D01*
X125396496Y-109546739D01*
X125602734Y-109450568D01*
X125789139Y-109320047D01*
X125950047Y-109159139D01*
X126080568Y-108972734D01*
X126107618Y-108914724D01*
X126153790Y-108862285D01*
X126220983Y-108843133D01*
X126287865Y-108863348D01*
X126332382Y-108914725D01*
X126359429Y-108972728D01*
X126359432Y-108972734D01*
X126489954Y-109159141D01*
X126650858Y-109320045D01*
X126650861Y-109320047D01*
X126837266Y-109450568D01*
X127043504Y-109546739D01*
X127263308Y-109605635D01*
X127425230Y-109619801D01*
X127489998Y-109625468D01*
X127490000Y-109625468D01*
X127490002Y-109625468D01*
X127546673Y-109620509D01*
X127716692Y-109605635D01*
X127936496Y-109546739D01*
X128142734Y-109450568D01*
X128329139Y-109320047D01*
X128490047Y-109159139D01*
X128620568Y-108972734D01*
X128647618Y-108914724D01*
X128693790Y-108862285D01*
X128760983Y-108843133D01*
X128827865Y-108863348D01*
X128872382Y-108914725D01*
X128899429Y-108972728D01*
X128899432Y-108972734D01*
X129029954Y-109159141D01*
X129190858Y-109320045D01*
X129190861Y-109320047D01*
X129377266Y-109450568D01*
X129583504Y-109546739D01*
X129803308Y-109605635D01*
X129965230Y-109619801D01*
X130029998Y-109625468D01*
X130030000Y-109625468D01*
X130030002Y-109625468D01*
X130086673Y-109620509D01*
X130256692Y-109605635D01*
X130476496Y-109546739D01*
X130682734Y-109450568D01*
X130869139Y-109320047D01*
X131030047Y-109159139D01*
X131160568Y-108972734D01*
X131256739Y-108766496D01*
X131315635Y-108546692D01*
X131335468Y-108320000D01*
X131332843Y-108290001D01*
X131332843Y-108289998D01*
X133834532Y-108289998D01*
X133834532Y-108290001D01*
X133854364Y-108516686D01*
X133854366Y-108516697D01*
X133913258Y-108736488D01*
X133913261Y-108736497D01*
X134009431Y-108942732D01*
X134009432Y-108942734D01*
X134139954Y-109129141D01*
X134300858Y-109290045D01*
X134308142Y-109295145D01*
X134487266Y-109420568D01*
X134693504Y-109516739D01*
X134913308Y-109575635D01*
X135075230Y-109589801D01*
X135139998Y-109595468D01*
X135140000Y-109595468D01*
X135140002Y-109595468D01*
X135196673Y-109590509D01*
X135366692Y-109575635D01*
X135586496Y-109516739D01*
X135792734Y-109420568D01*
X135979139Y-109290047D01*
X136140047Y-109129139D01*
X136270568Y-108942734D01*
X136297618Y-108884724D01*
X136343790Y-108832285D01*
X136410983Y-108813133D01*
X136477865Y-108833348D01*
X136522382Y-108884725D01*
X136549429Y-108942728D01*
X136549432Y-108942734D01*
X136679954Y-109129141D01*
X136840858Y-109290045D01*
X136848142Y-109295145D01*
X137027266Y-109420568D01*
X137233504Y-109516739D01*
X137453308Y-109575635D01*
X137615230Y-109589801D01*
X137679998Y-109595468D01*
X137680000Y-109595468D01*
X137680002Y-109595468D01*
X137736673Y-109590509D01*
X137906692Y-109575635D01*
X138126496Y-109516739D01*
X138332734Y-109420568D01*
X138519139Y-109290047D01*
X138680047Y-109129139D01*
X138810568Y-108942734D01*
X138837618Y-108884724D01*
X138883790Y-108832285D01*
X138950983Y-108813133D01*
X139017865Y-108833348D01*
X139062382Y-108884725D01*
X139089429Y-108942728D01*
X139089432Y-108942734D01*
X139219954Y-109129141D01*
X139380858Y-109290045D01*
X139388142Y-109295145D01*
X139567266Y-109420568D01*
X139773504Y-109516739D01*
X139993308Y-109575635D01*
X140155230Y-109589801D01*
X140219998Y-109595468D01*
X140220000Y-109595468D01*
X140220002Y-109595468D01*
X140276673Y-109590509D01*
X140446692Y-109575635D01*
X140666496Y-109516739D01*
X140872734Y-109420568D01*
X141059139Y-109290047D01*
X141220047Y-109129139D01*
X141350568Y-108942734D01*
X141377618Y-108884724D01*
X141423790Y-108832285D01*
X141490983Y-108813133D01*
X141557865Y-108833348D01*
X141602382Y-108884725D01*
X141629429Y-108942728D01*
X141629432Y-108942734D01*
X141759954Y-109129141D01*
X141920858Y-109290045D01*
X141928142Y-109295145D01*
X142107266Y-109420568D01*
X142313504Y-109516739D01*
X142533308Y-109575635D01*
X142695230Y-109589801D01*
X142759998Y-109595468D01*
X142760000Y-109595468D01*
X142760002Y-109595468D01*
X142816673Y-109590509D01*
X142986692Y-109575635D01*
X143206496Y-109516739D01*
X143412734Y-109420568D01*
X143599139Y-109290047D01*
X143760047Y-109129139D01*
X143890568Y-108942734D01*
X143986739Y-108736496D01*
X144045635Y-108516692D01*
X144065468Y-108290000D01*
X144045635Y-108063308D01*
X143986739Y-107843504D01*
X143890568Y-107637266D01*
X143760047Y-107450861D01*
X143760045Y-107450858D01*
X143599141Y-107289954D01*
X143412734Y-107159432D01*
X143412732Y-107159431D01*
X143349613Y-107129998D01*
X150594532Y-107129998D01*
X150594532Y-107130001D01*
X150614364Y-107356686D01*
X150614366Y-107356697D01*
X150673258Y-107576488D01*
X150673261Y-107576497D01*
X150769431Y-107782732D01*
X150769432Y-107782734D01*
X150899954Y-107969141D01*
X151060858Y-108130045D01*
X151060861Y-108130047D01*
X151247266Y-108260568D01*
X151453504Y-108356739D01*
X151673308Y-108415635D01*
X151835230Y-108429801D01*
X151899998Y-108435468D01*
X151900000Y-108435468D01*
X151900002Y-108435468D01*
X151956673Y-108430509D01*
X152126692Y-108415635D01*
X152346496Y-108356739D01*
X152552734Y-108260568D01*
X152739139Y-108130047D01*
X152900047Y-107969139D01*
X153030568Y-107782734D01*
X153126739Y-107576496D01*
X153185635Y-107356692D01*
X153205468Y-107130000D01*
X153202253Y-107093258D01*
X153192741Y-106984532D01*
X153185635Y-106903308D01*
X153126739Y-106683504D01*
X153030568Y-106477266D01*
X152900047Y-106290861D01*
X152900045Y-106290858D01*
X152739141Y-106129954D01*
X152552734Y-105999432D01*
X152552732Y-105999431D01*
X152346497Y-105903261D01*
X152346488Y-105903258D01*
X152126697Y-105844366D01*
X152126693Y-105844365D01*
X152126692Y-105844365D01*
X152126691Y-105844364D01*
X152126686Y-105844364D01*
X151900002Y-105824532D01*
X151899998Y-105824532D01*
X151673313Y-105844364D01*
X151673302Y-105844366D01*
X151453511Y-105903258D01*
X151453502Y-105903261D01*
X151247267Y-105999431D01*
X151247265Y-105999432D01*
X151060858Y-106129954D01*
X150899954Y-106290858D01*
X150769432Y-106477265D01*
X150769431Y-106477267D01*
X150673261Y-106683502D01*
X150673258Y-106683511D01*
X150614366Y-106903302D01*
X150614364Y-106903313D01*
X150594532Y-107129998D01*
X143349613Y-107129998D01*
X143206497Y-107063261D01*
X143206488Y-107063258D01*
X142986697Y-107004366D01*
X142986693Y-107004365D01*
X142986692Y-107004365D01*
X142986691Y-107004364D01*
X142986686Y-107004364D01*
X142760002Y-106984532D01*
X142759998Y-106984532D01*
X142533313Y-107004364D01*
X142533302Y-107004366D01*
X142313511Y-107063258D01*
X142313502Y-107063261D01*
X142107267Y-107159431D01*
X142107265Y-107159432D01*
X141920858Y-107289954D01*
X141759954Y-107450858D01*
X141629432Y-107637265D01*
X141629431Y-107637267D01*
X141602382Y-107695275D01*
X141556209Y-107747714D01*
X141489016Y-107766866D01*
X141422135Y-107746650D01*
X141377618Y-107695275D01*
X141350568Y-107637266D01*
X141220047Y-107450861D01*
X141220045Y-107450858D01*
X141059141Y-107289954D01*
X140872734Y-107159432D01*
X140872732Y-107159431D01*
X140666497Y-107063261D01*
X140666488Y-107063258D01*
X140446697Y-107004366D01*
X140446693Y-107004365D01*
X140446692Y-107004365D01*
X140446691Y-107004364D01*
X140446686Y-107004364D01*
X140220002Y-106984532D01*
X140219998Y-106984532D01*
X139993313Y-107004364D01*
X139993302Y-107004366D01*
X139773511Y-107063258D01*
X139773502Y-107063261D01*
X139567267Y-107159431D01*
X139567265Y-107159432D01*
X139380858Y-107289954D01*
X139219954Y-107450858D01*
X139089432Y-107637265D01*
X139089431Y-107637267D01*
X139062382Y-107695275D01*
X139016209Y-107747714D01*
X138949016Y-107766866D01*
X138882135Y-107746650D01*
X138837618Y-107695275D01*
X138810568Y-107637266D01*
X138680047Y-107450861D01*
X138680045Y-107450858D01*
X138519141Y-107289954D01*
X138332734Y-107159432D01*
X138332732Y-107159431D01*
X138126497Y-107063261D01*
X138126488Y-107063258D01*
X137906697Y-107004366D01*
X137906693Y-107004365D01*
X137906692Y-107004365D01*
X137906691Y-107004364D01*
X137906686Y-107004364D01*
X137680002Y-106984532D01*
X137679998Y-106984532D01*
X137453313Y-107004364D01*
X137453302Y-107004366D01*
X137233511Y-107063258D01*
X137233502Y-107063261D01*
X137027267Y-107159431D01*
X137027265Y-107159432D01*
X136840858Y-107289954D01*
X136679954Y-107450858D01*
X136549432Y-107637265D01*
X136549431Y-107637267D01*
X136522382Y-107695275D01*
X136476209Y-107747714D01*
X136409016Y-107766866D01*
X136342135Y-107746650D01*
X136297618Y-107695275D01*
X136270568Y-107637266D01*
X136140047Y-107450861D01*
X136140045Y-107450858D01*
X135979141Y-107289954D01*
X135792734Y-107159432D01*
X135792732Y-107159431D01*
X135586497Y-107063261D01*
X135586488Y-107063258D01*
X135366697Y-107004366D01*
X135366693Y-107004365D01*
X135366692Y-107004365D01*
X135366691Y-107004364D01*
X135366686Y-107004364D01*
X135140002Y-106984532D01*
X135139998Y-106984532D01*
X134913313Y-107004364D01*
X134913302Y-107004366D01*
X134693511Y-107063258D01*
X134693502Y-107063261D01*
X134487267Y-107159431D01*
X134487265Y-107159432D01*
X134300858Y-107289954D01*
X134139954Y-107450858D01*
X134009432Y-107637265D01*
X134009431Y-107637267D01*
X133913261Y-107843502D01*
X133913258Y-107843511D01*
X133854366Y-108063302D01*
X133854364Y-108063313D01*
X133834532Y-108289998D01*
X131332843Y-108289998D01*
X131328119Y-108236000D01*
X131315635Y-108093308D01*
X131256739Y-107873504D01*
X131160568Y-107667266D01*
X131030047Y-107480861D01*
X131030045Y-107480858D01*
X130869141Y-107319954D01*
X130682734Y-107189432D01*
X130682732Y-107189431D01*
X130476497Y-107093261D01*
X130476488Y-107093258D01*
X130256697Y-107034366D01*
X130256693Y-107034365D01*
X130256692Y-107034365D01*
X130256691Y-107034364D01*
X130256686Y-107034364D01*
X130030002Y-107014532D01*
X130029998Y-107014532D01*
X129803313Y-107034364D01*
X129803302Y-107034366D01*
X129583511Y-107093258D01*
X129583502Y-107093261D01*
X129377267Y-107189431D01*
X129377265Y-107189432D01*
X129190858Y-107319954D01*
X129029954Y-107480858D01*
X128899432Y-107667265D01*
X128899431Y-107667267D01*
X128872382Y-107725275D01*
X128826209Y-107777714D01*
X128759016Y-107796866D01*
X128692135Y-107776650D01*
X128647618Y-107725275D01*
X128620568Y-107667267D01*
X128620567Y-107667265D01*
X128606036Y-107646513D01*
X128490047Y-107480861D01*
X128490045Y-107480858D01*
X128329141Y-107319954D01*
X128142734Y-107189432D01*
X128142732Y-107189431D01*
X127936497Y-107093261D01*
X127936488Y-107093258D01*
X127716697Y-107034366D01*
X127716693Y-107034365D01*
X127716692Y-107034365D01*
X127716691Y-107034364D01*
X127716686Y-107034364D01*
X127490002Y-107014532D01*
X127489998Y-107014532D01*
X127263313Y-107034364D01*
X127263302Y-107034366D01*
X127043511Y-107093258D01*
X127043502Y-107093261D01*
X126837267Y-107189431D01*
X126837265Y-107189432D01*
X126650858Y-107319954D01*
X126489954Y-107480858D01*
X126359432Y-107667265D01*
X126359431Y-107667267D01*
X126332382Y-107725275D01*
X126286209Y-107777714D01*
X126219016Y-107796866D01*
X126152135Y-107776650D01*
X126107618Y-107725275D01*
X126080568Y-107667267D01*
X126080567Y-107667265D01*
X126066036Y-107646513D01*
X125950047Y-107480861D01*
X125950045Y-107480858D01*
X125789141Y-107319954D01*
X125602734Y-107189432D01*
X125602732Y-107189431D01*
X125396497Y-107093261D01*
X125396488Y-107093258D01*
X125176697Y-107034366D01*
X125176693Y-107034365D01*
X125176692Y-107034365D01*
X125176691Y-107034364D01*
X125176686Y-107034364D01*
X124950002Y-107014532D01*
X124949998Y-107014532D01*
X124723313Y-107034364D01*
X124723302Y-107034366D01*
X124503511Y-107093258D01*
X124503502Y-107093261D01*
X124297267Y-107189431D01*
X124297265Y-107189432D01*
X124110858Y-107319954D01*
X123949954Y-107480858D01*
X123819432Y-107667265D01*
X123819431Y-107667267D01*
X123792382Y-107725275D01*
X123746209Y-107777714D01*
X123679016Y-107796866D01*
X123612135Y-107776650D01*
X123567618Y-107725275D01*
X123540568Y-107667267D01*
X123540567Y-107667265D01*
X123526036Y-107646513D01*
X123410047Y-107480861D01*
X123410045Y-107480858D01*
X123249141Y-107319954D01*
X123062734Y-107189432D01*
X123062732Y-107189431D01*
X122856497Y-107093261D01*
X122856488Y-107093258D01*
X122636697Y-107034366D01*
X122636693Y-107034365D01*
X122636692Y-107034365D01*
X122636691Y-107034364D01*
X122636686Y-107034364D01*
X122410002Y-107014532D01*
X122409998Y-107014532D01*
X122183313Y-107034364D01*
X122183302Y-107034366D01*
X121963511Y-107093258D01*
X121963502Y-107093261D01*
X121757267Y-107189431D01*
X121757265Y-107189432D01*
X121570858Y-107319954D01*
X121409954Y-107480858D01*
X121279432Y-107667265D01*
X121279431Y-107667267D01*
X121183261Y-107873502D01*
X121183258Y-107873511D01*
X121124366Y-108093302D01*
X121124364Y-108093313D01*
X121104532Y-108319998D01*
X117657286Y-108319998D01*
X117675659Y-108110000D01*
X117655063Y-107874592D01*
X117593903Y-107646337D01*
X117494035Y-107432171D01*
X117441185Y-107356692D01*
X117358494Y-107238597D01*
X117191402Y-107071506D01*
X117191396Y-107071501D01*
X117005842Y-106941575D01*
X116962217Y-106886998D01*
X116955023Y-106817500D01*
X116986546Y-106755145D01*
X117005842Y-106738425D01*
X117084280Y-106683502D01*
X117191401Y-106608495D01*
X117358495Y-106441401D01*
X117494035Y-106247830D01*
X117593903Y-106033663D01*
X117655063Y-105805408D01*
X117675659Y-105570000D01*
X117655063Y-105334592D01*
X117593903Y-105106337D01*
X117494035Y-104892171D01*
X117358495Y-104698599D01*
X117358494Y-104698597D01*
X117191402Y-104531506D01*
X117191396Y-104531501D01*
X117005842Y-104401575D01*
X116962217Y-104346998D01*
X116955023Y-104277500D01*
X116986546Y-104215145D01*
X117005842Y-104198425D01*
X117028026Y-104182891D01*
X117191401Y-104068495D01*
X117358495Y-103901401D01*
X117494035Y-103707830D01*
X117593903Y-103493663D01*
X117655063Y-103265408D01*
X117675659Y-103030000D01*
X117655063Y-102794592D01*
X117593903Y-102566337D01*
X117494035Y-102352171D01*
X117441185Y-102276692D01*
X117358494Y-102158597D01*
X117249894Y-102049998D01*
X150594532Y-102049998D01*
X150594532Y-102050001D01*
X150614364Y-102276686D01*
X150614366Y-102276697D01*
X150673258Y-102496488D01*
X150673261Y-102496497D01*
X150769431Y-102702732D01*
X150769432Y-102702734D01*
X150899954Y-102889141D01*
X151060858Y-103050045D01*
X151060861Y-103050047D01*
X151247266Y-103180568D01*
X151453504Y-103276739D01*
X151673308Y-103335635D01*
X151835230Y-103349801D01*
X151899998Y-103355468D01*
X151900000Y-103355468D01*
X151900002Y-103355468D01*
X151956673Y-103350509D01*
X152126692Y-103335635D01*
X152346496Y-103276739D01*
X152552734Y-103180568D01*
X152739139Y-103050047D01*
X152900047Y-102889139D01*
X153030568Y-102702734D01*
X153126739Y-102496496D01*
X153185635Y-102276692D01*
X153205468Y-102050000D01*
X153185635Y-101823308D01*
X153126739Y-101603504D01*
X153030568Y-101397266D01*
X152921637Y-101241695D01*
X152900045Y-101210858D01*
X152739141Y-101049954D01*
X152552734Y-100919432D01*
X152552732Y-100919431D01*
X152346497Y-100823261D01*
X152346488Y-100823258D01*
X152126697Y-100764366D01*
X152126693Y-100764365D01*
X152126692Y-100764365D01*
X152126691Y-100764364D01*
X152126686Y-100764364D01*
X151900002Y-100744532D01*
X151899998Y-100744532D01*
X151673313Y-100764364D01*
X151673302Y-100764366D01*
X151453511Y-100823258D01*
X151453502Y-100823261D01*
X151247267Y-100919431D01*
X151247265Y-100919432D01*
X151060858Y-101049954D01*
X150899954Y-101210858D01*
X150769432Y-101397265D01*
X150769431Y-101397267D01*
X150673261Y-101603502D01*
X150673258Y-101603511D01*
X150614366Y-101823302D01*
X150614364Y-101823313D01*
X150594532Y-102049998D01*
X117249894Y-102049998D01*
X117191402Y-101991506D01*
X117191396Y-101991501D01*
X117005842Y-101861575D01*
X116962217Y-101806998D01*
X116955023Y-101737500D01*
X116986546Y-101675145D01*
X117005842Y-101658425D01*
X117028026Y-101642891D01*
X117191401Y-101528495D01*
X117358495Y-101361401D01*
X117494035Y-101167830D01*
X117593903Y-100953663D01*
X117655063Y-100725408D01*
X117675659Y-100490000D01*
X117672159Y-100449999D01*
X121131127Y-100449999D01*
X121131128Y-100450000D01*
X122094314Y-100450000D01*
X122089920Y-100454394D01*
X122037259Y-100545606D01*
X122010000Y-100647339D01*
X122010000Y-100752661D01*
X122037259Y-100854394D01*
X122089920Y-100945606D01*
X122094314Y-100950000D01*
X121131128Y-100950000D01*
X121183730Y-101146317D01*
X121183734Y-101146326D01*
X121279865Y-101352482D01*
X121410342Y-101538820D01*
X121571179Y-101699657D01*
X121757517Y-101830134D01*
X121963673Y-101926265D01*
X121963682Y-101926269D01*
X122159999Y-101978872D01*
X122160000Y-101978871D01*
X122160000Y-101015686D01*
X122164394Y-101020080D01*
X122255606Y-101072741D01*
X122357339Y-101100000D01*
X122462661Y-101100000D01*
X122564394Y-101072741D01*
X122655606Y-101020080D01*
X122660000Y-101015686D01*
X122660000Y-101978872D01*
X122856317Y-101926269D01*
X122856326Y-101926265D01*
X123062482Y-101830134D01*
X123248820Y-101699657D01*
X123409657Y-101538820D01*
X123540134Y-101352481D01*
X123540135Y-101352479D01*
X123567618Y-101293543D01*
X123613790Y-101241103D01*
X123680983Y-101221951D01*
X123747864Y-101242166D01*
X123792382Y-101293543D01*
X123819864Y-101352479D01*
X123819865Y-101352481D01*
X123950342Y-101538820D01*
X124111179Y-101699657D01*
X124297517Y-101830134D01*
X124503673Y-101926265D01*
X124503682Y-101926269D01*
X124699999Y-101978872D01*
X124700000Y-101978871D01*
X124700000Y-101015686D01*
X124704394Y-101020080D01*
X124795606Y-101072741D01*
X124897339Y-101100000D01*
X125002661Y-101100000D01*
X125104394Y-101072741D01*
X125195606Y-101020080D01*
X125200000Y-101015686D01*
X125200000Y-101978872D01*
X125396317Y-101926269D01*
X125396326Y-101926265D01*
X125602482Y-101830134D01*
X125788820Y-101699657D01*
X125949657Y-101538820D01*
X126080132Y-101352484D01*
X126107341Y-101294134D01*
X126153513Y-101241695D01*
X126220707Y-101222542D01*
X126287588Y-101242757D01*
X126332106Y-101294133D01*
X126359431Y-101352732D01*
X126359432Y-101352734D01*
X126489954Y-101539141D01*
X126650858Y-101700045D01*
X126668410Y-101712335D01*
X126837266Y-101830568D01*
X127043504Y-101926739D01*
X127263308Y-101985635D01*
X127425230Y-101999801D01*
X127489998Y-102005468D01*
X127490000Y-102005468D01*
X127490002Y-102005468D01*
X127546807Y-102000498D01*
X127716692Y-101985635D01*
X127936496Y-101926739D01*
X128142734Y-101830568D01*
X128329139Y-101700047D01*
X128490047Y-101539139D01*
X128507272Y-101514539D01*
X128561848Y-101470913D01*
X128631346Y-101463718D01*
X128693701Y-101495239D01*
X128729116Y-101555468D01*
X128732138Y-101572406D01*
X128735908Y-101607483D01*
X128786202Y-101742328D01*
X128786206Y-101742335D01*
X128872452Y-101857544D01*
X128872455Y-101857547D01*
X128987664Y-101943793D01*
X128987671Y-101943797D01*
X129122517Y-101994091D01*
X129122516Y-101994091D01*
X129129444Y-101994835D01*
X129182127Y-102000500D01*
X130877872Y-102000499D01*
X130937483Y-101994091D01*
X131072331Y-101943796D01*
X131187546Y-101857546D01*
X131273796Y-101742331D01*
X131324091Y-101607483D01*
X131330500Y-101547873D01*
X131330499Y-100419999D01*
X133861127Y-100419999D01*
X133861128Y-100420000D01*
X134824314Y-100420000D01*
X134819920Y-100424394D01*
X134767259Y-100515606D01*
X134740000Y-100617339D01*
X134740000Y-100722661D01*
X134767259Y-100824394D01*
X134819920Y-100915606D01*
X134824314Y-100920000D01*
X133861128Y-100920000D01*
X133913730Y-101116317D01*
X133913734Y-101116326D01*
X134009865Y-101322482D01*
X134140342Y-101508820D01*
X134301179Y-101669657D01*
X134487517Y-101800134D01*
X134693673Y-101896265D01*
X134693682Y-101896269D01*
X134889999Y-101948872D01*
X134890000Y-101948871D01*
X134890000Y-100985686D01*
X134894394Y-100990080D01*
X134985606Y-101042741D01*
X135087339Y-101070000D01*
X135192661Y-101070000D01*
X135294394Y-101042741D01*
X135385606Y-100990080D01*
X135390000Y-100985686D01*
X135390000Y-101948872D01*
X135586317Y-101896269D01*
X135586326Y-101896265D01*
X135792482Y-101800134D01*
X135978820Y-101669657D01*
X136139657Y-101508820D01*
X136270134Y-101322481D01*
X136270135Y-101322479D01*
X136297618Y-101263543D01*
X136343790Y-101211103D01*
X136410983Y-101191951D01*
X136477864Y-101212166D01*
X136522382Y-101263543D01*
X136549864Y-101322479D01*
X136549865Y-101322481D01*
X136680342Y-101508820D01*
X136841179Y-101669657D01*
X137027517Y-101800134D01*
X137233673Y-101896265D01*
X137233682Y-101896269D01*
X137429999Y-101948872D01*
X137430000Y-101948871D01*
X137430000Y-100985686D01*
X137434394Y-100990080D01*
X137525606Y-101042741D01*
X137627339Y-101070000D01*
X137732661Y-101070000D01*
X137834394Y-101042741D01*
X137925606Y-100990080D01*
X137930000Y-100985686D01*
X137930000Y-101948872D01*
X138126317Y-101896269D01*
X138126326Y-101896265D01*
X138332482Y-101800134D01*
X138518820Y-101669657D01*
X138679657Y-101508820D01*
X138810132Y-101322484D01*
X138837341Y-101264134D01*
X138883513Y-101211695D01*
X138950707Y-101192542D01*
X139017588Y-101212757D01*
X139062106Y-101264133D01*
X139089431Y-101322732D01*
X139089432Y-101322734D01*
X139219954Y-101509141D01*
X139380858Y-101670045D01*
X139387705Y-101674839D01*
X139567266Y-101800568D01*
X139773504Y-101896739D01*
X139993308Y-101955635D01*
X140155230Y-101969801D01*
X140219998Y-101975468D01*
X140220000Y-101975468D01*
X140220002Y-101975468D01*
X140276807Y-101970498D01*
X140446692Y-101955635D01*
X140666496Y-101896739D01*
X140872734Y-101800568D01*
X141059139Y-101670047D01*
X141220047Y-101509139D01*
X141237272Y-101484539D01*
X141291848Y-101440913D01*
X141361346Y-101433718D01*
X141423701Y-101465239D01*
X141459116Y-101525468D01*
X141462138Y-101542406D01*
X141465908Y-101577483D01*
X141516202Y-101712328D01*
X141516206Y-101712335D01*
X141602452Y-101827544D01*
X141602455Y-101827547D01*
X141717664Y-101913793D01*
X141717671Y-101913797D01*
X141852517Y-101964091D01*
X141852516Y-101964091D01*
X141859444Y-101964835D01*
X141912127Y-101970500D01*
X143607872Y-101970499D01*
X143667483Y-101964091D01*
X143802331Y-101913796D01*
X143917546Y-101827546D01*
X144003796Y-101712331D01*
X144054091Y-101577483D01*
X144060500Y-101517873D01*
X144060499Y-99822128D01*
X144054091Y-99762517D01*
X144030901Y-99700342D01*
X144003797Y-99627671D01*
X144003793Y-99627664D01*
X143917547Y-99512455D01*
X143917544Y-99512452D01*
X143802335Y-99426206D01*
X143802328Y-99426202D01*
X143667482Y-99375908D01*
X143667483Y-99375908D01*
X143607883Y-99369501D01*
X143607881Y-99369500D01*
X143607873Y-99369500D01*
X143607864Y-99369500D01*
X141912129Y-99369500D01*
X141912123Y-99369501D01*
X141852516Y-99375908D01*
X141717671Y-99426202D01*
X141717664Y-99426206D01*
X141602455Y-99512452D01*
X141602452Y-99512455D01*
X141516206Y-99627664D01*
X141516202Y-99627671D01*
X141465908Y-99762516D01*
X141462137Y-99797596D01*
X141435398Y-99862146D01*
X141378006Y-99901994D01*
X141308180Y-99904487D01*
X141248092Y-99868834D01*
X141237273Y-99855462D01*
X141220045Y-99830858D01*
X141059141Y-99669954D01*
X140872734Y-99539432D01*
X140872732Y-99539431D01*
X140666497Y-99443261D01*
X140666488Y-99443258D01*
X140446697Y-99384366D01*
X140446693Y-99384365D01*
X140446692Y-99384365D01*
X140446691Y-99384364D01*
X140446686Y-99384364D01*
X140220002Y-99364532D01*
X140219998Y-99364532D01*
X139993313Y-99384364D01*
X139993302Y-99384366D01*
X139773511Y-99443258D01*
X139773502Y-99443261D01*
X139567267Y-99539431D01*
X139567265Y-99539432D01*
X139380858Y-99669954D01*
X139219954Y-99830858D01*
X139089433Y-100017264D01*
X139089432Y-100017266D01*
X139089315Y-100017518D01*
X139062106Y-100075867D01*
X139015933Y-100128306D01*
X138948739Y-100147457D01*
X138881858Y-100127241D01*
X138837342Y-100075865D01*
X138810135Y-100017520D01*
X138810134Y-100017518D01*
X138679657Y-99831179D01*
X138518820Y-99670342D01*
X138332482Y-99539865D01*
X138126328Y-99443734D01*
X137930000Y-99391127D01*
X137930000Y-100354314D01*
X137925606Y-100349920D01*
X137834394Y-100297259D01*
X137732661Y-100270000D01*
X137627339Y-100270000D01*
X137525606Y-100297259D01*
X137434394Y-100349920D01*
X137430000Y-100354314D01*
X137430000Y-99391127D01*
X137233671Y-99443734D01*
X137027517Y-99539865D01*
X136841179Y-99670342D01*
X136680342Y-99831179D01*
X136549865Y-100017517D01*
X136522382Y-100076457D01*
X136476210Y-100128896D01*
X136409016Y-100148048D01*
X136342135Y-100127832D01*
X136297618Y-100076457D01*
X136270134Y-100017517D01*
X136139657Y-99831179D01*
X135978820Y-99670342D01*
X135792482Y-99539865D01*
X135586328Y-99443734D01*
X135390000Y-99391127D01*
X135390000Y-100354314D01*
X135385606Y-100349920D01*
X135294394Y-100297259D01*
X135192661Y-100270000D01*
X135087339Y-100270000D01*
X134985606Y-100297259D01*
X134894394Y-100349920D01*
X134890000Y-100354314D01*
X134890000Y-99391127D01*
X134693671Y-99443734D01*
X134487517Y-99539865D01*
X134301179Y-99670342D01*
X134140342Y-99831179D01*
X134009865Y-100017517D01*
X133913734Y-100223673D01*
X133913730Y-100223682D01*
X133861127Y-100419999D01*
X131330499Y-100419999D01*
X131330499Y-99852128D01*
X131324091Y-99792517D01*
X131312901Y-99762516D01*
X131273797Y-99657671D01*
X131273793Y-99657664D01*
X131187547Y-99542455D01*
X131187544Y-99542452D01*
X131157547Y-99519996D01*
X131654435Y-99519996D01*
X131654435Y-99520003D01*
X131674630Y-99699249D01*
X131674631Y-99699254D01*
X131734211Y-99869523D01*
X131827203Y-100017518D01*
X131830184Y-100022262D01*
X131957738Y-100149816D01*
X132002669Y-100178048D01*
X132075280Y-100223673D01*
X132110478Y-100245789D01*
X132257571Y-100297259D01*
X132280745Y-100305368D01*
X132280750Y-100305369D01*
X132459996Y-100325565D01*
X132460000Y-100325565D01*
X132460004Y-100325565D01*
X132639249Y-100305369D01*
X132639252Y-100305368D01*
X132639255Y-100305368D01*
X132809522Y-100245789D01*
X132962262Y-100149816D01*
X133089816Y-100022262D01*
X133185789Y-99869522D01*
X133245368Y-99699255D01*
X133248626Y-99670342D01*
X133265565Y-99520003D01*
X133265565Y-99519996D01*
X133245369Y-99340750D01*
X133245368Y-99340745D01*
X133185789Y-99170478D01*
X133089816Y-99017738D01*
X132962262Y-98890184D01*
X132809523Y-98794211D01*
X132639254Y-98734631D01*
X132639249Y-98734630D01*
X132460004Y-98714435D01*
X132459996Y-98714435D01*
X132280750Y-98734630D01*
X132280745Y-98734631D01*
X132110476Y-98794211D01*
X131957737Y-98890184D01*
X131830184Y-99017737D01*
X131734211Y-99170476D01*
X131674631Y-99340745D01*
X131674630Y-99340750D01*
X131654435Y-99519996D01*
X131157547Y-99519996D01*
X131072335Y-99456206D01*
X131072328Y-99456202D01*
X130937482Y-99405908D01*
X130937483Y-99405908D01*
X130877883Y-99399501D01*
X130877881Y-99399500D01*
X130877873Y-99399500D01*
X130877864Y-99399500D01*
X129182129Y-99399500D01*
X129182123Y-99399501D01*
X129122516Y-99405908D01*
X128987671Y-99456202D01*
X128987664Y-99456206D01*
X128872455Y-99542452D01*
X128872452Y-99542455D01*
X128786206Y-99657664D01*
X128786202Y-99657671D01*
X128735908Y-99792516D01*
X128732137Y-99827596D01*
X128705398Y-99892146D01*
X128648006Y-99931994D01*
X128578180Y-99934487D01*
X128518092Y-99898834D01*
X128507273Y-99885462D01*
X128490045Y-99860858D01*
X128329141Y-99699954D01*
X128142734Y-99569432D01*
X128142732Y-99569431D01*
X127936497Y-99473261D01*
X127936488Y-99473258D01*
X127716697Y-99414366D01*
X127716693Y-99414365D01*
X127716692Y-99414365D01*
X127716691Y-99414364D01*
X127716686Y-99414364D01*
X127490002Y-99394532D01*
X127489998Y-99394532D01*
X127263313Y-99414364D01*
X127263302Y-99414366D01*
X127043511Y-99473258D01*
X127043502Y-99473261D01*
X126837267Y-99569431D01*
X126837265Y-99569432D01*
X126650858Y-99699954D01*
X126489954Y-99860858D01*
X126373967Y-100026507D01*
X126359432Y-100047266D01*
X126359315Y-100047518D01*
X126332106Y-100105867D01*
X126285933Y-100158306D01*
X126218739Y-100177457D01*
X126151858Y-100157241D01*
X126107342Y-100105865D01*
X126080135Y-100047520D01*
X126080134Y-100047518D01*
X125949657Y-99861179D01*
X125788820Y-99700342D01*
X125602482Y-99569865D01*
X125396328Y-99473734D01*
X125200000Y-99421127D01*
X125200000Y-100384314D01*
X125195606Y-100379920D01*
X125104394Y-100327259D01*
X125002661Y-100300000D01*
X124897339Y-100300000D01*
X124795606Y-100327259D01*
X124704394Y-100379920D01*
X124700000Y-100384314D01*
X124700000Y-99421127D01*
X124503671Y-99473734D01*
X124297517Y-99569865D01*
X124111179Y-99700342D01*
X123950342Y-99861179D01*
X123819865Y-100047517D01*
X123792382Y-100106457D01*
X123746210Y-100158896D01*
X123679016Y-100178048D01*
X123612135Y-100157832D01*
X123567618Y-100106457D01*
X123540134Y-100047517D01*
X123409657Y-99861179D01*
X123248820Y-99700342D01*
X123062482Y-99569865D01*
X122856328Y-99473734D01*
X122660000Y-99421127D01*
X122660000Y-100384314D01*
X122655606Y-100379920D01*
X122564394Y-100327259D01*
X122462661Y-100300000D01*
X122357339Y-100300000D01*
X122255606Y-100327259D01*
X122164394Y-100379920D01*
X122160000Y-100384314D01*
X122160000Y-99421127D01*
X121963671Y-99473734D01*
X121757517Y-99569865D01*
X121571179Y-99700342D01*
X121410342Y-99861179D01*
X121279865Y-100047517D01*
X121183734Y-100253673D01*
X121183730Y-100253682D01*
X121131127Y-100449999D01*
X117672159Y-100449999D01*
X117655063Y-100254592D01*
X117593903Y-100026337D01*
X117494035Y-99812171D01*
X117480274Y-99792517D01*
X117358494Y-99618597D01*
X117191402Y-99451506D01*
X117191396Y-99451501D01*
X117005842Y-99321575D01*
X116962217Y-99266998D01*
X116955023Y-99197500D01*
X116986546Y-99135145D01*
X117005842Y-99118425D01*
X117028026Y-99102891D01*
X117191401Y-98988495D01*
X117358495Y-98821401D01*
X117494035Y-98627830D01*
X117593903Y-98413663D01*
X117655063Y-98185408D01*
X117675659Y-97950000D01*
X117655063Y-97714592D01*
X117593903Y-97486337D01*
X117494035Y-97272171D01*
X117358495Y-97078599D01*
X117358494Y-97078597D01*
X117191402Y-96911506D01*
X117191396Y-96911501D01*
X117005842Y-96781575D01*
X116962217Y-96726998D01*
X116955023Y-96657500D01*
X116986546Y-96595145D01*
X117005842Y-96578425D01*
X117028026Y-96562891D01*
X117191401Y-96448495D01*
X117358495Y-96281401D01*
X117494035Y-96087830D01*
X117593903Y-95873663D01*
X117655063Y-95645408D01*
X117675659Y-95410000D01*
X117655063Y-95174592D01*
X117593903Y-94946337D01*
X117494035Y-94732171D01*
X117441120Y-94656599D01*
X117358494Y-94538597D01*
X117191402Y-94371506D01*
X117191401Y-94371505D01*
X117023844Y-94254180D01*
X117005405Y-94241269D01*
X116961781Y-94186692D01*
X116954588Y-94117193D01*
X116986110Y-94054839D01*
X117005405Y-94038119D01*
X117191082Y-93908105D01*
X117358105Y-93741082D01*
X117493600Y-93547578D01*
X117593429Y-93333492D01*
X117593432Y-93333486D01*
X117650636Y-93120000D01*
X116753012Y-93120000D01*
X116785925Y-93062993D01*
X116820000Y-92935826D01*
X116820000Y-92804174D01*
X116785925Y-92677007D01*
X116753012Y-92620000D01*
X117650636Y-92620000D01*
X117650635Y-92619999D01*
X117593432Y-92406513D01*
X117593429Y-92406507D01*
X117493600Y-92192422D01*
X117493599Y-92192420D01*
X117358113Y-91998926D01*
X117358108Y-91998920D01*
X117249186Y-91889998D01*
X150594532Y-91889998D01*
X150594532Y-91890001D01*
X150614364Y-92116686D01*
X150614366Y-92116697D01*
X150673258Y-92336488D01*
X150673261Y-92336497D01*
X150769431Y-92542732D01*
X150769432Y-92542734D01*
X150899954Y-92729141D01*
X151060858Y-92890045D01*
X151060861Y-92890047D01*
X151247266Y-93020568D01*
X151305865Y-93047893D01*
X151358305Y-93094065D01*
X151377457Y-93161258D01*
X151357242Y-93228139D01*
X151305867Y-93272657D01*
X151247513Y-93299868D01*
X151247512Y-93299868D01*
X151174526Y-93350973D01*
X151174526Y-93350974D01*
X151762424Y-93938871D01*
X151703147Y-93954755D01*
X151586853Y-94021898D01*
X151491898Y-94116853D01*
X151424755Y-94233147D01*
X151408872Y-94292424D01*
X150820974Y-93704526D01*
X150820973Y-93704526D01*
X150769868Y-93777512D01*
X150769866Y-93777516D01*
X150673734Y-93983673D01*
X150673730Y-93983682D01*
X150614860Y-94203389D01*
X150614858Y-94203400D01*
X150595034Y-94429997D01*
X150595034Y-94430002D01*
X150614858Y-94656599D01*
X150614860Y-94656610D01*
X150673730Y-94876317D01*
X150673735Y-94876331D01*
X150769863Y-95082478D01*
X150820974Y-95155472D01*
X151408871Y-94567574D01*
X151424755Y-94626853D01*
X151491898Y-94743147D01*
X151586853Y-94838102D01*
X151703147Y-94905245D01*
X151762424Y-94921128D01*
X151174526Y-95509025D01*
X151247513Y-95560132D01*
X151247521Y-95560136D01*
X151453668Y-95656264D01*
X151453682Y-95656269D01*
X151673389Y-95715139D01*
X151673400Y-95715141D01*
X151899998Y-95734966D01*
X151900002Y-95734966D01*
X152126599Y-95715141D01*
X152126610Y-95715139D01*
X152346317Y-95656269D01*
X152346331Y-95656264D01*
X152552478Y-95560136D01*
X152625471Y-95509024D01*
X152037575Y-94921128D01*
X152096853Y-94905245D01*
X152213147Y-94838102D01*
X152308102Y-94743147D01*
X152375245Y-94626853D01*
X152391128Y-94567575D01*
X152979024Y-95155471D01*
X153030136Y-95082478D01*
X153126264Y-94876331D01*
X153126269Y-94876317D01*
X153185139Y-94656610D01*
X153185141Y-94656599D01*
X153204966Y-94430002D01*
X153204966Y-94429997D01*
X153185141Y-94203400D01*
X153185139Y-94203389D01*
X153126269Y-93983682D01*
X153126264Y-93983668D01*
X153030136Y-93777521D01*
X153030132Y-93777513D01*
X152979025Y-93704526D01*
X152391127Y-94292423D01*
X152375245Y-94233147D01*
X152308102Y-94116853D01*
X152213147Y-94021898D01*
X152096853Y-93954755D01*
X152037575Y-93938871D01*
X152625472Y-93350974D01*
X152552480Y-93299864D01*
X152494134Y-93272657D01*
X152441695Y-93226484D01*
X152422543Y-93159291D01*
X152442759Y-93092410D01*
X152494134Y-93047893D01*
X152552734Y-93020568D01*
X152739139Y-92890047D01*
X152900047Y-92729139D01*
X153030568Y-92542734D01*
X153126739Y-92336496D01*
X153185635Y-92116692D01*
X153205468Y-91890000D01*
X153185635Y-91663308D01*
X153126739Y-91443504D01*
X153030568Y-91237266D01*
X152900047Y-91050861D01*
X152900045Y-91050858D01*
X152739141Y-90889954D01*
X152552734Y-90759432D01*
X152552732Y-90759431D01*
X152346497Y-90663261D01*
X152346488Y-90663258D01*
X152126697Y-90604366D01*
X152126693Y-90604365D01*
X152126692Y-90604365D01*
X152126691Y-90604364D01*
X152126686Y-90604364D01*
X151900002Y-90584532D01*
X151899998Y-90584532D01*
X151673313Y-90604364D01*
X151673302Y-90604366D01*
X151453511Y-90663258D01*
X151453502Y-90663261D01*
X151247267Y-90759431D01*
X151247265Y-90759432D01*
X151060858Y-90889954D01*
X150899954Y-91050858D01*
X150769432Y-91237265D01*
X150769431Y-91237267D01*
X150673261Y-91443502D01*
X150673258Y-91443511D01*
X150614366Y-91663302D01*
X150614364Y-91663313D01*
X150594532Y-91889998D01*
X117249186Y-91889998D01*
X117191078Y-91831890D01*
X117005405Y-91701879D01*
X116961780Y-91647302D01*
X116954588Y-91577804D01*
X116986110Y-91515449D01*
X117005406Y-91498730D01*
X117084280Y-91443502D01*
X117191401Y-91368495D01*
X117358495Y-91201401D01*
X117494035Y-91007830D01*
X117593903Y-90793663D01*
X117655063Y-90565408D01*
X117675659Y-90330000D01*
X117655063Y-90094592D01*
X117593903Y-89866337D01*
X117494035Y-89652171D01*
X117377432Y-89485643D01*
X117358494Y-89458597D01*
X117191402Y-89291506D01*
X117191396Y-89291501D01*
X117005842Y-89161575D01*
X116962217Y-89106998D01*
X116955023Y-89037500D01*
X116986546Y-88975145D01*
X117005842Y-88958425D01*
X117132137Y-88869992D01*
X117132148Y-88869984D01*
X121659500Y-88869984D01*
X121659500Y-90570015D01*
X121670000Y-90672795D01*
X121670001Y-90672796D01*
X121725186Y-90839335D01*
X121725187Y-90839337D01*
X121817286Y-90988651D01*
X121817289Y-90988655D01*
X121941344Y-91112710D01*
X121941348Y-91112713D01*
X122090662Y-91204812D01*
X122090664Y-91204813D01*
X122090666Y-91204814D01*
X122257203Y-91259999D01*
X122359992Y-91270500D01*
X122359997Y-91270500D01*
X124060003Y-91270500D01*
X124060008Y-91270500D01*
X124162797Y-91259999D01*
X124329334Y-91204814D01*
X124478655Y-91112711D01*
X124602711Y-90988655D01*
X124694814Y-90839334D01*
X124749999Y-90672797D01*
X124760500Y-90570008D01*
X124760500Y-88869992D01*
X124760499Y-88869984D01*
X135159500Y-88869984D01*
X135159500Y-90570015D01*
X135170000Y-90672795D01*
X135170001Y-90672796D01*
X135225186Y-90839335D01*
X135225187Y-90839337D01*
X135317286Y-90988651D01*
X135317289Y-90988655D01*
X135441344Y-91112710D01*
X135441348Y-91112713D01*
X135590662Y-91204812D01*
X135590664Y-91204813D01*
X135590666Y-91204814D01*
X135757203Y-91259999D01*
X135859992Y-91270500D01*
X135859997Y-91270500D01*
X137560003Y-91270500D01*
X137560008Y-91270500D01*
X137662797Y-91259999D01*
X137829334Y-91204814D01*
X137978655Y-91112711D01*
X138102711Y-90988655D01*
X138194814Y-90839334D01*
X138249999Y-90672797D01*
X138260500Y-90570008D01*
X138260500Y-88869992D01*
X138249999Y-88767203D01*
X138194814Y-88600666D01*
X138102711Y-88451345D01*
X137978655Y-88327289D01*
X137978651Y-88327286D01*
X137829337Y-88235187D01*
X137829335Y-88235186D01*
X137746065Y-88207593D01*
X137662797Y-88180001D01*
X137662795Y-88180000D01*
X137560015Y-88169500D01*
X137560008Y-88169500D01*
X135859992Y-88169500D01*
X135859984Y-88169500D01*
X135757204Y-88180000D01*
X135757203Y-88180001D01*
X135590664Y-88235186D01*
X135590662Y-88235187D01*
X135441348Y-88327286D01*
X135441344Y-88327289D01*
X135317289Y-88451344D01*
X135317286Y-88451348D01*
X135225187Y-88600662D01*
X135225186Y-88600664D01*
X135170001Y-88767203D01*
X135170000Y-88767204D01*
X135159500Y-88869984D01*
X124760499Y-88869984D01*
X124749999Y-88767203D01*
X124694814Y-88600666D01*
X124602711Y-88451345D01*
X124478655Y-88327289D01*
X124478651Y-88327286D01*
X124329337Y-88235187D01*
X124329335Y-88235186D01*
X124246065Y-88207593D01*
X124162797Y-88180001D01*
X124162795Y-88180000D01*
X124060015Y-88169500D01*
X124060008Y-88169500D01*
X122359992Y-88169500D01*
X122359984Y-88169500D01*
X122257204Y-88180000D01*
X122257203Y-88180001D01*
X122090664Y-88235186D01*
X122090662Y-88235187D01*
X121941348Y-88327286D01*
X121941344Y-88327289D01*
X121817289Y-88451344D01*
X121817286Y-88451348D01*
X121725187Y-88600662D01*
X121725186Y-88600664D01*
X121670001Y-88767203D01*
X121670000Y-88767204D01*
X121659500Y-88869984D01*
X117132148Y-88869984D01*
X117191401Y-88828495D01*
X117358495Y-88661401D01*
X117494035Y-88467830D01*
X117593903Y-88253663D01*
X117655063Y-88025408D01*
X117675659Y-87790000D01*
X117655063Y-87554592D01*
X117593903Y-87326337D01*
X117494035Y-87112171D01*
X117358495Y-86918599D01*
X117358494Y-86918597D01*
X117191402Y-86751506D01*
X117191396Y-86751501D01*
X117005842Y-86621575D01*
X116962217Y-86566998D01*
X116955023Y-86497500D01*
X116986546Y-86435145D01*
X117005842Y-86418425D01*
X117028026Y-86402891D01*
X117191401Y-86288495D01*
X117358495Y-86121401D01*
X117494035Y-85927830D01*
X117593903Y-85713663D01*
X117655063Y-85485408D01*
X117675659Y-85250000D01*
X117655063Y-85014592D01*
X117593903Y-84786337D01*
X117494035Y-84572171D01*
X117478382Y-84549815D01*
X117358494Y-84378597D01*
X117191402Y-84211506D01*
X117191396Y-84211501D01*
X117005842Y-84081575D01*
X116962217Y-84026998D01*
X116955023Y-83957500D01*
X116986546Y-83895145D01*
X117005842Y-83878425D01*
X117146564Y-83779890D01*
X117191401Y-83748495D01*
X117358495Y-83581401D01*
X117494035Y-83387830D01*
X117502343Y-83370014D01*
X121660000Y-83370014D01*
X121660000Y-83970000D01*
X122719252Y-83970000D01*
X122697482Y-84007708D01*
X122660000Y-84147591D01*
X122660000Y-84292409D01*
X122697482Y-84432292D01*
X122719252Y-84470000D01*
X121660000Y-84470000D01*
X121660000Y-85069985D01*
X121670493Y-85172689D01*
X121670494Y-85172696D01*
X121725641Y-85339118D01*
X121725643Y-85339123D01*
X121817684Y-85488344D01*
X121941655Y-85612315D01*
X122090876Y-85704356D01*
X122090881Y-85704358D01*
X122257303Y-85759505D01*
X122257310Y-85759506D01*
X122360014Y-85769999D01*
X122360027Y-85770000D01*
X122960000Y-85770000D01*
X122960000Y-84710747D01*
X122997708Y-84732518D01*
X123137591Y-84770000D01*
X123282409Y-84770000D01*
X123422292Y-84732518D01*
X123460000Y-84710747D01*
X123460000Y-85770000D01*
X124059973Y-85770000D01*
X124059985Y-85769999D01*
X124162689Y-85759506D01*
X124162696Y-85759505D01*
X124329118Y-85704358D01*
X124329123Y-85704356D01*
X124478344Y-85612315D01*
X124602315Y-85488344D01*
X124694356Y-85339123D01*
X124694358Y-85339118D01*
X124749505Y-85172696D01*
X124749506Y-85172689D01*
X124759999Y-85069985D01*
X124760000Y-85069972D01*
X124760000Y-84470000D01*
X123700748Y-84470000D01*
X123722518Y-84432292D01*
X123760000Y-84292409D01*
X123760000Y-84147591D01*
X123722518Y-84007708D01*
X123700748Y-83970000D01*
X124760000Y-83970000D01*
X124760000Y-83370027D01*
X124759999Y-83370014D01*
X135160000Y-83370014D01*
X135160000Y-83970000D01*
X136219252Y-83970000D01*
X136197482Y-84007708D01*
X136160000Y-84147591D01*
X136160000Y-84292409D01*
X136197482Y-84432292D01*
X136219252Y-84470000D01*
X135160000Y-84470000D01*
X135160000Y-85069985D01*
X135170493Y-85172689D01*
X135170494Y-85172696D01*
X135225641Y-85339118D01*
X135225643Y-85339123D01*
X135317684Y-85488344D01*
X135441655Y-85612315D01*
X135590876Y-85704356D01*
X135590881Y-85704358D01*
X135757303Y-85759505D01*
X135757310Y-85759506D01*
X135860014Y-85769999D01*
X135860027Y-85770000D01*
X136460000Y-85770000D01*
X136460000Y-84710747D01*
X136497708Y-84732518D01*
X136637591Y-84770000D01*
X136782409Y-84770000D01*
X136922292Y-84732518D01*
X136960000Y-84710747D01*
X136960000Y-85770000D01*
X137559973Y-85770000D01*
X137559985Y-85769999D01*
X137662689Y-85759506D01*
X137662696Y-85759505D01*
X137829118Y-85704358D01*
X137829123Y-85704356D01*
X137978344Y-85612315D01*
X138102315Y-85488344D01*
X138194356Y-85339123D01*
X138194358Y-85339118D01*
X138249505Y-85172696D01*
X138249506Y-85172689D01*
X138259999Y-85069985D01*
X138260000Y-85069972D01*
X138260000Y-84470000D01*
X137200748Y-84470000D01*
X137222518Y-84432292D01*
X137260000Y-84292409D01*
X137260000Y-84147591D01*
X137222518Y-84007708D01*
X137200748Y-83970000D01*
X138260000Y-83970000D01*
X138260000Y-83919996D01*
X146354435Y-83919996D01*
X146354435Y-83920003D01*
X146374630Y-84099249D01*
X146374631Y-84099254D01*
X146434211Y-84269523D01*
X146506888Y-84385187D01*
X146530184Y-84422262D01*
X146657738Y-84549816D01*
X146810478Y-84645789D01*
X146980745Y-84705368D01*
X146980750Y-84705369D01*
X147159996Y-84725565D01*
X147160000Y-84725565D01*
X147160004Y-84725565D01*
X147339249Y-84705369D01*
X147339252Y-84705368D01*
X147339255Y-84705368D01*
X147509522Y-84645789D01*
X147662262Y-84549816D01*
X147789816Y-84422262D01*
X147885789Y-84269522D01*
X147945368Y-84099255D01*
X147949244Y-84064855D01*
X147965565Y-83920003D01*
X147965565Y-83919996D01*
X147945369Y-83740750D01*
X147945368Y-83740745D01*
X147885788Y-83570476D01*
X147789815Y-83417737D01*
X147662262Y-83290184D01*
X147509523Y-83194211D01*
X147339254Y-83134631D01*
X147339249Y-83134630D01*
X147160004Y-83114435D01*
X147159996Y-83114435D01*
X146980750Y-83134630D01*
X146980745Y-83134631D01*
X146810476Y-83194211D01*
X146657737Y-83290184D01*
X146530184Y-83417737D01*
X146434211Y-83570476D01*
X146374631Y-83740745D01*
X146374630Y-83740750D01*
X146354435Y-83919996D01*
X138260000Y-83919996D01*
X138260000Y-83370027D01*
X138259999Y-83370014D01*
X138249506Y-83267310D01*
X138249505Y-83267303D01*
X138194358Y-83100881D01*
X138194356Y-83100876D01*
X138102315Y-82951655D01*
X137978344Y-82827684D01*
X137829123Y-82735643D01*
X137829118Y-82735641D01*
X137662696Y-82680494D01*
X137662689Y-82680493D01*
X137559985Y-82670000D01*
X136960000Y-82670000D01*
X136960000Y-83729252D01*
X136922292Y-83707482D01*
X136782409Y-83670000D01*
X136637591Y-83670000D01*
X136497708Y-83707482D01*
X136460000Y-83729252D01*
X136460000Y-82670000D01*
X135860014Y-82670000D01*
X135757310Y-82680493D01*
X135757303Y-82680494D01*
X135590881Y-82735641D01*
X135590876Y-82735643D01*
X135441655Y-82827684D01*
X135317684Y-82951655D01*
X135225643Y-83100876D01*
X135225641Y-83100881D01*
X135170494Y-83267303D01*
X135170493Y-83267310D01*
X135160000Y-83370014D01*
X124759999Y-83370014D01*
X124749506Y-83267310D01*
X124749505Y-83267303D01*
X124694358Y-83100881D01*
X124694356Y-83100876D01*
X124602315Y-82951655D01*
X124478344Y-82827684D01*
X124329123Y-82735643D01*
X124329118Y-82735641D01*
X124162696Y-82680494D01*
X124162689Y-82680493D01*
X124059985Y-82670000D01*
X123460000Y-82670000D01*
X123460000Y-83729252D01*
X123422292Y-83707482D01*
X123282409Y-83670000D01*
X123137591Y-83670000D01*
X122997708Y-83707482D01*
X122960000Y-83729252D01*
X122960000Y-82670000D01*
X122360014Y-82670000D01*
X122257310Y-82680493D01*
X122257303Y-82680494D01*
X122090881Y-82735641D01*
X122090876Y-82735643D01*
X121941655Y-82827684D01*
X121817684Y-82951655D01*
X121725643Y-83100876D01*
X121725641Y-83100881D01*
X121670494Y-83267303D01*
X121670493Y-83267310D01*
X121660000Y-83370014D01*
X117502343Y-83370014D01*
X117593903Y-83173663D01*
X117655063Y-82945408D01*
X117675659Y-82710000D01*
X117655063Y-82474592D01*
X117593903Y-82246337D01*
X117494035Y-82032171D01*
X117358495Y-81838599D01*
X117358494Y-81838597D01*
X117191402Y-81671506D01*
X117191396Y-81671501D01*
X117005842Y-81541575D01*
X116962217Y-81486998D01*
X116955023Y-81417500D01*
X116986546Y-81355145D01*
X117005842Y-81338425D01*
X117028026Y-81322891D01*
X117191401Y-81208495D01*
X117358495Y-81041401D01*
X117494035Y-80847830D01*
X117553645Y-80719996D01*
X132554435Y-80719996D01*
X132554435Y-80720003D01*
X132574630Y-80899249D01*
X132574631Y-80899254D01*
X132634211Y-81069523D01*
X132670630Y-81127483D01*
X132730184Y-81222262D01*
X132857738Y-81349816D01*
X133010478Y-81445789D01*
X133128247Y-81486998D01*
X133180745Y-81505368D01*
X133180750Y-81505369D01*
X133359996Y-81525565D01*
X133360000Y-81525565D01*
X133360004Y-81525565D01*
X133539249Y-81505369D01*
X133539252Y-81505368D01*
X133539255Y-81505368D01*
X133709522Y-81445789D01*
X133862262Y-81349816D01*
X133989816Y-81222262D01*
X134085789Y-81069522D01*
X134145368Y-80899255D01*
X134165565Y-80720000D01*
X134159931Y-80670000D01*
X134145369Y-80540750D01*
X134145368Y-80540745D01*
X134098013Y-80405413D01*
X134085789Y-80370478D01*
X133989816Y-80217738D01*
X133862262Y-80090184D01*
X133788761Y-80044000D01*
X133709523Y-79994211D01*
X133539254Y-79934631D01*
X133539249Y-79934630D01*
X133360004Y-79914435D01*
X133359996Y-79914435D01*
X133180750Y-79934630D01*
X133180745Y-79934631D01*
X133010476Y-79994211D01*
X132857737Y-80090184D01*
X132730184Y-80217737D01*
X132634211Y-80370476D01*
X132574631Y-80540745D01*
X132574630Y-80540750D01*
X132554435Y-80719996D01*
X117553645Y-80719996D01*
X117593903Y-80633663D01*
X117655063Y-80405408D01*
X117675659Y-80170000D01*
X117655063Y-79934592D01*
X117593903Y-79706337D01*
X117494035Y-79492171D01*
X117467559Y-79454358D01*
X117358494Y-79298597D01*
X117191402Y-79131506D01*
X117191395Y-79131501D01*
X116997834Y-78995967D01*
X116997830Y-78995965D01*
X116964470Y-78980409D01*
X116783663Y-78896097D01*
X116783659Y-78896096D01*
X116783655Y-78896094D01*
X116555413Y-78834938D01*
X116555403Y-78834936D01*
X116320001Y-78814341D01*
X116319999Y-78814341D01*
X116084596Y-78834936D01*
X116084586Y-78834938D01*
X115856344Y-78896094D01*
X115856335Y-78896098D01*
X115642171Y-78995964D01*
X115642169Y-78995965D01*
X115448600Y-79131503D01*
X115326673Y-79253430D01*
X115265350Y-79286914D01*
X115195658Y-79281930D01*
X115139725Y-79240058D01*
X115122810Y-79209081D01*
X115073797Y-79077671D01*
X115073793Y-79077664D01*
X114987547Y-78962455D01*
X114987544Y-78962452D01*
X114872335Y-78876206D01*
X114872328Y-78876202D01*
X114737482Y-78825908D01*
X114737483Y-78825908D01*
X114677883Y-78819501D01*
X114677881Y-78819500D01*
X114677873Y-78819500D01*
X114677864Y-78819500D01*
X112882129Y-78819500D01*
X112882123Y-78819501D01*
X112822516Y-78825908D01*
X112687671Y-78876202D01*
X112687664Y-78876206D01*
X112572455Y-78962452D01*
X112572452Y-78962455D01*
X112486206Y-79077664D01*
X112486202Y-79077671D01*
X112435908Y-79212517D01*
X112429501Y-79272116D01*
X112429500Y-79272135D01*
X112429500Y-81067870D01*
X112429501Y-81067876D01*
X112435908Y-81127483D01*
X112486202Y-81262328D01*
X112486206Y-81262335D01*
X112572452Y-81377544D01*
X112572455Y-81377547D01*
X112687664Y-81463793D01*
X112687671Y-81463797D01*
X112819081Y-81512810D01*
X112875015Y-81554681D01*
X112899432Y-81620145D01*
X112884580Y-81688418D01*
X112863430Y-81716673D01*
X112741503Y-81838600D01*
X112605965Y-82032169D01*
X112605964Y-82032171D01*
X112506098Y-82246335D01*
X112506094Y-82246344D01*
X112444938Y-82474586D01*
X112444936Y-82474596D01*
X112424341Y-82709999D01*
X98070500Y-82709999D01*
X98070500Y-77120014D01*
X100410000Y-77120014D01*
X100410000Y-77720000D01*
X101469252Y-77720000D01*
X101447482Y-77757708D01*
X101410000Y-77897591D01*
X101410000Y-78042409D01*
X101447482Y-78182292D01*
X101469252Y-78220000D01*
X100410000Y-78220000D01*
X100410000Y-78819985D01*
X100420493Y-78922689D01*
X100420494Y-78922696D01*
X100475641Y-79089118D01*
X100475643Y-79089123D01*
X100567684Y-79238344D01*
X100691655Y-79362315D01*
X100840876Y-79454356D01*
X100840881Y-79454358D01*
X101007303Y-79509505D01*
X101007310Y-79509506D01*
X101110014Y-79519999D01*
X101110027Y-79520000D01*
X101710000Y-79520000D01*
X101710000Y-78460747D01*
X101747708Y-78482518D01*
X101887591Y-78520000D01*
X102032409Y-78520000D01*
X102172292Y-78482518D01*
X102210000Y-78460747D01*
X102210000Y-79520000D01*
X102809973Y-79520000D01*
X102809985Y-79519999D01*
X102912689Y-79509506D01*
X102912696Y-79509505D01*
X103079118Y-79454358D01*
X103079123Y-79454356D01*
X103228344Y-79362315D01*
X103352315Y-79238344D01*
X103444356Y-79089123D01*
X103444358Y-79089118D01*
X103499505Y-78922696D01*
X103499506Y-78922689D01*
X103509999Y-78819985D01*
X103510000Y-78819972D01*
X103510000Y-78220000D01*
X102450748Y-78220000D01*
X102472518Y-78182292D01*
X102510000Y-78042409D01*
X102510000Y-77897591D01*
X102472518Y-77757708D01*
X102450748Y-77720000D01*
X103510000Y-77720000D01*
X103510000Y-77519996D01*
X110754435Y-77519996D01*
X110754435Y-77520003D01*
X110774630Y-77699249D01*
X110774631Y-77699254D01*
X110834211Y-77869523D01*
X110897045Y-77969522D01*
X110930184Y-78022262D01*
X111057738Y-78149816D01*
X111210478Y-78245789D01*
X111221984Y-78249815D01*
X111380745Y-78305368D01*
X111380750Y-78305369D01*
X111559996Y-78325565D01*
X111560000Y-78325565D01*
X111560004Y-78325565D01*
X111739249Y-78305369D01*
X111739252Y-78305368D01*
X111739255Y-78305368D01*
X111909522Y-78245789D01*
X112062262Y-78149816D01*
X112189816Y-78022262D01*
X112285789Y-77869522D01*
X112345368Y-77699255D01*
X112353171Y-77630000D01*
X112365565Y-77520003D01*
X112365565Y-77519996D01*
X112345369Y-77340750D01*
X112345368Y-77340745D01*
X112285789Y-77170478D01*
X112285188Y-77169522D01*
X112189815Y-77017737D01*
X112062262Y-76890184D01*
X111950559Y-76819996D01*
X117754435Y-76819996D01*
X117754435Y-76820003D01*
X117774630Y-76999249D01*
X117774631Y-76999254D01*
X117834211Y-77169523D01*
X117897646Y-77270478D01*
X117930184Y-77322262D01*
X118057738Y-77449816D01*
X118210478Y-77545789D01*
X118380745Y-77605368D01*
X118380750Y-77605369D01*
X118559996Y-77625565D01*
X118560000Y-77625565D01*
X118560004Y-77625565D01*
X118609430Y-77619996D01*
X150154435Y-77619996D01*
X150154435Y-77620003D01*
X150174630Y-77799249D01*
X150174631Y-77799254D01*
X150234211Y-77969523D01*
X150280009Y-78042409D01*
X150330184Y-78122262D01*
X150457738Y-78249816D01*
X150610478Y-78345789D01*
X150780745Y-78405368D01*
X150780750Y-78405369D01*
X150959996Y-78425565D01*
X150960000Y-78425565D01*
X150960004Y-78425565D01*
X151139249Y-78405369D01*
X151139252Y-78405368D01*
X151139255Y-78405368D01*
X151309522Y-78345789D01*
X151462262Y-78249816D01*
X151589816Y-78122262D01*
X151685789Y-77969522D01*
X151745368Y-77799255D01*
X151745369Y-77799249D01*
X151764439Y-77629999D01*
X158144341Y-77629999D01*
X158144341Y-77630000D01*
X158164936Y-77865403D01*
X158164938Y-77865413D01*
X158226094Y-78093655D01*
X158226096Y-78093659D01*
X158226097Y-78093663D01*
X158252282Y-78149816D01*
X158325965Y-78307830D01*
X158325967Y-78307834D01*
X158461501Y-78501395D01*
X158461506Y-78501402D01*
X158628597Y-78668493D01*
X158628603Y-78668498D01*
X158814594Y-78798730D01*
X158858219Y-78853307D01*
X158865413Y-78922805D01*
X158833890Y-78985160D01*
X158814595Y-79001880D01*
X158628922Y-79131890D01*
X158628920Y-79131891D01*
X158461891Y-79298920D01*
X158461886Y-79298926D01*
X158326400Y-79492420D01*
X158326399Y-79492422D01*
X158226570Y-79706507D01*
X158226567Y-79706513D01*
X158169364Y-79919999D01*
X158169364Y-79920000D01*
X159066988Y-79920000D01*
X159034075Y-79977007D01*
X159000000Y-80104174D01*
X159000000Y-80235826D01*
X159034075Y-80362993D01*
X159066988Y-80420000D01*
X158169364Y-80420000D01*
X158226567Y-80633486D01*
X158226570Y-80633492D01*
X158326399Y-80847578D01*
X158461894Y-81041082D01*
X158628917Y-81208105D01*
X158814595Y-81338119D01*
X158858219Y-81392696D01*
X158865412Y-81462195D01*
X158833890Y-81524549D01*
X158814595Y-81541269D01*
X158628594Y-81671508D01*
X158461505Y-81838597D01*
X158325965Y-82032169D01*
X158325964Y-82032171D01*
X158226098Y-82246335D01*
X158226094Y-82246344D01*
X158164938Y-82474586D01*
X158164936Y-82474596D01*
X158144341Y-82709999D01*
X158144341Y-82710000D01*
X158164936Y-82945403D01*
X158164938Y-82945413D01*
X158226094Y-83173655D01*
X158226096Y-83173659D01*
X158226097Y-83173663D01*
X158280432Y-83290184D01*
X158325965Y-83387830D01*
X158325967Y-83387834D01*
X158461501Y-83581395D01*
X158461506Y-83581402D01*
X158628597Y-83748493D01*
X158628603Y-83748498D01*
X158814158Y-83878425D01*
X158857783Y-83933002D01*
X158864977Y-84002500D01*
X158833454Y-84064855D01*
X158814158Y-84081575D01*
X158628597Y-84211505D01*
X158461505Y-84378597D01*
X158325965Y-84572169D01*
X158325964Y-84572171D01*
X158226098Y-84786335D01*
X158226094Y-84786344D01*
X158164938Y-85014586D01*
X158164936Y-85014596D01*
X158144341Y-85249999D01*
X158144341Y-85250000D01*
X158164936Y-85485403D01*
X158164938Y-85485413D01*
X158226094Y-85713655D01*
X158226096Y-85713659D01*
X158226097Y-85713663D01*
X158325965Y-85927830D01*
X158325967Y-85927834D01*
X158461501Y-86121395D01*
X158461506Y-86121402D01*
X158628597Y-86288493D01*
X158628603Y-86288498D01*
X158814158Y-86418425D01*
X158857783Y-86473002D01*
X158864977Y-86542500D01*
X158833454Y-86604855D01*
X158814158Y-86621575D01*
X158628597Y-86751505D01*
X158461505Y-86918597D01*
X158325965Y-87112169D01*
X158325964Y-87112171D01*
X158226098Y-87326335D01*
X158226094Y-87326344D01*
X158164938Y-87554586D01*
X158164936Y-87554596D01*
X158144341Y-87789999D01*
X158144341Y-87790000D01*
X158164936Y-88025403D01*
X158164938Y-88025413D01*
X158226094Y-88253655D01*
X158226096Y-88253659D01*
X158226097Y-88253663D01*
X158318277Y-88451344D01*
X158325965Y-88467830D01*
X158325967Y-88467834D01*
X158461501Y-88661395D01*
X158461506Y-88661402D01*
X158628597Y-88828493D01*
X158628603Y-88828498D01*
X158814158Y-88958425D01*
X158857783Y-89013002D01*
X158864977Y-89082500D01*
X158833454Y-89144855D01*
X158814158Y-89161575D01*
X158628597Y-89291505D01*
X158461505Y-89458597D01*
X158325965Y-89652169D01*
X158325964Y-89652171D01*
X158226098Y-89866335D01*
X158226094Y-89866344D01*
X158164938Y-90094586D01*
X158164936Y-90094596D01*
X158144341Y-90329999D01*
X158144341Y-90330000D01*
X158164936Y-90565403D01*
X158164938Y-90565413D01*
X158226094Y-90793655D01*
X158226096Y-90793659D01*
X158226097Y-90793663D01*
X158274560Y-90897591D01*
X158325965Y-91007830D01*
X158325967Y-91007834D01*
X158461501Y-91201395D01*
X158461506Y-91201402D01*
X158628597Y-91368493D01*
X158628603Y-91368498D01*
X158814158Y-91498425D01*
X158857783Y-91553002D01*
X158864977Y-91622500D01*
X158833454Y-91684855D01*
X158814158Y-91701575D01*
X158628597Y-91831505D01*
X158461505Y-91998597D01*
X158325965Y-92192169D01*
X158325964Y-92192171D01*
X158226098Y-92406335D01*
X158226094Y-92406344D01*
X158164938Y-92634586D01*
X158164936Y-92634596D01*
X158144341Y-92869999D01*
X158144341Y-92870000D01*
X158164936Y-93105403D01*
X158164938Y-93105413D01*
X158226094Y-93333655D01*
X158226096Y-93333659D01*
X158226097Y-93333663D01*
X158325847Y-93547578D01*
X158325965Y-93547830D01*
X158325967Y-93547834D01*
X158461501Y-93741395D01*
X158461506Y-93741402D01*
X158628597Y-93908493D01*
X158628603Y-93908498D01*
X158814594Y-94038730D01*
X158858219Y-94093307D01*
X158865413Y-94162805D01*
X158833890Y-94225160D01*
X158814595Y-94241880D01*
X158628922Y-94371890D01*
X158628920Y-94371891D01*
X158461891Y-94538920D01*
X158461886Y-94538926D01*
X158326400Y-94732420D01*
X158326399Y-94732422D01*
X158226570Y-94946507D01*
X158226567Y-94946513D01*
X158169364Y-95159999D01*
X158169364Y-95160000D01*
X159066988Y-95160000D01*
X159034075Y-95217007D01*
X159000000Y-95344174D01*
X159000000Y-95475826D01*
X159034075Y-95602993D01*
X159066988Y-95660000D01*
X158169364Y-95660000D01*
X158226567Y-95873486D01*
X158226570Y-95873492D01*
X158326399Y-96087578D01*
X158461894Y-96281082D01*
X158628917Y-96448105D01*
X158814595Y-96578119D01*
X158858219Y-96632696D01*
X158865412Y-96702195D01*
X158833890Y-96764549D01*
X158814595Y-96781269D01*
X158628594Y-96911508D01*
X158461505Y-97078597D01*
X158325965Y-97272169D01*
X158325964Y-97272171D01*
X158226098Y-97486335D01*
X158226094Y-97486344D01*
X158164938Y-97714586D01*
X158164936Y-97714596D01*
X158144341Y-97949999D01*
X158144341Y-97950000D01*
X158164936Y-98185403D01*
X158164938Y-98185413D01*
X158226094Y-98413655D01*
X158226096Y-98413659D01*
X158226097Y-98413663D01*
X158325965Y-98627830D01*
X158325967Y-98627834D01*
X158461501Y-98821395D01*
X158461506Y-98821402D01*
X158628597Y-98988493D01*
X158628603Y-98988498D01*
X158814158Y-99118425D01*
X158857783Y-99173002D01*
X158864977Y-99242500D01*
X158833454Y-99304855D01*
X158814158Y-99321575D01*
X158628597Y-99451505D01*
X158461505Y-99618597D01*
X158325965Y-99812169D01*
X158325964Y-99812171D01*
X158226098Y-100026335D01*
X158226094Y-100026344D01*
X158164938Y-100254586D01*
X158164936Y-100254596D01*
X158144341Y-100489999D01*
X158144341Y-100490000D01*
X158164936Y-100725403D01*
X158164938Y-100725413D01*
X158226094Y-100953655D01*
X158226096Y-100953659D01*
X158226097Y-100953663D01*
X158316017Y-101146496D01*
X158325965Y-101167830D01*
X158325967Y-101167834D01*
X158461501Y-101361395D01*
X158461506Y-101361402D01*
X158628597Y-101528493D01*
X158628603Y-101528498D01*
X158814158Y-101658425D01*
X158857783Y-101713002D01*
X158864977Y-101782500D01*
X158833454Y-101844855D01*
X158814158Y-101861575D01*
X158628597Y-101991505D01*
X158461505Y-102158597D01*
X158325965Y-102352169D01*
X158325964Y-102352171D01*
X158226098Y-102566335D01*
X158226094Y-102566344D01*
X158164938Y-102794586D01*
X158164936Y-102794596D01*
X158144341Y-103029999D01*
X158144341Y-103030000D01*
X158164936Y-103265403D01*
X158164938Y-103265413D01*
X158226094Y-103493655D01*
X158226096Y-103493659D01*
X158226097Y-103493663D01*
X158228705Y-103499255D01*
X158325965Y-103707830D01*
X158325967Y-103707834D01*
X158461501Y-103901395D01*
X158461506Y-103901402D01*
X158628597Y-104068493D01*
X158628603Y-104068498D01*
X158814158Y-104198425D01*
X158857783Y-104253002D01*
X158864977Y-104322500D01*
X158833454Y-104384855D01*
X158814158Y-104401575D01*
X158628597Y-104531505D01*
X158461505Y-104698597D01*
X158325965Y-104892169D01*
X158325964Y-104892171D01*
X158226098Y-105106335D01*
X158226094Y-105106344D01*
X158164938Y-105334586D01*
X158164936Y-105334596D01*
X158144341Y-105569999D01*
X158144341Y-105570000D01*
X158164936Y-105805403D01*
X158164938Y-105805413D01*
X158226094Y-106033655D01*
X158226096Y-106033659D01*
X158226097Y-106033663D01*
X158325965Y-106247830D01*
X158325967Y-106247834D01*
X158461501Y-106441395D01*
X158461506Y-106441402D01*
X158628597Y-106608493D01*
X158628603Y-106608498D01*
X158814594Y-106738730D01*
X158858219Y-106793307D01*
X158865413Y-106862805D01*
X158833890Y-106925160D01*
X158814595Y-106941880D01*
X158628922Y-107071890D01*
X158628920Y-107071891D01*
X158461891Y-107238920D01*
X158461886Y-107238926D01*
X158326400Y-107432420D01*
X158326399Y-107432422D01*
X158226570Y-107646507D01*
X158226567Y-107646513D01*
X158169364Y-107859999D01*
X158169364Y-107860000D01*
X159066988Y-107860000D01*
X159034075Y-107917007D01*
X159000000Y-108044174D01*
X159000000Y-108175826D01*
X159034075Y-108302993D01*
X159066988Y-108360000D01*
X158169364Y-108360000D01*
X158226567Y-108573486D01*
X158226570Y-108573492D01*
X158326399Y-108787578D01*
X158461894Y-108981082D01*
X158628917Y-109148105D01*
X158814595Y-109278119D01*
X158858219Y-109332696D01*
X158865412Y-109402195D01*
X158833890Y-109464549D01*
X158814595Y-109481269D01*
X158628594Y-109611508D01*
X158461505Y-109778597D01*
X158325965Y-109972169D01*
X158325964Y-109972171D01*
X158226098Y-110186335D01*
X158226094Y-110186344D01*
X158164938Y-110414586D01*
X158164936Y-110414596D01*
X158144341Y-110649999D01*
X158144341Y-110650000D01*
X158164936Y-110885403D01*
X158164938Y-110885413D01*
X158226094Y-111113655D01*
X158226096Y-111113659D01*
X158226097Y-111113663D01*
X158244096Y-111152262D01*
X158325965Y-111327830D01*
X158325967Y-111327834D01*
X158461501Y-111521395D01*
X158461506Y-111521402D01*
X158628597Y-111688493D01*
X158628603Y-111688498D01*
X158814158Y-111818425D01*
X158857783Y-111873002D01*
X158864977Y-111942500D01*
X158833454Y-112004855D01*
X158814158Y-112021575D01*
X158628597Y-112151505D01*
X158461505Y-112318597D01*
X158325965Y-112512169D01*
X158325964Y-112512171D01*
X158226098Y-112726335D01*
X158226094Y-112726344D01*
X158164938Y-112954586D01*
X158164936Y-112954596D01*
X158144341Y-113189999D01*
X158144341Y-113190000D01*
X158164936Y-113425403D01*
X158164938Y-113425413D01*
X158226094Y-113653655D01*
X158226096Y-113653659D01*
X158226097Y-113653663D01*
X158325965Y-113867830D01*
X158325967Y-113867834D01*
X158461501Y-114061395D01*
X158461506Y-114061402D01*
X158628597Y-114228493D01*
X158628603Y-114228498D01*
X158814158Y-114358425D01*
X158857783Y-114413002D01*
X158864977Y-114482500D01*
X158833454Y-114544855D01*
X158814158Y-114561575D01*
X158628597Y-114691505D01*
X158461505Y-114858597D01*
X158325965Y-115052169D01*
X158325964Y-115052171D01*
X158226098Y-115266335D01*
X158226094Y-115266344D01*
X158164938Y-115494586D01*
X158164936Y-115494596D01*
X158144341Y-115729999D01*
X158144341Y-115730000D01*
X158164936Y-115965403D01*
X158164938Y-115965413D01*
X158226094Y-116193655D01*
X158226096Y-116193659D01*
X158226097Y-116193663D01*
X158325965Y-116407830D01*
X158325967Y-116407834D01*
X158355888Y-116450565D01*
X158461505Y-116601401D01*
X158628599Y-116768495D01*
X158702156Y-116820000D01*
X158822165Y-116904032D01*
X158822167Y-116904033D01*
X158822170Y-116904035D01*
X159036337Y-117003903D01*
X159264592Y-117065063D01*
X159452918Y-117081539D01*
X159499999Y-117085659D01*
X159500000Y-117085659D01*
X159500001Y-117085659D01*
X159539234Y-117082226D01*
X159735408Y-117065063D01*
X159963663Y-117003903D01*
X160177830Y-116904035D01*
X160202361Y-116886858D01*
X160265819Y-116842425D01*
X160332025Y-116820098D01*
X160336942Y-116820000D01*
X161203058Y-116820000D01*
X161270097Y-116839685D01*
X161274181Y-116842425D01*
X161362168Y-116904034D01*
X161362170Y-116904035D01*
X161576337Y-117003903D01*
X161804592Y-117065063D01*
X161992918Y-117081539D01*
X162039999Y-117085659D01*
X162040000Y-117085659D01*
X162040001Y-117085659D01*
X162079234Y-117082226D01*
X162275408Y-117065063D01*
X162503663Y-117003903D01*
X162717830Y-116904035D01*
X162911401Y-116768495D01*
X163078495Y-116601401D01*
X163214035Y-116407830D01*
X163313903Y-116193663D01*
X163375063Y-115965408D01*
X163395659Y-115730000D01*
X163375063Y-115494592D01*
X163313903Y-115266337D01*
X163214035Y-115052171D01*
X163079219Y-114859632D01*
X163078494Y-114858597D01*
X162911402Y-114691506D01*
X162911396Y-114691501D01*
X162725842Y-114561575D01*
X162682217Y-114506998D01*
X162675023Y-114437500D01*
X162706546Y-114375145D01*
X162725842Y-114358425D01*
X162748026Y-114342891D01*
X162911401Y-114228495D01*
X163078495Y-114061401D01*
X163214035Y-113867830D01*
X163313903Y-113653663D01*
X163375063Y-113425408D01*
X163395659Y-113190000D01*
X163375063Y-112954592D01*
X163313903Y-112726337D01*
X163214035Y-112512171D01*
X163078495Y-112318599D01*
X163078494Y-112318597D01*
X162911402Y-112151506D01*
X162911396Y-112151501D01*
X162725842Y-112021575D01*
X162682217Y-111966998D01*
X162675023Y-111897500D01*
X162706546Y-111835145D01*
X162725842Y-111818425D01*
X162748026Y-111802891D01*
X162911401Y-111688495D01*
X163078495Y-111521401D01*
X163214035Y-111327830D01*
X163313903Y-111113663D01*
X163375063Y-110885408D01*
X163395659Y-110650000D01*
X163375063Y-110414592D01*
X163313903Y-110186337D01*
X163214035Y-109972171D01*
X163180454Y-109924211D01*
X163078494Y-109778597D01*
X162911402Y-109611506D01*
X162911396Y-109611501D01*
X162725842Y-109481575D01*
X162682217Y-109426998D01*
X162675023Y-109357500D01*
X162706546Y-109295145D01*
X162725842Y-109278425D01*
X162748026Y-109262891D01*
X162911401Y-109148495D01*
X163078495Y-108981401D01*
X163214035Y-108787830D01*
X163313903Y-108573663D01*
X163375063Y-108345408D01*
X163395659Y-108110000D01*
X163375063Y-107874592D01*
X163313903Y-107646337D01*
X163214035Y-107432171D01*
X163161185Y-107356692D01*
X163078494Y-107238597D01*
X162911402Y-107071506D01*
X162911396Y-107071501D01*
X162725842Y-106941575D01*
X162682217Y-106886998D01*
X162675023Y-106817500D01*
X162706546Y-106755145D01*
X162725842Y-106738425D01*
X162804280Y-106683502D01*
X162911401Y-106608495D01*
X163078495Y-106441401D01*
X163214035Y-106247830D01*
X163313903Y-106033663D01*
X163375063Y-105805408D01*
X163395659Y-105570000D01*
X163375063Y-105334592D01*
X163313903Y-105106337D01*
X163214035Y-104892171D01*
X163078495Y-104698599D01*
X163078494Y-104698597D01*
X162911402Y-104531506D01*
X162911396Y-104531501D01*
X162725842Y-104401575D01*
X162682217Y-104346998D01*
X162675023Y-104277500D01*
X162706546Y-104215145D01*
X162725842Y-104198425D01*
X162748026Y-104182891D01*
X162911401Y-104068495D01*
X163078495Y-103901401D01*
X163214035Y-103707830D01*
X163313903Y-103493663D01*
X163375063Y-103265408D01*
X163395659Y-103030000D01*
X163375063Y-102794592D01*
X163313903Y-102566337D01*
X163214035Y-102352171D01*
X163161185Y-102276692D01*
X163078494Y-102158597D01*
X162911402Y-101991506D01*
X162911401Y-101991505D01*
X162725405Y-101861269D01*
X162681781Y-101806692D01*
X162674588Y-101737193D01*
X162706110Y-101674839D01*
X162725405Y-101658119D01*
X162911082Y-101528105D01*
X163078105Y-101361082D01*
X163213600Y-101167578D01*
X163313429Y-100953492D01*
X163313432Y-100953486D01*
X163370636Y-100740000D01*
X162473012Y-100740000D01*
X162505925Y-100682993D01*
X162540000Y-100555826D01*
X162540000Y-100424174D01*
X162505925Y-100297007D01*
X162473012Y-100240000D01*
X163370636Y-100240000D01*
X163370635Y-100239999D01*
X163313432Y-100026513D01*
X163313429Y-100026507D01*
X163213600Y-99812422D01*
X163213599Y-99812420D01*
X163078113Y-99618926D01*
X163078108Y-99618920D01*
X162911078Y-99451890D01*
X162725405Y-99321879D01*
X162681780Y-99267302D01*
X162674588Y-99197804D01*
X162706110Y-99135449D01*
X162725406Y-99118730D01*
X162725842Y-99118425D01*
X162911401Y-98988495D01*
X163078495Y-98821401D01*
X163214035Y-98627830D01*
X163313903Y-98413663D01*
X163375063Y-98185408D01*
X163395659Y-97950000D01*
X163375063Y-97714592D01*
X163313903Y-97486337D01*
X163214035Y-97272171D01*
X163078495Y-97078599D01*
X163078494Y-97078597D01*
X162911402Y-96911506D01*
X162911396Y-96911501D01*
X162725842Y-96781575D01*
X162682217Y-96726998D01*
X162675023Y-96657500D01*
X162706546Y-96595145D01*
X162725842Y-96578425D01*
X162748026Y-96562891D01*
X162911401Y-96448495D01*
X163078495Y-96281401D01*
X163214035Y-96087830D01*
X163313903Y-95873663D01*
X163375063Y-95645408D01*
X163395659Y-95410000D01*
X163375063Y-95174592D01*
X163313903Y-94946337D01*
X163214035Y-94732171D01*
X163161120Y-94656599D01*
X163078494Y-94538597D01*
X162911402Y-94371506D01*
X162911396Y-94371501D01*
X162725842Y-94241575D01*
X162682217Y-94186998D01*
X162675023Y-94117500D01*
X162706546Y-94055145D01*
X162725842Y-94038425D01*
X162894970Y-93920000D01*
X162911401Y-93908495D01*
X163078495Y-93741401D01*
X163214035Y-93547830D01*
X163313903Y-93333663D01*
X163375063Y-93105408D01*
X163395659Y-92870000D01*
X163375063Y-92634592D01*
X163326770Y-92454358D01*
X163313905Y-92406344D01*
X163313904Y-92406343D01*
X163313903Y-92406337D01*
X163214035Y-92192171D01*
X163161185Y-92116692D01*
X163078494Y-91998597D01*
X162911402Y-91831506D01*
X162911396Y-91831501D01*
X162725842Y-91701575D01*
X162682217Y-91646998D01*
X162675023Y-91577500D01*
X162706546Y-91515145D01*
X162725842Y-91498425D01*
X162804280Y-91443502D01*
X162911401Y-91368495D01*
X163078495Y-91201401D01*
X163214035Y-91007830D01*
X163313903Y-90793663D01*
X163375063Y-90565408D01*
X163395659Y-90330000D01*
X163375063Y-90094592D01*
X163313903Y-89866337D01*
X163214035Y-89652171D01*
X163097432Y-89485643D01*
X163078494Y-89458597D01*
X162911402Y-89291506D01*
X162911396Y-89291501D01*
X162725842Y-89161575D01*
X162682217Y-89106998D01*
X162675023Y-89037500D01*
X162706546Y-88975145D01*
X162725842Y-88958425D01*
X162852137Y-88869992D01*
X162911401Y-88828495D01*
X163078495Y-88661401D01*
X163214035Y-88467830D01*
X163313903Y-88253663D01*
X163375063Y-88025408D01*
X163395659Y-87790000D01*
X163375063Y-87554592D01*
X163313903Y-87326337D01*
X163214035Y-87112171D01*
X163078495Y-86918599D01*
X163078494Y-86918597D01*
X162911402Y-86751506D01*
X162911396Y-86751501D01*
X162725842Y-86621575D01*
X162682217Y-86566998D01*
X162675023Y-86497500D01*
X162706546Y-86435145D01*
X162725842Y-86418425D01*
X162748026Y-86402891D01*
X162911401Y-86288495D01*
X163078495Y-86121401D01*
X163214035Y-85927830D01*
X163313903Y-85713663D01*
X163375063Y-85485408D01*
X163395659Y-85250000D01*
X163375063Y-85014592D01*
X163313903Y-84786337D01*
X163214035Y-84572171D01*
X163198382Y-84549815D01*
X163078494Y-84378597D01*
X162911402Y-84211506D01*
X162911396Y-84211501D01*
X162725842Y-84081575D01*
X162682217Y-84026998D01*
X162675023Y-83957500D01*
X162706546Y-83895145D01*
X162725842Y-83878425D01*
X162866564Y-83779890D01*
X162911401Y-83748495D01*
X163078495Y-83581401D01*
X163214035Y-83387830D01*
X163313903Y-83173663D01*
X163375063Y-82945408D01*
X163395659Y-82710000D01*
X163375063Y-82474592D01*
X163313903Y-82246337D01*
X163214035Y-82032171D01*
X163078495Y-81838599D01*
X163078494Y-81838597D01*
X162911402Y-81671506D01*
X162911396Y-81671501D01*
X162725842Y-81541575D01*
X162682217Y-81486998D01*
X162675023Y-81417500D01*
X162706546Y-81355145D01*
X162725842Y-81338425D01*
X162748026Y-81322891D01*
X162911401Y-81208495D01*
X163078495Y-81041401D01*
X163214035Y-80847830D01*
X163313903Y-80633663D01*
X163375063Y-80405408D01*
X163395659Y-80170000D01*
X163375063Y-79934592D01*
X163313903Y-79706337D01*
X163214035Y-79492171D01*
X163187559Y-79454358D01*
X163078494Y-79298597D01*
X162911402Y-79131506D01*
X162911396Y-79131501D01*
X162725842Y-79001575D01*
X162682217Y-78946998D01*
X162675023Y-78877500D01*
X162706546Y-78815145D01*
X162725842Y-78798425D01*
X162748026Y-78782891D01*
X162911401Y-78668495D01*
X163078495Y-78501401D01*
X163214035Y-78307830D01*
X163313903Y-78093663D01*
X163375063Y-77865408D01*
X163395659Y-77630000D01*
X163375063Y-77394592D01*
X163314757Y-77169523D01*
X163313905Y-77166344D01*
X163313904Y-77166343D01*
X163313903Y-77166337D01*
X163214035Y-76952171D01*
X163173452Y-76894211D01*
X163078494Y-76758597D01*
X162911402Y-76591506D01*
X162911396Y-76591501D01*
X162725842Y-76461575D01*
X162682217Y-76406998D01*
X162675023Y-76337500D01*
X162706546Y-76275145D01*
X162725842Y-76258425D01*
X162823300Y-76190184D01*
X162911401Y-76128495D01*
X163078495Y-75961401D01*
X163214035Y-75767830D01*
X163313903Y-75553663D01*
X163375063Y-75325408D01*
X163395659Y-75090000D01*
X163375063Y-74854592D01*
X163313903Y-74626337D01*
X163214035Y-74412171D01*
X163204992Y-74399255D01*
X163078494Y-74218597D01*
X162911402Y-74051506D01*
X162911395Y-74051501D01*
X162717834Y-73915967D01*
X162717830Y-73915965D01*
X162693348Y-73904549D01*
X162503663Y-73816097D01*
X162503659Y-73816096D01*
X162503655Y-73816094D01*
X162275413Y-73754938D01*
X162275403Y-73754936D01*
X162040001Y-73734341D01*
X162039999Y-73734341D01*
X161804596Y-73754936D01*
X161804586Y-73754938D01*
X161576344Y-73816094D01*
X161576335Y-73816098D01*
X161362171Y-73915964D01*
X161362169Y-73915965D01*
X161168597Y-74051505D01*
X161046673Y-74173430D01*
X160985350Y-74206915D01*
X160915658Y-74201931D01*
X160859725Y-74160059D01*
X160842810Y-74129082D01*
X160793797Y-73997671D01*
X160793793Y-73997664D01*
X160707547Y-73882455D01*
X160707544Y-73882452D01*
X160592335Y-73796206D01*
X160592328Y-73796202D01*
X160457482Y-73745908D01*
X160457483Y-73745908D01*
X160397883Y-73739501D01*
X160397881Y-73739500D01*
X160397873Y-73739500D01*
X160397864Y-73739500D01*
X158602129Y-73739500D01*
X158602123Y-73739501D01*
X158542516Y-73745908D01*
X158407671Y-73796202D01*
X158407664Y-73796206D01*
X158292455Y-73882452D01*
X158292452Y-73882455D01*
X158206206Y-73997664D01*
X158206202Y-73997671D01*
X158155908Y-74132517D01*
X158149501Y-74192116D01*
X158149500Y-74192135D01*
X158149500Y-75987870D01*
X158149501Y-75987876D01*
X158155908Y-76047483D01*
X158206202Y-76182328D01*
X158206206Y-76182335D01*
X158292452Y-76297544D01*
X158292455Y-76297547D01*
X158407664Y-76383793D01*
X158407671Y-76383797D01*
X158539081Y-76432810D01*
X158595015Y-76474681D01*
X158619432Y-76540145D01*
X158604580Y-76608418D01*
X158583430Y-76636673D01*
X158461503Y-76758600D01*
X158325965Y-76952169D01*
X158325964Y-76952171D01*
X158226098Y-77166335D01*
X158226094Y-77166344D01*
X158164938Y-77394586D01*
X158164936Y-77394596D01*
X158144341Y-77629999D01*
X151764439Y-77629999D01*
X151765565Y-77620003D01*
X151765565Y-77619996D01*
X151745369Y-77440750D01*
X151745368Y-77440745D01*
X151685788Y-77270476D01*
X151622955Y-77170478D01*
X151589816Y-77117738D01*
X151462262Y-76990184D01*
X151401762Y-76952169D01*
X151309523Y-76894211D01*
X151139254Y-76834631D01*
X151139249Y-76834630D01*
X150960004Y-76814435D01*
X150959996Y-76814435D01*
X150780750Y-76834630D01*
X150780745Y-76834631D01*
X150610476Y-76894211D01*
X150457737Y-76990184D01*
X150330184Y-77117737D01*
X150234211Y-77270476D01*
X150174631Y-77440745D01*
X150174630Y-77440750D01*
X150154435Y-77619996D01*
X118609430Y-77619996D01*
X118739249Y-77605369D01*
X118739252Y-77605368D01*
X118739255Y-77605368D01*
X118909522Y-77545789D01*
X119062262Y-77449816D01*
X119189816Y-77322262D01*
X119285789Y-77169522D01*
X119345368Y-76999255D01*
X119350673Y-76952171D01*
X119365565Y-76820003D01*
X119365565Y-76819996D01*
X119345369Y-76640750D01*
X119345368Y-76640745D01*
X119334056Y-76608418D01*
X119285789Y-76470478D01*
X119189816Y-76317738D01*
X119062262Y-76190184D01*
X119049759Y-76182328D01*
X118909523Y-76094211D01*
X118739254Y-76034631D01*
X118739249Y-76034630D01*
X118560004Y-76014435D01*
X118559996Y-76014435D01*
X118380750Y-76034630D01*
X118380745Y-76034631D01*
X118210476Y-76094211D01*
X118057737Y-76190184D01*
X117930184Y-76317737D01*
X117834211Y-76470476D01*
X117774631Y-76640745D01*
X117774630Y-76640750D01*
X117754435Y-76819996D01*
X111950559Y-76819996D01*
X111909523Y-76794211D01*
X111739254Y-76734631D01*
X111739249Y-76734630D01*
X111560004Y-76714435D01*
X111559996Y-76714435D01*
X111380750Y-76734630D01*
X111380745Y-76734631D01*
X111210476Y-76794211D01*
X111057737Y-76890184D01*
X110930184Y-77017737D01*
X110834211Y-77170476D01*
X110774631Y-77340745D01*
X110774630Y-77340750D01*
X110754435Y-77519996D01*
X103510000Y-77519996D01*
X103510000Y-77120027D01*
X103509999Y-77120014D01*
X103499506Y-77017310D01*
X103499505Y-77017303D01*
X103444358Y-76850881D01*
X103444356Y-76850876D01*
X103352315Y-76701655D01*
X103228344Y-76577684D01*
X103079123Y-76485643D01*
X103079118Y-76485641D01*
X102912696Y-76430494D01*
X102912689Y-76430493D01*
X102809985Y-76420000D01*
X102210000Y-76420000D01*
X102210000Y-77479252D01*
X102172292Y-77457482D01*
X102032409Y-77420000D01*
X101887591Y-77420000D01*
X101747708Y-77457482D01*
X101710000Y-77479252D01*
X101710000Y-76420000D01*
X101110014Y-76420000D01*
X101007310Y-76430493D01*
X101007303Y-76430494D01*
X100840881Y-76485641D01*
X100840876Y-76485643D01*
X100691655Y-76577684D01*
X100567684Y-76701655D01*
X100475643Y-76850876D01*
X100475641Y-76850881D01*
X100420494Y-77017303D01*
X100420493Y-77017310D01*
X100410000Y-77120014D01*
X98070500Y-77120014D01*
X98070500Y-72119984D01*
X100409500Y-72119984D01*
X100409500Y-73820015D01*
X100420000Y-73922795D01*
X100420001Y-73922796D01*
X100475186Y-74089335D01*
X100475187Y-74089337D01*
X100567286Y-74238651D01*
X100567289Y-74238655D01*
X100691344Y-74362710D01*
X100691348Y-74362713D01*
X100840662Y-74454812D01*
X100840664Y-74454813D01*
X100840666Y-74454814D01*
X101007203Y-74509999D01*
X101109992Y-74520500D01*
X101109997Y-74520500D01*
X102810003Y-74520500D01*
X102810008Y-74520500D01*
X102912797Y-74509999D01*
X103079334Y-74454814D01*
X103228655Y-74362711D01*
X103352711Y-74238655D01*
X103444814Y-74089334D01*
X103499999Y-73922797D01*
X103510500Y-73820008D01*
X103510500Y-72119992D01*
X103499999Y-72017203D01*
X103444814Y-71850666D01*
X103377016Y-71740750D01*
X103352713Y-71701348D01*
X103352710Y-71701344D01*
X103228655Y-71577289D01*
X103228651Y-71577286D01*
X103079337Y-71485187D01*
X103079335Y-71485186D01*
X102996065Y-71457593D01*
X102912797Y-71430001D01*
X102912795Y-71430000D01*
X102810015Y-71419500D01*
X102810008Y-71419500D01*
X101109992Y-71419500D01*
X101109984Y-71419500D01*
X101007204Y-71430000D01*
X101007203Y-71430001D01*
X100840664Y-71485186D01*
X100840662Y-71485187D01*
X100691348Y-71577286D01*
X100691344Y-71577289D01*
X100567289Y-71701344D01*
X100567286Y-71701348D01*
X100475187Y-71850662D01*
X100475186Y-71850664D01*
X100420001Y-72017203D01*
X100420000Y-72017204D01*
X100409500Y-72119984D01*
X98070500Y-72119984D01*
X98070500Y-62764996D01*
X110809435Y-62764996D01*
X110809435Y-62765003D01*
X110829630Y-62944249D01*
X110829631Y-62944254D01*
X110889211Y-63114523D01*
X110981501Y-63261401D01*
X110985184Y-63267262D01*
X111112738Y-63394816D01*
X111265478Y-63490789D01*
X111435745Y-63550368D01*
X111435750Y-63550369D01*
X111614996Y-63570565D01*
X111615000Y-63570565D01*
X111615004Y-63570565D01*
X111794249Y-63550369D01*
X111794252Y-63550368D01*
X111794255Y-63550368D01*
X111964522Y-63490789D01*
X112117262Y-63394816D01*
X112244816Y-63267262D01*
X112340789Y-63114522D01*
X112363161Y-63050587D01*
X112403883Y-62993811D01*
X112468836Y-62968063D01*
X112537397Y-62981519D01*
X112587800Y-63029906D01*
X112592582Y-63039130D01*
X112605965Y-63067830D01*
X112605967Y-63067834D01*
X112741501Y-63261395D01*
X112741506Y-63261402D01*
X112908597Y-63428493D01*
X112908603Y-63428498D01*
X113094158Y-63558425D01*
X113137783Y-63613002D01*
X113144977Y-63682500D01*
X113113454Y-63744855D01*
X113094158Y-63761575D01*
X112908597Y-63891505D01*
X112741505Y-64058597D01*
X112605965Y-64252169D01*
X112605964Y-64252171D01*
X112506098Y-64466335D01*
X112506094Y-64466344D01*
X112444938Y-64694586D01*
X112444936Y-64694596D01*
X112424341Y-64929999D01*
X112424341Y-64930000D01*
X112444936Y-65165403D01*
X112444938Y-65165413D01*
X112506094Y-65393655D01*
X112506096Y-65393659D01*
X112506097Y-65393663D01*
X112549311Y-65486335D01*
X112605965Y-65607830D01*
X112605967Y-65607834D01*
X112741501Y-65801395D01*
X112741506Y-65801402D01*
X112908597Y-65968493D01*
X112908603Y-65968498D01*
X113094158Y-66098425D01*
X113137783Y-66153002D01*
X113144977Y-66222500D01*
X113113454Y-66284855D01*
X113094158Y-66301575D01*
X112908597Y-66431505D01*
X112741505Y-66598597D01*
X112605965Y-66792169D01*
X112605964Y-66792171D01*
X112506098Y-67006335D01*
X112506094Y-67006344D01*
X112444938Y-67234586D01*
X112444936Y-67234596D01*
X112424341Y-67469999D01*
X112424341Y-67470000D01*
X112444936Y-67705403D01*
X112444938Y-67705413D01*
X112506094Y-67933655D01*
X112506096Y-67933659D01*
X112506097Y-67933663D01*
X112549311Y-68026335D01*
X112605965Y-68147830D01*
X112605967Y-68147834D01*
X112741501Y-68341395D01*
X112741506Y-68341402D01*
X112908597Y-68508493D01*
X112908603Y-68508498D01*
X113094594Y-68638730D01*
X113138219Y-68693307D01*
X113145413Y-68762805D01*
X113113890Y-68825160D01*
X113094595Y-68841880D01*
X112908922Y-68971890D01*
X112908920Y-68971891D01*
X112741891Y-69138920D01*
X112741886Y-69138926D01*
X112606400Y-69332420D01*
X112606399Y-69332422D01*
X112506570Y-69546507D01*
X112506567Y-69546513D01*
X112449364Y-69759999D01*
X112449364Y-69760000D01*
X113346988Y-69760000D01*
X113314075Y-69817007D01*
X113280000Y-69944174D01*
X113280000Y-70075826D01*
X113314075Y-70202993D01*
X113346988Y-70260000D01*
X112449364Y-70260000D01*
X112506567Y-70473486D01*
X112506570Y-70473492D01*
X112606399Y-70687578D01*
X112741894Y-70881082D01*
X112908917Y-71048105D01*
X113095031Y-71178425D01*
X113138656Y-71233003D01*
X113145848Y-71302501D01*
X113114326Y-71364856D01*
X113095031Y-71381575D01*
X112908922Y-71511890D01*
X112908920Y-71511891D01*
X112741891Y-71678920D01*
X112741886Y-71678926D01*
X112606400Y-71872420D01*
X112606399Y-71872422D01*
X112506570Y-72086507D01*
X112506567Y-72086513D01*
X112449364Y-72299999D01*
X112449364Y-72300000D01*
X113346988Y-72300000D01*
X113314075Y-72357007D01*
X113280000Y-72484174D01*
X113280000Y-72615826D01*
X113314075Y-72742993D01*
X113346988Y-72800000D01*
X112449364Y-72800000D01*
X112506567Y-73013486D01*
X112506570Y-73013492D01*
X112606399Y-73227578D01*
X112741894Y-73421082D01*
X112908917Y-73588105D01*
X113094595Y-73718119D01*
X113138219Y-73772696D01*
X113145412Y-73842195D01*
X113113890Y-73904549D01*
X113094595Y-73921269D01*
X112908594Y-74051508D01*
X112741505Y-74218597D01*
X112605965Y-74412169D01*
X112605964Y-74412171D01*
X112506098Y-74626335D01*
X112506094Y-74626344D01*
X112444938Y-74854586D01*
X112444936Y-74854596D01*
X112424341Y-75089999D01*
X112424341Y-75090000D01*
X112444936Y-75325403D01*
X112444938Y-75325413D01*
X112506094Y-75553655D01*
X112506096Y-75553659D01*
X112506097Y-75553663D01*
X112510000Y-75562032D01*
X112605965Y-75767830D01*
X112605967Y-75767834D01*
X112714281Y-75922521D01*
X112741505Y-75961401D01*
X112908599Y-76128495D01*
X112996700Y-76190184D01*
X113102165Y-76264032D01*
X113102167Y-76264033D01*
X113102170Y-76264035D01*
X113316337Y-76363903D01*
X113544592Y-76425063D01*
X113721034Y-76440500D01*
X113779999Y-76445659D01*
X113780000Y-76445659D01*
X113780001Y-76445659D01*
X113838966Y-76440500D01*
X114015408Y-76425063D01*
X114243663Y-76363903D01*
X114457830Y-76264035D01*
X114651401Y-76128495D01*
X114818495Y-75961401D01*
X114948425Y-75775842D01*
X115003002Y-75732217D01*
X115072500Y-75725023D01*
X115134855Y-75756546D01*
X115151575Y-75775842D01*
X115281500Y-75961395D01*
X115281505Y-75961401D01*
X115448599Y-76128495D01*
X115536700Y-76190184D01*
X115642165Y-76264032D01*
X115642167Y-76264033D01*
X115642170Y-76264035D01*
X115856337Y-76363903D01*
X116084592Y-76425063D01*
X116261034Y-76440500D01*
X116319999Y-76445659D01*
X116320000Y-76445659D01*
X116320001Y-76445659D01*
X116378966Y-76440500D01*
X116555408Y-76425063D01*
X116783663Y-76363903D01*
X116997830Y-76264035D01*
X117191401Y-76128495D01*
X117358495Y-75961401D01*
X117494035Y-75767830D01*
X117593903Y-75553663D01*
X117655063Y-75325408D01*
X117675659Y-75090000D01*
X117655063Y-74854592D01*
X117593903Y-74626337D01*
X117494035Y-74412171D01*
X117484992Y-74399255D01*
X117359474Y-74219996D01*
X119854435Y-74219996D01*
X119854435Y-74220003D01*
X119874630Y-74399249D01*
X119874631Y-74399254D01*
X119934211Y-74569523D01*
X120030184Y-74722262D01*
X120157738Y-74849816D01*
X120310478Y-74945789D01*
X120480745Y-75005368D01*
X120480750Y-75005369D01*
X120659996Y-75025565D01*
X120660000Y-75025565D01*
X120660004Y-75025565D01*
X120839249Y-75005369D01*
X120839252Y-75005368D01*
X120839255Y-75005368D01*
X121009522Y-74945789D01*
X121162262Y-74849816D01*
X121289816Y-74722262D01*
X121385789Y-74569522D01*
X121445368Y-74399255D01*
X121445369Y-74399249D01*
X121465565Y-74220003D01*
X121465565Y-74219996D01*
X121445369Y-74040750D01*
X121445368Y-74040745D01*
X121404096Y-73922796D01*
X121385789Y-73870478D01*
X121383602Y-73866998D01*
X121339121Y-73796206D01*
X121289816Y-73717738D01*
X121162262Y-73590184D01*
X121158953Y-73588105D01*
X121009523Y-73494211D01*
X120839254Y-73434631D01*
X120839249Y-73434630D01*
X120660004Y-73414435D01*
X120659996Y-73414435D01*
X120480750Y-73434630D01*
X120480745Y-73434631D01*
X120310476Y-73494211D01*
X120157737Y-73590184D01*
X120030184Y-73717737D01*
X119934211Y-73870476D01*
X119874631Y-74040745D01*
X119874630Y-74040750D01*
X119854435Y-74219996D01*
X117359474Y-74219996D01*
X117358494Y-74218597D01*
X117191402Y-74051506D01*
X117191396Y-74051501D01*
X117005842Y-73921575D01*
X116962217Y-73866998D01*
X116955023Y-73797500D01*
X116986546Y-73735145D01*
X117005842Y-73718425D01*
X117028026Y-73702891D01*
X117191401Y-73588495D01*
X117358495Y-73421401D01*
X117494035Y-73227830D01*
X117593903Y-73013663D01*
X117655063Y-72785408D01*
X117675659Y-72550000D01*
X117655063Y-72314592D01*
X117593903Y-72086337D01*
X117516336Y-71919996D01*
X153854432Y-71919996D01*
X153854432Y-71920003D01*
X153874627Y-72099249D01*
X153874628Y-72099254D01*
X153934208Y-72269523D01*
X153994239Y-72365061D01*
X154030181Y-72422262D01*
X154157735Y-72549816D01*
X154158028Y-72550000D01*
X154306814Y-72643489D01*
X154310475Y-72645789D01*
X154394833Y-72675307D01*
X154480742Y-72705368D01*
X154480747Y-72705369D01*
X154659993Y-72725565D01*
X154659997Y-72725565D01*
X154660001Y-72725565D01*
X154839246Y-72705369D01*
X154839248Y-72705368D01*
X154839252Y-72705368D01*
X154839255Y-72705366D01*
X154839259Y-72705366D01*
X155016092Y-72643489D01*
X155016843Y-72645637D01*
X155075125Y-72636035D01*
X155103589Y-72644391D01*
X155103905Y-72643489D01*
X155280745Y-72705368D01*
X155280750Y-72705369D01*
X155459996Y-72725565D01*
X155460000Y-72725565D01*
X155460004Y-72725565D01*
X155639249Y-72705369D01*
X155639252Y-72705368D01*
X155639255Y-72705368D01*
X155809522Y-72645789D01*
X155962262Y-72549816D01*
X156089816Y-72422262D01*
X156185789Y-72269522D01*
X156245368Y-72099255D01*
X156246804Y-72086513D01*
X156265565Y-71920003D01*
X156265565Y-71919996D01*
X156245369Y-71740750D01*
X156245368Y-71740745D01*
X156233852Y-71707834D01*
X156185789Y-71570478D01*
X156089816Y-71417738D01*
X155962262Y-71290184D01*
X155922839Y-71265413D01*
X155809523Y-71194211D01*
X155639254Y-71134631D01*
X155639249Y-71134630D01*
X155460004Y-71114435D01*
X155459996Y-71114435D01*
X155280750Y-71134630D01*
X155280737Y-71134633D01*
X155103906Y-71196510D01*
X155103157Y-71194369D01*
X155044821Y-71203958D01*
X155016405Y-71195611D01*
X155016091Y-71196510D01*
X154839259Y-71134633D01*
X154839246Y-71134630D01*
X154660001Y-71114435D01*
X154659993Y-71114435D01*
X154480747Y-71134630D01*
X154480742Y-71134631D01*
X154310473Y-71194211D01*
X154157734Y-71290184D01*
X154030181Y-71417737D01*
X153934208Y-71570476D01*
X153874628Y-71740745D01*
X153874627Y-71740750D01*
X153854432Y-71919996D01*
X117516336Y-71919996D01*
X117494035Y-71872171D01*
X117478978Y-71850666D01*
X117358494Y-71678597D01*
X117191402Y-71511506D01*
X117191396Y-71511501D01*
X117005842Y-71381575D01*
X116962217Y-71326998D01*
X116955023Y-71257500D01*
X116986546Y-71195145D01*
X117005842Y-71178425D01*
X117068386Y-71134631D01*
X117191401Y-71048495D01*
X117358495Y-70881401D01*
X117494035Y-70687830D01*
X117593903Y-70473663D01*
X117655063Y-70245408D01*
X117675659Y-70010000D01*
X117655063Y-69774592D01*
X117593903Y-69546337D01*
X117494035Y-69332171D01*
X117378966Y-69167834D01*
X117358494Y-69138597D01*
X117191402Y-68971506D01*
X117191396Y-68971501D01*
X117005842Y-68841575D01*
X116962217Y-68786998D01*
X116955023Y-68717500D01*
X116986546Y-68655145D01*
X117005842Y-68638425D01*
X117028026Y-68622891D01*
X117191401Y-68508495D01*
X117358495Y-68341401D01*
X117494035Y-68147830D01*
X117593903Y-67933663D01*
X117655063Y-67705408D01*
X117675659Y-67470000D01*
X117655063Y-67234592D01*
X117593903Y-67006337D01*
X117494035Y-66792171D01*
X117378966Y-66627834D01*
X117358494Y-66598597D01*
X117191402Y-66431506D01*
X117191396Y-66431501D01*
X117005842Y-66301575D01*
X116962217Y-66246998D01*
X116955023Y-66177500D01*
X116986546Y-66115145D01*
X117005842Y-66098425D01*
X117028026Y-66082891D01*
X117191401Y-65968495D01*
X117358495Y-65801401D01*
X117494035Y-65607830D01*
X117593903Y-65393663D01*
X117655063Y-65165408D01*
X117675659Y-64930000D01*
X117655063Y-64694592D01*
X117593903Y-64466337D01*
X117494035Y-64252171D01*
X117378966Y-64087834D01*
X117358494Y-64058597D01*
X117191402Y-63891506D01*
X117191396Y-63891501D01*
X117005842Y-63761575D01*
X116962217Y-63706998D01*
X116955023Y-63637500D01*
X116986546Y-63575145D01*
X117005842Y-63558425D01*
X117102437Y-63490788D01*
X117191401Y-63428495D01*
X117358495Y-63261401D01*
X117494035Y-63067830D01*
X117593903Y-62853663D01*
X117655063Y-62625408D01*
X117675659Y-62390000D01*
X117655063Y-62154592D01*
X117608183Y-61979630D01*
X117593905Y-61926344D01*
X117593904Y-61926343D01*
X117593903Y-61926337D01*
X117497684Y-61719996D01*
X138454435Y-61719996D01*
X138454435Y-61720003D01*
X138474630Y-61899249D01*
X138474631Y-61899254D01*
X138534211Y-62069523D01*
X138592633Y-62162500D01*
X138630184Y-62222262D01*
X138757738Y-62349816D01*
X138910478Y-62445789D01*
X139080745Y-62505368D01*
X139080750Y-62505369D01*
X139259996Y-62525565D01*
X139260000Y-62525565D01*
X139260004Y-62525565D01*
X139439249Y-62505369D01*
X139439252Y-62505368D01*
X139439255Y-62505368D01*
X139609522Y-62445789D01*
X139762262Y-62349816D01*
X139889816Y-62222262D01*
X139985789Y-62069522D01*
X140045368Y-61899255D01*
X140063154Y-61741401D01*
X140065565Y-61720003D01*
X140065565Y-61719996D01*
X140045369Y-61540750D01*
X140045368Y-61540745D01*
X139985788Y-61370476D01*
X139889815Y-61217737D01*
X139762262Y-61090184D01*
X139609523Y-60994211D01*
X139439254Y-60934631D01*
X139439249Y-60934630D01*
X139260004Y-60914435D01*
X139259996Y-60914435D01*
X139080750Y-60934630D01*
X139080745Y-60934631D01*
X138910476Y-60994211D01*
X138757737Y-61090184D01*
X138630184Y-61217737D01*
X138534211Y-61370476D01*
X138474631Y-61540745D01*
X138474630Y-61540750D01*
X138454435Y-61719996D01*
X117497684Y-61719996D01*
X117494035Y-61712171D01*
X117378966Y-61547834D01*
X117358494Y-61518597D01*
X117191402Y-61351506D01*
X117191396Y-61351501D01*
X117005842Y-61221575D01*
X116962217Y-61166998D01*
X116955023Y-61097500D01*
X116986546Y-61035145D01*
X117005842Y-61018425D01*
X117040423Y-60994211D01*
X117191401Y-60888495D01*
X117358495Y-60721401D01*
X117494035Y-60527830D01*
X117593903Y-60313663D01*
X117655063Y-60085408D01*
X117675659Y-59850000D01*
X117655063Y-59614592D01*
X117593903Y-59386337D01*
X117494035Y-59172171D01*
X117467750Y-59134631D01*
X117358494Y-58978597D01*
X117299893Y-58919996D01*
X124854435Y-58919996D01*
X124854435Y-58920003D01*
X124874630Y-59099249D01*
X124874631Y-59099254D01*
X124934211Y-59269523D01*
X125007611Y-59386337D01*
X125030184Y-59422262D01*
X125157738Y-59549816D01*
X125310478Y-59645789D01*
X125453873Y-59695965D01*
X125480745Y-59705368D01*
X125480750Y-59705369D01*
X125659996Y-59725565D01*
X125660000Y-59725565D01*
X125660004Y-59725565D01*
X125839249Y-59705369D01*
X125839252Y-59705368D01*
X125839255Y-59705368D01*
X126009522Y-59645789D01*
X126162262Y-59549816D01*
X126289816Y-59422262D01*
X126385789Y-59269522D01*
X126445368Y-59099255D01*
X126455669Y-59007830D01*
X126465565Y-58920003D01*
X126465565Y-58919996D01*
X126445369Y-58740750D01*
X126445368Y-58740745D01*
X126385789Y-58570478D01*
X126382606Y-58565413D01*
X126289815Y-58417737D01*
X126162262Y-58290184D01*
X126009523Y-58194211D01*
X125839254Y-58134631D01*
X125839249Y-58134630D01*
X125660004Y-58114435D01*
X125659996Y-58114435D01*
X125480750Y-58134630D01*
X125480745Y-58134631D01*
X125310476Y-58194211D01*
X125157737Y-58290184D01*
X125030184Y-58417737D01*
X124934211Y-58570476D01*
X124874631Y-58740745D01*
X124874630Y-58740750D01*
X124854435Y-58919996D01*
X117299893Y-58919996D01*
X117191402Y-58811506D01*
X117191396Y-58811501D01*
X117005842Y-58681575D01*
X116962217Y-58626998D01*
X116955023Y-58557500D01*
X116986546Y-58495145D01*
X117005842Y-58478425D01*
X117092513Y-58417737D01*
X117191401Y-58348495D01*
X117358495Y-58181401D01*
X117494035Y-57987830D01*
X117593903Y-57773663D01*
X117655063Y-57545408D01*
X117675659Y-57310000D01*
X117655063Y-57074592D01*
X117593903Y-56846337D01*
X117494035Y-56632171D01*
X117378966Y-56467834D01*
X117358494Y-56438597D01*
X117191402Y-56271506D01*
X117191395Y-56271501D01*
X117165908Y-56253655D01*
X117114518Y-56217671D01*
X116997834Y-56135967D01*
X116997830Y-56135965D01*
X116997828Y-56135964D01*
X116783663Y-56036097D01*
X116783659Y-56036096D01*
X116783655Y-56036094D01*
X116555413Y-55974938D01*
X116555403Y-55974936D01*
X116320001Y-55954341D01*
X116319999Y-55954341D01*
X116084596Y-55974936D01*
X116084586Y-55974938D01*
X115856344Y-56036094D01*
X115856335Y-56036098D01*
X115642171Y-56135964D01*
X115642169Y-56135965D01*
X115448600Y-56271503D01*
X115326673Y-56393430D01*
X115265350Y-56426914D01*
X115195658Y-56421930D01*
X115139725Y-56380058D01*
X115122810Y-56349081D01*
X115073797Y-56217671D01*
X115073793Y-56217664D01*
X114987547Y-56102455D01*
X114987544Y-56102452D01*
X114872335Y-56016206D01*
X114872328Y-56016202D01*
X114737482Y-55965908D01*
X114737483Y-55965908D01*
X114677883Y-55959501D01*
X114677881Y-55959500D01*
X114677873Y-55959500D01*
X114677864Y-55959500D01*
X112882129Y-55959500D01*
X112882123Y-55959501D01*
X112822516Y-55965908D01*
X112687671Y-56016202D01*
X112687664Y-56016206D01*
X112572455Y-56102452D01*
X112572452Y-56102455D01*
X112486206Y-56217664D01*
X112486202Y-56217671D01*
X112435908Y-56352517D01*
X112429501Y-56412116D01*
X112429500Y-56412135D01*
X112429500Y-58207870D01*
X112429501Y-58207876D01*
X112435908Y-58267483D01*
X112486202Y-58402328D01*
X112486206Y-58402335D01*
X112572452Y-58517544D01*
X112572455Y-58517547D01*
X112687664Y-58603793D01*
X112687671Y-58603797D01*
X112819081Y-58652810D01*
X112875015Y-58694681D01*
X112899432Y-58760145D01*
X112884580Y-58828418D01*
X112863430Y-58856673D01*
X112741503Y-58978600D01*
X112605965Y-59172169D01*
X112605964Y-59172171D01*
X112506098Y-59386335D01*
X112506094Y-59386344D01*
X112444938Y-59614586D01*
X112444936Y-59614596D01*
X112424341Y-59849999D01*
X112424341Y-59850000D01*
X112444936Y-60085403D01*
X112444938Y-60085413D01*
X112506094Y-60313655D01*
X112506096Y-60313659D01*
X112506097Y-60313663D01*
X112549311Y-60406335D01*
X112605965Y-60527830D01*
X112605967Y-60527834D01*
X112741501Y-60721395D01*
X112741506Y-60721402D01*
X112908597Y-60888493D01*
X112908603Y-60888498D01*
X113094158Y-61018425D01*
X113137783Y-61073002D01*
X113144977Y-61142500D01*
X113113454Y-61204855D01*
X113094158Y-61221575D01*
X112908597Y-61351505D01*
X112741505Y-61518597D01*
X112605965Y-61712169D01*
X112605964Y-61712171D01*
X112506098Y-61926335D01*
X112506094Y-61926344D01*
X112444938Y-62154586D01*
X112444936Y-62154596D01*
X112443313Y-62173154D01*
X112417860Y-62238222D01*
X112361268Y-62279200D01*
X112291506Y-62283077D01*
X112232104Y-62250026D01*
X112117262Y-62135184D01*
X111964523Y-62039211D01*
X111794254Y-61979631D01*
X111794249Y-61979630D01*
X111615004Y-61959435D01*
X111614996Y-61959435D01*
X111435750Y-61979630D01*
X111435745Y-61979631D01*
X111265476Y-62039211D01*
X111112737Y-62135184D01*
X110985184Y-62262737D01*
X110889211Y-62415476D01*
X110829631Y-62585745D01*
X110829630Y-62585750D01*
X110809435Y-62764996D01*
X98070500Y-62764996D01*
X98070500Y-59919996D01*
X100654435Y-59919996D01*
X100654435Y-59920003D01*
X100674630Y-60099249D01*
X100674631Y-60099254D01*
X100734211Y-60269523D01*
X100761947Y-60313664D01*
X100830184Y-60422262D01*
X100957738Y-60549816D01*
X101048080Y-60606582D01*
X101092648Y-60634586D01*
X101110478Y-60645789D01*
X101280745Y-60705368D01*
X101280750Y-60705369D01*
X101459996Y-60725565D01*
X101460000Y-60725565D01*
X101460004Y-60725565D01*
X101639249Y-60705369D01*
X101639252Y-60705368D01*
X101639255Y-60705368D01*
X101809522Y-60645789D01*
X101962262Y-60549816D01*
X102089816Y-60422262D01*
X102185789Y-60269522D01*
X102245368Y-60099255D01*
X102256709Y-59998599D01*
X102265565Y-59920003D01*
X102265565Y-59919996D01*
X102245369Y-59740750D01*
X102245368Y-59740745D01*
X102225811Y-59684855D01*
X102185789Y-59570478D01*
X102089816Y-59417738D01*
X101962262Y-59290184D01*
X101929379Y-59269522D01*
X101809523Y-59194211D01*
X101639254Y-59134631D01*
X101639249Y-59134630D01*
X101460004Y-59114435D01*
X101459996Y-59114435D01*
X101280750Y-59134630D01*
X101280745Y-59134631D01*
X101110476Y-59194211D01*
X100957737Y-59290184D01*
X100830184Y-59417737D01*
X100734211Y-59570476D01*
X100674631Y-59740745D01*
X100674630Y-59740750D01*
X100654435Y-59919996D01*
X98070500Y-59919996D01*
X98070500Y-53519996D01*
X143054435Y-53519996D01*
X143054435Y-53520003D01*
X143074630Y-53699249D01*
X143074631Y-53699254D01*
X143134211Y-53869523D01*
X143170848Y-53927830D01*
X143230184Y-54022262D01*
X143357738Y-54149816D01*
X143510478Y-54245789D01*
X143680745Y-54305368D01*
X143680750Y-54305369D01*
X143859996Y-54325565D01*
X143860000Y-54325565D01*
X143860004Y-54325565D01*
X144039249Y-54305369D01*
X144039252Y-54305368D01*
X144039255Y-54305368D01*
X144209522Y-54245789D01*
X144362262Y-54149816D01*
X144489816Y-54022262D01*
X144585789Y-53869522D01*
X144645368Y-53699255D01*
X144665565Y-53520000D01*
X144661667Y-53485408D01*
X144645369Y-53340750D01*
X144645368Y-53340745D01*
X144613615Y-53250000D01*
X144585789Y-53170478D01*
X144489816Y-53017738D01*
X144362262Y-52890184D01*
X144317909Y-52862315D01*
X144209523Y-52794211D01*
X144039254Y-52734631D01*
X144039249Y-52734630D01*
X143860004Y-52714435D01*
X143859996Y-52714435D01*
X143680750Y-52734630D01*
X143680745Y-52734631D01*
X143510476Y-52794211D01*
X143357737Y-52890184D01*
X143230184Y-53017737D01*
X143134211Y-53170476D01*
X143074631Y-53340745D01*
X143074630Y-53340750D01*
X143054435Y-53519996D01*
X98070500Y-53519996D01*
X98070500Y-50620014D01*
X111410000Y-50620014D01*
X111410000Y-51220000D01*
X112469252Y-51220000D01*
X112447482Y-51257708D01*
X112410000Y-51397591D01*
X112410000Y-51542409D01*
X112447482Y-51682292D01*
X112469252Y-51720000D01*
X111410000Y-51720000D01*
X111410000Y-52319985D01*
X111420493Y-52422689D01*
X111420494Y-52422696D01*
X111475641Y-52589118D01*
X111475643Y-52589123D01*
X111567684Y-52738344D01*
X111691655Y-52862315D01*
X111840876Y-52954356D01*
X111840881Y-52954358D01*
X112007303Y-53009505D01*
X112007310Y-53009506D01*
X112110014Y-53019999D01*
X112110027Y-53020000D01*
X112710000Y-53020000D01*
X112710000Y-51960747D01*
X112747708Y-51982518D01*
X112887591Y-52020000D01*
X113032409Y-52020000D01*
X113172292Y-51982518D01*
X113210000Y-51960747D01*
X113210000Y-53020000D01*
X113809973Y-53020000D01*
X113809985Y-53019999D01*
X113912689Y-53009506D01*
X113912696Y-53009505D01*
X114079118Y-52954358D01*
X114079123Y-52954356D01*
X114228344Y-52862315D01*
X114352315Y-52738344D01*
X114444356Y-52589123D01*
X114444358Y-52589118D01*
X114499505Y-52422696D01*
X114499506Y-52422689D01*
X114509999Y-52319985D01*
X114510000Y-52319972D01*
X114510000Y-51720000D01*
X113450748Y-51720000D01*
X113472518Y-51682292D01*
X113510000Y-51542409D01*
X113510000Y-51397591D01*
X113472518Y-51257708D01*
X113450748Y-51220000D01*
X114510000Y-51220000D01*
X114510000Y-50620027D01*
X114509999Y-50620014D01*
X117410000Y-50620014D01*
X117410000Y-51220000D01*
X118469252Y-51220000D01*
X118447482Y-51257708D01*
X118410000Y-51397591D01*
X118410000Y-51542409D01*
X118447482Y-51682292D01*
X118469252Y-51720000D01*
X117410000Y-51720000D01*
X117410000Y-52319985D01*
X117420493Y-52422689D01*
X117420494Y-52422696D01*
X117475641Y-52589118D01*
X117475643Y-52589123D01*
X117567684Y-52738344D01*
X117691655Y-52862315D01*
X117840876Y-52954356D01*
X117840881Y-52954358D01*
X118007303Y-53009505D01*
X118007310Y-53009506D01*
X118110014Y-53019999D01*
X118110027Y-53020000D01*
X118710000Y-53020000D01*
X118710000Y-51960747D01*
X118747708Y-51982518D01*
X118887591Y-52020000D01*
X119032409Y-52020000D01*
X119172292Y-51982518D01*
X119210000Y-51960747D01*
X119210000Y-53020000D01*
X119809973Y-53020000D01*
X119809985Y-53019999D01*
X119912689Y-53009506D01*
X119912696Y-53009505D01*
X120079118Y-52954358D01*
X120079123Y-52954356D01*
X120228344Y-52862315D01*
X120352315Y-52738344D01*
X120444356Y-52589123D01*
X120444358Y-52589118D01*
X120499505Y-52422696D01*
X120499506Y-52422689D01*
X120509999Y-52319985D01*
X120510000Y-52319972D01*
X120510000Y-51720000D01*
X119450748Y-51720000D01*
X119472518Y-51682292D01*
X119510000Y-51542409D01*
X119510000Y-51397591D01*
X119472518Y-51257708D01*
X119450748Y-51220000D01*
X120510000Y-51220000D01*
X120510000Y-50620027D01*
X120509999Y-50620014D01*
X120500804Y-50530014D01*
X149790000Y-50530014D01*
X149790000Y-51130000D01*
X150849252Y-51130000D01*
X150827482Y-51167708D01*
X150790000Y-51307591D01*
X150790000Y-51452409D01*
X150827482Y-51592292D01*
X150849252Y-51630000D01*
X149790000Y-51630000D01*
X149790000Y-52229985D01*
X149800493Y-52332689D01*
X149800494Y-52332696D01*
X149855641Y-52499118D01*
X149855643Y-52499123D01*
X149947684Y-52648344D01*
X150071655Y-52772315D01*
X150220876Y-52864356D01*
X150220881Y-52864358D01*
X150387303Y-52919505D01*
X150387310Y-52919506D01*
X150490014Y-52929999D01*
X150490027Y-52930000D01*
X151090000Y-52930000D01*
X151090000Y-51870747D01*
X151127708Y-51892518D01*
X151267591Y-51930000D01*
X151412409Y-51930000D01*
X151552292Y-51892518D01*
X151590000Y-51870747D01*
X151590000Y-52930000D01*
X152189973Y-52930000D01*
X152189985Y-52929999D01*
X152292689Y-52919506D01*
X152292696Y-52919505D01*
X152459118Y-52864358D01*
X152459123Y-52864356D01*
X152608344Y-52772315D01*
X152732315Y-52648344D01*
X152824356Y-52499123D01*
X152824358Y-52499118D01*
X152879505Y-52332696D01*
X152879506Y-52332689D01*
X152889999Y-52229985D01*
X152890000Y-52229972D01*
X152890000Y-51630000D01*
X151830748Y-51630000D01*
X151852518Y-51592292D01*
X151890000Y-51452409D01*
X151890000Y-51307591D01*
X151852518Y-51167708D01*
X151830748Y-51130000D01*
X152890000Y-51130000D01*
X152890000Y-50709999D01*
X158144341Y-50709999D01*
X158144341Y-50710000D01*
X158164936Y-50945403D01*
X158164938Y-50945413D01*
X158226094Y-51173655D01*
X158226096Y-51173659D01*
X158226097Y-51173663D01*
X158265288Y-51257708D01*
X158325965Y-51387830D01*
X158325967Y-51387834D01*
X158461501Y-51581395D01*
X158461506Y-51581402D01*
X158628597Y-51748493D01*
X158628603Y-51748498D01*
X158814158Y-51878425D01*
X158857783Y-51933002D01*
X158864977Y-52002500D01*
X158833454Y-52064855D01*
X158814158Y-52081575D01*
X158628597Y-52211505D01*
X158461505Y-52378597D01*
X158325965Y-52572169D01*
X158325964Y-52572171D01*
X158226098Y-52786335D01*
X158226094Y-52786344D01*
X158164938Y-53014586D01*
X158164936Y-53014596D01*
X158144341Y-53249999D01*
X158144341Y-53250000D01*
X158164936Y-53485403D01*
X158164938Y-53485413D01*
X158226094Y-53713655D01*
X158226096Y-53713659D01*
X158226097Y-53713663D01*
X158298776Y-53869523D01*
X158325965Y-53927830D01*
X158325967Y-53927834D01*
X158461501Y-54121395D01*
X158461506Y-54121402D01*
X158628597Y-54288493D01*
X158628603Y-54288498D01*
X158814158Y-54418425D01*
X158857783Y-54473002D01*
X158864977Y-54542500D01*
X158833454Y-54604855D01*
X158814158Y-54621575D01*
X158628597Y-54751505D01*
X158461505Y-54918597D01*
X158325965Y-55112169D01*
X158325964Y-55112171D01*
X158226098Y-55326335D01*
X158226094Y-55326344D01*
X158164938Y-55554586D01*
X158164936Y-55554596D01*
X158144341Y-55789999D01*
X158144341Y-55790000D01*
X158164936Y-56025403D01*
X158164938Y-56025413D01*
X158226094Y-56253655D01*
X158226096Y-56253659D01*
X158226097Y-56253663D01*
X158306886Y-56426914D01*
X158325965Y-56467830D01*
X158325967Y-56467834D01*
X158461501Y-56661395D01*
X158461506Y-56661402D01*
X158628597Y-56828493D01*
X158628603Y-56828498D01*
X158814158Y-56958425D01*
X158857783Y-57013002D01*
X158864977Y-57082500D01*
X158833454Y-57144855D01*
X158814158Y-57161575D01*
X158628597Y-57291505D01*
X158461505Y-57458597D01*
X158325965Y-57652169D01*
X158325964Y-57652171D01*
X158226098Y-57866335D01*
X158226094Y-57866344D01*
X158164938Y-58094586D01*
X158164936Y-58094596D01*
X158144341Y-58329999D01*
X158144341Y-58330000D01*
X158164936Y-58565403D01*
X158164938Y-58565413D01*
X158226094Y-58793655D01*
X158226096Y-58793659D01*
X158226097Y-58793663D01*
X158312333Y-58978597D01*
X158325965Y-59007830D01*
X158325967Y-59007834D01*
X158461501Y-59201395D01*
X158461506Y-59201402D01*
X158628597Y-59368493D01*
X158628603Y-59368498D01*
X158814158Y-59498425D01*
X158857783Y-59553002D01*
X158864977Y-59622500D01*
X158833454Y-59684855D01*
X158814158Y-59701575D01*
X158628597Y-59831505D01*
X158461505Y-59998597D01*
X158325965Y-60192169D01*
X158325964Y-60192171D01*
X158226098Y-60406335D01*
X158226094Y-60406344D01*
X158164938Y-60634586D01*
X158164936Y-60634596D01*
X158144341Y-60869999D01*
X158144341Y-60870000D01*
X158164936Y-61105403D01*
X158164938Y-61105413D01*
X158226094Y-61333655D01*
X158226096Y-61333659D01*
X158226097Y-61333663D01*
X158312333Y-61518597D01*
X158325965Y-61547830D01*
X158325967Y-61547834D01*
X158461501Y-61741395D01*
X158461506Y-61741402D01*
X158628597Y-61908493D01*
X158628603Y-61908498D01*
X158814158Y-62038425D01*
X158857783Y-62093002D01*
X158864977Y-62162500D01*
X158833454Y-62224855D01*
X158814158Y-62241575D01*
X158628597Y-62371505D01*
X158461505Y-62538597D01*
X158325965Y-62732169D01*
X158325964Y-62732171D01*
X158226098Y-62946335D01*
X158226094Y-62946344D01*
X158164938Y-63174586D01*
X158164936Y-63174596D01*
X158144341Y-63409999D01*
X158144341Y-63410000D01*
X158164936Y-63645403D01*
X158164938Y-63645413D01*
X158226094Y-63873655D01*
X158226096Y-63873659D01*
X158226097Y-63873663D01*
X158312333Y-64058597D01*
X158325965Y-64087830D01*
X158325967Y-64087834D01*
X158461501Y-64281395D01*
X158461506Y-64281402D01*
X158628597Y-64448493D01*
X158628603Y-64448498D01*
X158814158Y-64578425D01*
X158857783Y-64633002D01*
X158864977Y-64702500D01*
X158833454Y-64764855D01*
X158814158Y-64781575D01*
X158628597Y-64911505D01*
X158461505Y-65078597D01*
X158325965Y-65272169D01*
X158325964Y-65272171D01*
X158226098Y-65486335D01*
X158226094Y-65486344D01*
X158164938Y-65714586D01*
X158164936Y-65714596D01*
X158144341Y-65949999D01*
X158144341Y-65950000D01*
X158164936Y-66185403D01*
X158164938Y-66185413D01*
X158226094Y-66413655D01*
X158226096Y-66413659D01*
X158226097Y-66413663D01*
X158312333Y-66598597D01*
X158325965Y-66627830D01*
X158325967Y-66627834D01*
X158461501Y-66821395D01*
X158461506Y-66821402D01*
X158628597Y-66988493D01*
X158628603Y-66988498D01*
X158814158Y-67118425D01*
X158857783Y-67173002D01*
X158864977Y-67242500D01*
X158833454Y-67304855D01*
X158814158Y-67321575D01*
X158628597Y-67451505D01*
X158461505Y-67618597D01*
X158325965Y-67812169D01*
X158325964Y-67812171D01*
X158226098Y-68026335D01*
X158226094Y-68026344D01*
X158164938Y-68254586D01*
X158164936Y-68254596D01*
X158144341Y-68489999D01*
X158144341Y-68490000D01*
X158164936Y-68725403D01*
X158164938Y-68725413D01*
X158226094Y-68953655D01*
X158226096Y-68953659D01*
X158226097Y-68953663D01*
X158234597Y-68971891D01*
X158325965Y-69167830D01*
X158325967Y-69167834D01*
X158461501Y-69361395D01*
X158461506Y-69361402D01*
X158628597Y-69528493D01*
X158628603Y-69528498D01*
X158814158Y-69658425D01*
X158857783Y-69713002D01*
X158864977Y-69782500D01*
X158833454Y-69844855D01*
X158814158Y-69861575D01*
X158628597Y-69991505D01*
X158461505Y-70158597D01*
X158325965Y-70352169D01*
X158325964Y-70352171D01*
X158226098Y-70566335D01*
X158226094Y-70566344D01*
X158164938Y-70794586D01*
X158164936Y-70794596D01*
X158144341Y-71029999D01*
X158144341Y-71030000D01*
X158164936Y-71265403D01*
X158164938Y-71265413D01*
X158226094Y-71493655D01*
X158226096Y-71493659D01*
X158226097Y-71493663D01*
X158234597Y-71511891D01*
X158325965Y-71707830D01*
X158325967Y-71707834D01*
X158425980Y-71850666D01*
X158461505Y-71901401D01*
X158628599Y-72068495D01*
X158725384Y-72136265D01*
X158822165Y-72204032D01*
X158822167Y-72204033D01*
X158822170Y-72204035D01*
X159036337Y-72303903D01*
X159264592Y-72365063D01*
X159452918Y-72381539D01*
X159499999Y-72385659D01*
X159500000Y-72385659D01*
X159500001Y-72385659D01*
X159539234Y-72382226D01*
X159735408Y-72365063D01*
X159963663Y-72303903D01*
X160177830Y-72204035D01*
X160371401Y-72068495D01*
X160538495Y-71901401D01*
X160668425Y-71715842D01*
X160723002Y-71672217D01*
X160792500Y-71665023D01*
X160854855Y-71696546D01*
X160871575Y-71715842D01*
X161001500Y-71901395D01*
X161001505Y-71901401D01*
X161168599Y-72068495D01*
X161265384Y-72136265D01*
X161362165Y-72204032D01*
X161362167Y-72204033D01*
X161362170Y-72204035D01*
X161576337Y-72303903D01*
X161804592Y-72365063D01*
X161992918Y-72381539D01*
X162039999Y-72385659D01*
X162040000Y-72385659D01*
X162040001Y-72385659D01*
X162079234Y-72382226D01*
X162275408Y-72365063D01*
X162503663Y-72303903D01*
X162717830Y-72204035D01*
X162911401Y-72068495D01*
X163078495Y-71901401D01*
X163214035Y-71707830D01*
X163313903Y-71493663D01*
X163375063Y-71265408D01*
X163395659Y-71030000D01*
X163375063Y-70794592D01*
X163313903Y-70566337D01*
X163214035Y-70352171D01*
X163149497Y-70260000D01*
X163078494Y-70158597D01*
X162911402Y-69991506D01*
X162911396Y-69991501D01*
X162725842Y-69861575D01*
X162682217Y-69806998D01*
X162675023Y-69737500D01*
X162706546Y-69675145D01*
X162725842Y-69658425D01*
X162795141Y-69609901D01*
X162911401Y-69528495D01*
X163078495Y-69361401D01*
X163214035Y-69167830D01*
X163313903Y-68953663D01*
X163375063Y-68725408D01*
X163395659Y-68490000D01*
X163375063Y-68254592D01*
X163313903Y-68026337D01*
X163214035Y-67812171D01*
X163078495Y-67618599D01*
X163078494Y-67618597D01*
X162911402Y-67451506D01*
X162911396Y-67451501D01*
X162725842Y-67321575D01*
X162682217Y-67266998D01*
X162675023Y-67197500D01*
X162706546Y-67135145D01*
X162725842Y-67118425D01*
X162748026Y-67102891D01*
X162911401Y-66988495D01*
X163078495Y-66821401D01*
X163214035Y-66627830D01*
X163313903Y-66413663D01*
X163375063Y-66185408D01*
X163395659Y-65950000D01*
X163375063Y-65714592D01*
X163313903Y-65486337D01*
X163214035Y-65272171D01*
X163078495Y-65078599D01*
X163078494Y-65078597D01*
X162911402Y-64911506D01*
X162911396Y-64911501D01*
X162725842Y-64781575D01*
X162682217Y-64726998D01*
X162675023Y-64657500D01*
X162706546Y-64595145D01*
X162725842Y-64578425D01*
X162748026Y-64562891D01*
X162911401Y-64448495D01*
X163078495Y-64281401D01*
X163214035Y-64087830D01*
X163313903Y-63873663D01*
X163375063Y-63645408D01*
X163395659Y-63410000D01*
X163394330Y-63394815D01*
X163375063Y-63174596D01*
X163375063Y-63174592D01*
X163313903Y-62946337D01*
X163214035Y-62732171D01*
X163111511Y-62585750D01*
X163078494Y-62538597D01*
X162911402Y-62371506D01*
X162911396Y-62371501D01*
X162725842Y-62241575D01*
X162682217Y-62186998D01*
X162675023Y-62117500D01*
X162706546Y-62055145D01*
X162725842Y-62038425D01*
X162838651Y-61959435D01*
X162911401Y-61908495D01*
X163078495Y-61741401D01*
X163214035Y-61547830D01*
X163313903Y-61333663D01*
X163375063Y-61105408D01*
X163395659Y-60870000D01*
X163375063Y-60634592D01*
X163313903Y-60406337D01*
X163214035Y-60192171D01*
X163078495Y-59998599D01*
X163078494Y-59998597D01*
X162911402Y-59831506D01*
X162911396Y-59831501D01*
X162725842Y-59701575D01*
X162682217Y-59646998D01*
X162675023Y-59577500D01*
X162706546Y-59515145D01*
X162725842Y-59498425D01*
X162748026Y-59482891D01*
X162911401Y-59368495D01*
X163078495Y-59201401D01*
X163214035Y-59007830D01*
X163313903Y-58793663D01*
X163375063Y-58565408D01*
X163395659Y-58330000D01*
X163375063Y-58094592D01*
X163313903Y-57866337D01*
X163214035Y-57652171D01*
X163078495Y-57458599D01*
X163078494Y-57458597D01*
X162911402Y-57291506D01*
X162911401Y-57291505D01*
X162725405Y-57161269D01*
X162681781Y-57106692D01*
X162674588Y-57037193D01*
X162706110Y-56974839D01*
X162725405Y-56958119D01*
X162911082Y-56828105D01*
X163078105Y-56661082D01*
X163213600Y-56467578D01*
X163313429Y-56253492D01*
X163313432Y-56253486D01*
X163370636Y-56040000D01*
X162473012Y-56040000D01*
X162505925Y-55982993D01*
X162540000Y-55855826D01*
X162540000Y-55724174D01*
X162505925Y-55597007D01*
X162473012Y-55540000D01*
X163370636Y-55540000D01*
X163370635Y-55539999D01*
X163313432Y-55326513D01*
X163313429Y-55326507D01*
X163213600Y-55112422D01*
X163213599Y-55112420D01*
X163078113Y-54918926D01*
X163078108Y-54918920D01*
X162911078Y-54751890D01*
X162725405Y-54621879D01*
X162681780Y-54567302D01*
X162674588Y-54497804D01*
X162706110Y-54435449D01*
X162725406Y-54418730D01*
X162725842Y-54418425D01*
X162911401Y-54288495D01*
X163078495Y-54121401D01*
X163214035Y-53927830D01*
X163313903Y-53713663D01*
X163375063Y-53485408D01*
X163395659Y-53250000D01*
X163375063Y-53014592D01*
X163313903Y-52786337D01*
X163214035Y-52572171D01*
X163162887Y-52499123D01*
X163078494Y-52378597D01*
X162911402Y-52211506D01*
X162911396Y-52211501D01*
X162725842Y-52081575D01*
X162682217Y-52026998D01*
X162675023Y-51957500D01*
X162706546Y-51895145D01*
X162725842Y-51878425D01*
X162826836Y-51807708D01*
X162911401Y-51748495D01*
X163078495Y-51581401D01*
X163214035Y-51387830D01*
X163313903Y-51173663D01*
X163375063Y-50945408D01*
X163395659Y-50710000D01*
X163375063Y-50474592D01*
X163313903Y-50246337D01*
X163214035Y-50032171D01*
X163181455Y-49985641D01*
X163078494Y-49838597D01*
X162911402Y-49671506D01*
X162911396Y-49671501D01*
X162725842Y-49541575D01*
X162682217Y-49486998D01*
X162675023Y-49417500D01*
X162706546Y-49355145D01*
X162725842Y-49338425D01*
X162748026Y-49322891D01*
X162911401Y-49208495D01*
X163078495Y-49041401D01*
X163214035Y-48847830D01*
X163313903Y-48633663D01*
X163375063Y-48405408D01*
X163395659Y-48170000D01*
X163375063Y-47934592D01*
X163328626Y-47761285D01*
X163313905Y-47706344D01*
X163313904Y-47706343D01*
X163313903Y-47706337D01*
X163214035Y-47492171D01*
X163165459Y-47422796D01*
X163078494Y-47298597D01*
X162911402Y-47131506D01*
X162911395Y-47131501D01*
X162717834Y-46995967D01*
X162717830Y-46995965D01*
X162717828Y-46995964D01*
X162503663Y-46896097D01*
X162503659Y-46896096D01*
X162503655Y-46896094D01*
X162275413Y-46834938D01*
X162275403Y-46834936D01*
X162040001Y-46814341D01*
X162039999Y-46814341D01*
X161804596Y-46834936D01*
X161804586Y-46834938D01*
X161576344Y-46896094D01*
X161576335Y-46896098D01*
X161362171Y-46995964D01*
X161362169Y-46995965D01*
X161168600Y-47131503D01*
X161046673Y-47253430D01*
X160985350Y-47286914D01*
X160915658Y-47281930D01*
X160859725Y-47240058D01*
X160842810Y-47209081D01*
X160793797Y-47077671D01*
X160793793Y-47077664D01*
X160707547Y-46962455D01*
X160707544Y-46962452D01*
X160592335Y-46876206D01*
X160592328Y-46876202D01*
X160457482Y-46825908D01*
X160457483Y-46825908D01*
X160397883Y-46819501D01*
X160397881Y-46819500D01*
X160397873Y-46819500D01*
X160397864Y-46819500D01*
X158602129Y-46819500D01*
X158602123Y-46819501D01*
X158542516Y-46825908D01*
X158407671Y-46876202D01*
X158407664Y-46876206D01*
X158292455Y-46962452D01*
X158292452Y-46962455D01*
X158206206Y-47077664D01*
X158206202Y-47077671D01*
X158155908Y-47212517D01*
X158149501Y-47272116D01*
X158149500Y-47272135D01*
X158149500Y-49067870D01*
X158149501Y-49067876D01*
X158155908Y-49127483D01*
X158206202Y-49262328D01*
X158206206Y-49262335D01*
X158292452Y-49377544D01*
X158292455Y-49377547D01*
X158407664Y-49463793D01*
X158407671Y-49463797D01*
X158539081Y-49512810D01*
X158595015Y-49554681D01*
X158619432Y-49620145D01*
X158604580Y-49688418D01*
X158583430Y-49716673D01*
X158461503Y-49838600D01*
X158325965Y-50032169D01*
X158325964Y-50032171D01*
X158226098Y-50246335D01*
X158226094Y-50246344D01*
X158164938Y-50474586D01*
X158164936Y-50474596D01*
X158144341Y-50709999D01*
X152890000Y-50709999D01*
X152890000Y-50530027D01*
X152889999Y-50530014D01*
X152879506Y-50427310D01*
X152879505Y-50427303D01*
X152824358Y-50260881D01*
X152824356Y-50260876D01*
X152732315Y-50111655D01*
X152608344Y-49987684D01*
X152459123Y-49895643D01*
X152459118Y-49895641D01*
X152292696Y-49840494D01*
X152292689Y-49840493D01*
X152189985Y-49830000D01*
X151590000Y-49830000D01*
X151590000Y-50889252D01*
X151552292Y-50867482D01*
X151412409Y-50830000D01*
X151267591Y-50830000D01*
X151127708Y-50867482D01*
X151090000Y-50889252D01*
X151090000Y-49830000D01*
X150490014Y-49830000D01*
X150387310Y-49840493D01*
X150387303Y-49840494D01*
X150220881Y-49895641D01*
X150220876Y-49895643D01*
X150071655Y-49987684D01*
X149947684Y-50111655D01*
X149855643Y-50260876D01*
X149855641Y-50260881D01*
X149800494Y-50427303D01*
X149800493Y-50427310D01*
X149790000Y-50530014D01*
X120500804Y-50530014D01*
X120499506Y-50517310D01*
X120499505Y-50517303D01*
X120444358Y-50350881D01*
X120444356Y-50350876D01*
X120352315Y-50201655D01*
X120228344Y-50077684D01*
X120079123Y-49985643D01*
X120079118Y-49985641D01*
X119912696Y-49930494D01*
X119912689Y-49930493D01*
X119809985Y-49920000D01*
X119210000Y-49920000D01*
X119210000Y-50979252D01*
X119172292Y-50957482D01*
X119032409Y-50920000D01*
X118887591Y-50920000D01*
X118747708Y-50957482D01*
X118710000Y-50979252D01*
X118710000Y-49920000D01*
X118110014Y-49920000D01*
X118007310Y-49930493D01*
X118007303Y-49930494D01*
X117840881Y-49985641D01*
X117840876Y-49985643D01*
X117691655Y-50077684D01*
X117567684Y-50201655D01*
X117475643Y-50350876D01*
X117475641Y-50350881D01*
X117420494Y-50517303D01*
X117420493Y-50517310D01*
X117410000Y-50620014D01*
X114509999Y-50620014D01*
X114499506Y-50517310D01*
X114499505Y-50517303D01*
X114444358Y-50350881D01*
X114444356Y-50350876D01*
X114352315Y-50201655D01*
X114228344Y-50077684D01*
X114079123Y-49985643D01*
X114079118Y-49985641D01*
X113912696Y-49930494D01*
X113912689Y-49930493D01*
X113809985Y-49920000D01*
X113210000Y-49920000D01*
X113210000Y-50979252D01*
X113172292Y-50957482D01*
X113032409Y-50920000D01*
X112887591Y-50920000D01*
X112747708Y-50957482D01*
X112710000Y-50979252D01*
X112710000Y-49920000D01*
X112110014Y-49920000D01*
X112007310Y-49930493D01*
X112007303Y-49930494D01*
X111840881Y-49985641D01*
X111840876Y-49985643D01*
X111691655Y-50077684D01*
X111567684Y-50201655D01*
X111475643Y-50350876D01*
X111475641Y-50350881D01*
X111420494Y-50517303D01*
X111420493Y-50517310D01*
X111410000Y-50620014D01*
X98070500Y-50620014D01*
X98070500Y-45619984D01*
X111409500Y-45619984D01*
X111409500Y-47320015D01*
X111420000Y-47422795D01*
X111420001Y-47422796D01*
X111475186Y-47589335D01*
X111475187Y-47589337D01*
X111567286Y-47738651D01*
X111567289Y-47738655D01*
X111691344Y-47862710D01*
X111691348Y-47862713D01*
X111840662Y-47954812D01*
X111840664Y-47954813D01*
X111840666Y-47954814D01*
X112007203Y-48009999D01*
X112109992Y-48020500D01*
X112109997Y-48020500D01*
X113810003Y-48020500D01*
X113810008Y-48020500D01*
X113912797Y-48009999D01*
X114079334Y-47954814D01*
X114228655Y-47862711D01*
X114352711Y-47738655D01*
X114444814Y-47589334D01*
X114499999Y-47422797D01*
X114510500Y-47320008D01*
X114510500Y-45619992D01*
X114510499Y-45619984D01*
X117409500Y-45619984D01*
X117409500Y-47320015D01*
X117420000Y-47422795D01*
X117420001Y-47422796D01*
X117475186Y-47589335D01*
X117475187Y-47589337D01*
X117567286Y-47738651D01*
X117567289Y-47738655D01*
X117691344Y-47862710D01*
X117691348Y-47862713D01*
X117840662Y-47954812D01*
X117840664Y-47954813D01*
X117840666Y-47954814D01*
X118007203Y-48009999D01*
X118109992Y-48020500D01*
X118109997Y-48020500D01*
X119810003Y-48020500D01*
X119810008Y-48020500D01*
X119912797Y-48009999D01*
X120079334Y-47954814D01*
X120228655Y-47862711D01*
X120352711Y-47738655D01*
X120444814Y-47589334D01*
X120499999Y-47422797D01*
X120510500Y-47320008D01*
X120510500Y-45619992D01*
X120501305Y-45529984D01*
X149789500Y-45529984D01*
X149789500Y-47230015D01*
X149800000Y-47332795D01*
X149800001Y-47332796D01*
X149855186Y-47499335D01*
X149855187Y-47499337D01*
X149947286Y-47648651D01*
X149947289Y-47648655D01*
X150071344Y-47772710D01*
X150071348Y-47772713D01*
X150220662Y-47864812D01*
X150220664Y-47864813D01*
X150220666Y-47864814D01*
X150387203Y-47919999D01*
X150489992Y-47930500D01*
X150489997Y-47930500D01*
X152190003Y-47930500D01*
X152190008Y-47930500D01*
X152292797Y-47919999D01*
X152459334Y-47864814D01*
X152608655Y-47772711D01*
X152732711Y-47648655D01*
X152824814Y-47499334D01*
X152879999Y-47332797D01*
X152890500Y-47230008D01*
X152890500Y-45529992D01*
X152879999Y-45427203D01*
X152824814Y-45260666D01*
X152788223Y-45201344D01*
X152732713Y-45111348D01*
X152732710Y-45111344D01*
X152608655Y-44987289D01*
X152608651Y-44987286D01*
X152459337Y-44895187D01*
X152459335Y-44895186D01*
X152376065Y-44867593D01*
X152292797Y-44840001D01*
X152292795Y-44840000D01*
X152190015Y-44829500D01*
X152190008Y-44829500D01*
X150489992Y-44829500D01*
X150489984Y-44829500D01*
X150387204Y-44840000D01*
X150387203Y-44840001D01*
X150220664Y-44895186D01*
X150220662Y-44895187D01*
X150071348Y-44987286D01*
X150071344Y-44987289D01*
X149947289Y-45111344D01*
X149947286Y-45111348D01*
X149855187Y-45260662D01*
X149855186Y-45260664D01*
X149800001Y-45427203D01*
X149800000Y-45427204D01*
X149789500Y-45529984D01*
X120501305Y-45529984D01*
X120499999Y-45517203D01*
X120444814Y-45350666D01*
X120389298Y-45260662D01*
X120352713Y-45201348D01*
X120352710Y-45201344D01*
X120228655Y-45077289D01*
X120228651Y-45077286D01*
X120079337Y-44985187D01*
X120079335Y-44985186D01*
X119996065Y-44957593D01*
X119912797Y-44930001D01*
X119912795Y-44930000D01*
X119810015Y-44919500D01*
X119810008Y-44919500D01*
X118109992Y-44919500D01*
X118109984Y-44919500D01*
X118007204Y-44930000D01*
X118007203Y-44930001D01*
X117840664Y-44985186D01*
X117840662Y-44985187D01*
X117691348Y-45077286D01*
X117691344Y-45077289D01*
X117567289Y-45201344D01*
X117567286Y-45201348D01*
X117475187Y-45350662D01*
X117475186Y-45350664D01*
X117420001Y-45517203D01*
X117420000Y-45517204D01*
X117409500Y-45619984D01*
X114510499Y-45619984D01*
X114499999Y-45517203D01*
X114444814Y-45350666D01*
X114389298Y-45260662D01*
X114352713Y-45201348D01*
X114352710Y-45201344D01*
X114228655Y-45077289D01*
X114228651Y-45077286D01*
X114079337Y-44985187D01*
X114079335Y-44985186D01*
X113996065Y-44957593D01*
X113912797Y-44930001D01*
X113912795Y-44930000D01*
X113810015Y-44919500D01*
X113810008Y-44919500D01*
X112109992Y-44919500D01*
X112109984Y-44919500D01*
X112007204Y-44930000D01*
X112007203Y-44930001D01*
X111840664Y-44985186D01*
X111840662Y-44985187D01*
X111691348Y-45077286D01*
X111691344Y-45077289D01*
X111567289Y-45201344D01*
X111567286Y-45201348D01*
X111475187Y-45350662D01*
X111475186Y-45350664D01*
X111420001Y-45517203D01*
X111420000Y-45517204D01*
X111409500Y-45619984D01*
X98070500Y-45619984D01*
X98070500Y-43214500D01*
X98090185Y-43147461D01*
X98142989Y-43101706D01*
X98194500Y-43090500D01*
X169195500Y-43090500D01*
X169262539Y-43110185D01*
G37*
G04 #@! TD.AperFunction*
G04 #@! TA.AperFunction,Conductor*
G36*
X157481354Y-119489685D02*
G01*
X157527109Y-119542489D01*
X157537053Y-119611647D01*
X157508028Y-119675203D01*
X157455269Y-119711042D01*
X157360478Y-119744210D01*
X157207737Y-119840184D01*
X157080184Y-119967737D01*
X156984211Y-120120476D01*
X156924631Y-120290745D01*
X156924630Y-120290750D01*
X156904435Y-120469996D01*
X156904435Y-120470003D01*
X156924630Y-120649249D01*
X156924631Y-120649254D01*
X156984211Y-120819523D01*
X157044672Y-120915745D01*
X157080184Y-120972262D01*
X157207738Y-121099816D01*
X157360478Y-121195789D01*
X157530745Y-121255368D01*
X157530750Y-121255369D01*
X157709996Y-121275565D01*
X157710000Y-121275565D01*
X157710004Y-121275565D01*
X157889249Y-121255369D01*
X157889252Y-121255368D01*
X157889255Y-121255368D01*
X158059522Y-121195789D01*
X158212262Y-121099816D01*
X158217082Y-121094996D01*
X160529435Y-121094996D01*
X160529435Y-121095003D01*
X160549630Y-121274249D01*
X160549631Y-121274254D01*
X160609211Y-121444523D01*
X160705184Y-121597262D01*
X160832738Y-121724816D01*
X160985478Y-121820789D01*
X161155745Y-121880368D01*
X161155750Y-121880369D01*
X161334996Y-121900565D01*
X161335000Y-121900565D01*
X161335004Y-121900565D01*
X161514249Y-121880369D01*
X161514252Y-121880368D01*
X161514255Y-121880368D01*
X161684522Y-121820789D01*
X161837262Y-121724816D01*
X161964816Y-121597262D01*
X162060789Y-121444522D01*
X162120368Y-121274255D01*
X162129209Y-121195788D01*
X162140565Y-121095003D01*
X162140565Y-121094996D01*
X162120369Y-120915750D01*
X162120368Y-120915745D01*
X162060788Y-120745476D01*
X161964815Y-120592737D01*
X161837262Y-120465184D01*
X161684523Y-120369211D01*
X161514254Y-120309631D01*
X161514249Y-120309630D01*
X161335004Y-120289435D01*
X161334996Y-120289435D01*
X161155750Y-120309630D01*
X161155745Y-120309631D01*
X160985476Y-120369211D01*
X160832737Y-120465184D01*
X160705184Y-120592737D01*
X160609211Y-120745476D01*
X160549631Y-120915745D01*
X160549630Y-120915750D01*
X160529435Y-121094996D01*
X158217082Y-121094996D01*
X158339816Y-120972262D01*
X158435789Y-120819522D01*
X158495368Y-120649255D01*
X158515565Y-120470000D01*
X158515022Y-120465184D01*
X158495369Y-120290750D01*
X158495368Y-120290745D01*
X158435788Y-120120476D01*
X158339815Y-119967737D01*
X158212262Y-119840184D01*
X158059521Y-119744210D01*
X157964731Y-119711042D01*
X157907954Y-119670320D01*
X157882207Y-119605367D01*
X157895663Y-119536806D01*
X157944050Y-119486403D01*
X158005685Y-119470000D01*
X169195500Y-119470000D01*
X169262539Y-119489685D01*
X169308294Y-119542489D01*
X169319500Y-119594000D01*
X169319500Y-146665500D01*
X169299815Y-146732539D01*
X169247011Y-146778294D01*
X169195500Y-146789500D01*
X143584000Y-146789500D01*
X143516961Y-146769815D01*
X143471206Y-146717011D01*
X143460000Y-146665500D01*
X143460000Y-142619984D01*
X155959500Y-142619984D01*
X155959500Y-144320015D01*
X155970000Y-144422795D01*
X155970001Y-144422796D01*
X156025186Y-144589335D01*
X156025187Y-144589337D01*
X156117286Y-144738651D01*
X156117289Y-144738655D01*
X156241344Y-144862710D01*
X156241348Y-144862713D01*
X156390662Y-144954812D01*
X156390664Y-144954813D01*
X156390666Y-144954814D01*
X156557203Y-145009999D01*
X156659992Y-145020500D01*
X156659997Y-145020500D01*
X158360003Y-145020500D01*
X158360008Y-145020500D01*
X158462797Y-145009999D01*
X158629334Y-144954814D01*
X158778655Y-144862711D01*
X158902711Y-144738655D01*
X158994814Y-144589334D01*
X159049999Y-144422797D01*
X159060500Y-144320008D01*
X159060500Y-142619992D01*
X159060499Y-142619984D01*
X161959500Y-142619984D01*
X161959500Y-144320015D01*
X161970000Y-144422795D01*
X161970001Y-144422796D01*
X162025186Y-144589335D01*
X162025187Y-144589337D01*
X162117286Y-144738651D01*
X162117289Y-144738655D01*
X162241344Y-144862710D01*
X162241348Y-144862713D01*
X162390662Y-144954812D01*
X162390664Y-144954813D01*
X162390666Y-144954814D01*
X162557203Y-145009999D01*
X162659992Y-145020500D01*
X162659997Y-145020500D01*
X164360003Y-145020500D01*
X164360008Y-145020500D01*
X164462797Y-145009999D01*
X164629334Y-144954814D01*
X164778655Y-144862711D01*
X164902711Y-144738655D01*
X164994814Y-144589334D01*
X165049999Y-144422797D01*
X165060500Y-144320008D01*
X165060500Y-142619992D01*
X165049999Y-142517203D01*
X164994814Y-142350666D01*
X164902711Y-142201345D01*
X164778655Y-142077289D01*
X164778651Y-142077286D01*
X164629337Y-141985187D01*
X164629335Y-141985186D01*
X164546065Y-141957593D01*
X164462797Y-141930001D01*
X164462795Y-141930000D01*
X164360015Y-141919500D01*
X164360008Y-141919500D01*
X162659992Y-141919500D01*
X162659984Y-141919500D01*
X162557204Y-141930000D01*
X162557203Y-141930001D01*
X162390664Y-141985186D01*
X162390662Y-141985187D01*
X162241348Y-142077286D01*
X162241344Y-142077289D01*
X162117289Y-142201344D01*
X162117286Y-142201348D01*
X162025187Y-142350662D01*
X162025186Y-142350664D01*
X161970001Y-142517203D01*
X161970000Y-142517204D01*
X161959500Y-142619984D01*
X159060499Y-142619984D01*
X159049999Y-142517203D01*
X158994814Y-142350666D01*
X158902711Y-142201345D01*
X158778655Y-142077289D01*
X158778651Y-142077286D01*
X158629337Y-141985187D01*
X158629335Y-141985186D01*
X158546065Y-141957593D01*
X158462797Y-141930001D01*
X158462795Y-141930000D01*
X158360015Y-141919500D01*
X158360008Y-141919500D01*
X156659992Y-141919500D01*
X156659984Y-141919500D01*
X156557204Y-141930000D01*
X156557203Y-141930001D01*
X156390664Y-141985186D01*
X156390662Y-141985187D01*
X156241348Y-142077286D01*
X156241344Y-142077289D01*
X156117289Y-142201344D01*
X156117286Y-142201348D01*
X156025187Y-142350662D01*
X156025186Y-142350664D01*
X155970001Y-142517203D01*
X155970000Y-142517204D01*
X155959500Y-142619984D01*
X143460000Y-142619984D01*
X143460000Y-133219996D01*
X149154435Y-133219996D01*
X149154435Y-133220003D01*
X149174630Y-133399249D01*
X149174631Y-133399254D01*
X149234211Y-133569523D01*
X149330184Y-133722262D01*
X149457738Y-133849816D01*
X149610478Y-133945789D01*
X149780745Y-134005368D01*
X149780750Y-134005369D01*
X149959996Y-134025565D01*
X149960000Y-134025565D01*
X149960004Y-134025565D01*
X150139249Y-134005369D01*
X150139252Y-134005368D01*
X150139255Y-134005368D01*
X150309522Y-133945789D01*
X150462262Y-133849816D01*
X150589816Y-133722262D01*
X150685789Y-133569522D01*
X150745368Y-133399255D01*
X150765565Y-133220000D01*
X150745368Y-133040745D01*
X150685789Y-132870478D01*
X150589816Y-132717738D01*
X150462262Y-132590184D01*
X150309523Y-132494211D01*
X150139254Y-132434631D01*
X150139249Y-132434630D01*
X149960004Y-132414435D01*
X149959996Y-132414435D01*
X149780750Y-132434630D01*
X149780745Y-132434631D01*
X149610476Y-132494211D01*
X149457737Y-132590184D01*
X149330184Y-132717737D01*
X149234211Y-132870476D01*
X149174631Y-133040745D01*
X149174630Y-133040750D01*
X149154435Y-133219996D01*
X143460000Y-133219996D01*
X143460000Y-119594000D01*
X143479685Y-119526961D01*
X143532489Y-119481206D01*
X143584000Y-119470000D01*
X157414315Y-119470000D01*
X157481354Y-119489685D01*
G37*
G04 #@! TD.AperFunction*
M02*
