G04 #@! TF.GenerationSoftware,KiCad,Pcbnew,8.0.6*
G04 #@! TF.CreationDate,2024-12-04T22:51:12+00:00*
G04 #@! TF.ProjectId,Pulse generator daughter board,50756c73-6520-4676-956e-657261746f72,rev?*
G04 #@! TF.SameCoordinates,Original*
G04 #@! TF.FileFunction,Soldermask,Top*
G04 #@! TF.FilePolarity,Negative*
%FSLAX46Y46*%
G04 Gerber Fmt 4.6, Leading zero omitted, Abs format (unit mm)*
G04 Created by KiCad (PCBNEW 8.0.6) date 2024-12-04 22:51:12*
%MOMM*%
%LPD*%
G01*
G04 APERTURE LIST*
G04 Aperture macros list*
%AMRoundRect*
0 Rectangle with rounded corners*
0 $1 Rounding radius*
0 $2 $3 $4 $5 $6 $7 $8 $9 X,Y pos of 4 corners*
0 Add a 4 corners polygon primitive as box body*
4,1,4,$2,$3,$4,$5,$6,$7,$8,$9,$2,$3,0*
0 Add four circle primitives for the rounded corners*
1,1,$1+$1,$2,$3*
1,1,$1+$1,$4,$5*
1,1,$1+$1,$6,$7*
1,1,$1+$1,$8,$9*
0 Add four rect primitives between the rounded corners*
20,1,$1+$1,$2,$3,$4,$5,0*
20,1,$1+$1,$4,$5,$6,$7,0*
20,1,$1+$1,$6,$7,$8,$9,0*
20,1,$1+$1,$8,$9,$2,$3,0*%
G04 Aperture macros list end*
%ADD10RoundRect,0.250000X-0.337500X-0.475000X0.337500X-0.475000X0.337500X0.475000X-0.337500X0.475000X0*%
%ADD11RoundRect,0.150000X-0.875000X-0.150000X0.875000X-0.150000X0.875000X0.150000X-0.875000X0.150000X0*%
%ADD12RoundRect,0.200000X0.300000X-0.200000X0.300000X0.200000X-0.300000X0.200000X-0.300000X-0.200000X0*%
%ADD13RoundRect,0.249999X-1.425001X0.450001X-1.425001X-0.450001X1.425001X-0.450001X1.425001X0.450001X0*%
%ADD14RoundRect,0.250000X0.450000X-0.350000X0.450000X0.350000X-0.450000X0.350000X-0.450000X-0.350000X0*%
%ADD15RoundRect,0.250000X-0.350000X-0.450000X0.350000X-0.450000X0.350000X0.450000X-0.350000X0.450000X0*%
%ADD16RoundRect,0.250000X0.350000X0.450000X-0.350000X0.450000X-0.350000X-0.450000X0.350000X-0.450000X0*%
%ADD17RoundRect,0.250001X-0.799999X0.799999X-0.799999X-0.799999X0.799999X-0.799999X0.799999X0.799999X0*%
%ADD18RoundRect,0.250001X-0.799999X-0.799999X0.799999X-0.799999X0.799999X0.799999X-0.799999X0.799999X0*%
%ADD19RoundRect,0.125000X0.125000X-0.125000X0.125000X0.125000X-0.125000X0.125000X-0.125000X-0.125000X0*%
%ADD20RoundRect,0.250000X0.475000X-0.337500X0.475000X0.337500X-0.475000X0.337500X-0.475000X-0.337500X0*%
%ADD21RoundRect,0.250000X0.337500X0.475000X-0.337500X0.475000X-0.337500X-0.475000X0.337500X-0.475000X0*%
%ADD22RoundRect,0.125000X0.125000X0.125000X-0.125000X0.125000X-0.125000X-0.125000X0.125000X-0.125000X0*%
%ADD23RoundRect,0.250000X-0.650000X1.500000X-0.650000X-1.500000X0.650000X-1.500000X0.650000X1.500000X0*%
%ADD24RoundRect,0.250001X0.799999X-0.799999X0.799999X0.799999X-0.799999X0.799999X-0.799999X-0.799999X0*%
%ADD25RoundRect,0.250000X-0.475000X0.337500X-0.475000X-0.337500X0.475000X-0.337500X0.475000X0.337500X0*%
%ADD26RoundRect,0.250000X0.650000X-1.500000X0.650000X1.500000X-0.650000X1.500000X-0.650000X-1.500000X0*%
%ADD27C,1.600000*%
%ADD28RoundRect,0.250000X-0.450000X0.350000X-0.450000X-0.350000X0.450000X-0.350000X0.450000X0.350000X0*%
%ADD29RoundRect,0.249999X0.450001X1.425001X-0.450001X1.425001X-0.450001X-1.425001X0.450001X-1.425001X0*%
%ADD30R,1.600000X1.600000*%
%ADD31O,1.600000X1.600000*%
%ADD32RoundRect,0.250000X-1.500000X-0.650000X1.500000X-0.650000X1.500000X0.650000X-1.500000X0.650000X0*%
%ADD33R,1.700000X1.700000*%
%ADD34O,1.700000X1.700000*%
%ADD35RoundRect,0.125000X-0.125000X-0.125000X0.125000X-0.125000X0.125000X0.125000X-0.125000X0.125000X0*%
%ADD36RoundRect,0.250000X1.500000X0.650000X-1.500000X0.650000X-1.500000X-0.650000X1.500000X-0.650000X0*%
%ADD37RoundRect,0.100000X0.100000X-0.637500X0.100000X0.637500X-0.100000X0.637500X-0.100000X-0.637500X0*%
G04 APERTURE END LIST*
D10*
X142172500Y-141970000D03*
X144247500Y-141970000D03*
D11*
X138560000Y-128025000D03*
X138560000Y-129295000D03*
X138560000Y-130565000D03*
X138560000Y-131835000D03*
X138560000Y-133105000D03*
X138560000Y-134375000D03*
X138560000Y-135645000D03*
X138560000Y-136915000D03*
X147860000Y-136915000D03*
X147860000Y-135645000D03*
X147860000Y-134375000D03*
X147860000Y-133105000D03*
X147860000Y-131835000D03*
X147860000Y-130565000D03*
X147860000Y-129295000D03*
X147860000Y-128025000D03*
D12*
X142060000Y-58870000D03*
X142060000Y-56970000D03*
X139960000Y-57920000D03*
D13*
X123460000Y-73920000D03*
X123460000Y-80020000D03*
X129210000Y-73920000D03*
X129210000Y-80020000D03*
X136960000Y-73920000D03*
X136960000Y-80020000D03*
X142710000Y-73920000D03*
X142710000Y-80020000D03*
D14*
X150460000Y-58970000D03*
X150460000Y-56970000D03*
X150460000Y-66220000D03*
X150460000Y-68220000D03*
D15*
X150460000Y-62470000D03*
X152460000Y-62470000D03*
X150460000Y-71720000D03*
X152460000Y-71720000D03*
D16*
X125710000Y-55220000D03*
X123710000Y-55220000D03*
D17*
X136710000Y-89720000D03*
X123210000Y-89720000D03*
X136710000Y-84220000D03*
X123210000Y-84220000D03*
D18*
X112960000Y-51470000D03*
X112960000Y-46470000D03*
D19*
X128960000Y-87820000D03*
X128960000Y-85620000D03*
X142210000Y-87820000D03*
X142210000Y-85620000D03*
D20*
X146460000Y-59007500D03*
X146460000Y-56932500D03*
X146460000Y-68257500D03*
X146460000Y-66182500D03*
D12*
X142060000Y-68120000D03*
X142060000Y-66220000D03*
X139960000Y-67170000D03*
D16*
X158460000Y-138220000D03*
X156460000Y-138220000D03*
D15*
X162460000Y-138220000D03*
X164460000Y-138220000D03*
D10*
X164422500Y-134720000D03*
X166497500Y-134720000D03*
D21*
X155497500Y-134720000D03*
X153422500Y-134720000D03*
X160747500Y-131720000D03*
X158672500Y-131720000D03*
D22*
X108060000Y-96370000D03*
X105860000Y-96370000D03*
D16*
X143210000Y-111720000D03*
X141210000Y-111720000D03*
X107960000Y-100620000D03*
X105960000Y-100620000D03*
D23*
X107960000Y-136970000D03*
X107960000Y-141970000D03*
D18*
X157510000Y-143470000D03*
D10*
X149922500Y-112220000D03*
X151997500Y-112220000D03*
D24*
X101960000Y-72970000D03*
D25*
X124960000Y-111682500D03*
X124960000Y-113757500D03*
D26*
X108030000Y-127720000D03*
X108030000Y-122720000D03*
D15*
X137960000Y-96470000D03*
X139960000Y-96470000D03*
D27*
X151900000Y-91890000D03*
X151900000Y-94430000D03*
X151900000Y-102050000D03*
X151900000Y-107130000D03*
D16*
X102960000Y-104870000D03*
X100960000Y-104870000D03*
D28*
X102210000Y-108620000D03*
X102210000Y-110620000D03*
D29*
X129510000Y-128220000D03*
X123410000Y-128220000D03*
D16*
X102960000Y-100620000D03*
X100960000Y-100620000D03*
D10*
X161672500Y-122720000D03*
X163747500Y-122720000D03*
D16*
X107960000Y-104870000D03*
X105960000Y-104870000D03*
D29*
X119510000Y-122500000D03*
X113410000Y-122500000D03*
D21*
X107997500Y-108870000D03*
X105922500Y-108870000D03*
D18*
X102460000Y-122470000D03*
D30*
X142760000Y-100670000D03*
D31*
X140220000Y-100670000D03*
X137680000Y-100670000D03*
X135140000Y-100670000D03*
X135140000Y-108290000D03*
X137680000Y-108290000D03*
X140220000Y-108290000D03*
X142760000Y-108290000D03*
D10*
X149922500Y-114720000D03*
X151997500Y-114720000D03*
D15*
X134090000Y-47440000D03*
X136090000Y-47440000D03*
D21*
X143747500Y-50970000D03*
X141672500Y-50970000D03*
D18*
X102460000Y-127470000D03*
X118960000Y-46470000D03*
X118960000Y-51470000D03*
D15*
X101210000Y-57720000D03*
X103210000Y-57720000D03*
X125210000Y-96470000D03*
X127210000Y-96470000D03*
D18*
X163510000Y-143470000D03*
D29*
X129560000Y-122500000D03*
X123460000Y-122500000D03*
X119510000Y-128220000D03*
X113410000Y-128220000D03*
D14*
X106960000Y-73720000D03*
X106960000Y-71720000D03*
D32*
X124960000Y-47470000D03*
X129960000Y-47470000D03*
D17*
X101960000Y-90970000D03*
D18*
X102460000Y-136720000D03*
D15*
X106210000Y-57720000D03*
X108210000Y-57720000D03*
D18*
X151340000Y-46380000D03*
D24*
X101960000Y-77970000D03*
D33*
X113780000Y-80170000D03*
D34*
X116320000Y-80170000D03*
X113780000Y-82710000D03*
X116320000Y-82710000D03*
X113780000Y-85250000D03*
X116320000Y-85250000D03*
X113780000Y-87790000D03*
X116320000Y-87790000D03*
X113780000Y-90330000D03*
X116320000Y-90330000D03*
X113780000Y-92870000D03*
X116320000Y-92870000D03*
X113780000Y-95410000D03*
X116320000Y-95410000D03*
X113780000Y-97950000D03*
X116320000Y-97950000D03*
X113780000Y-100490000D03*
X116320000Y-100490000D03*
X113780000Y-103030000D03*
X116320000Y-103030000D03*
X113780000Y-105570000D03*
X116320000Y-105570000D03*
X113780000Y-108110000D03*
X116320000Y-108110000D03*
X113780000Y-110650000D03*
X116320000Y-110650000D03*
X113780000Y-113190000D03*
X116320000Y-113190000D03*
X113780000Y-115730000D03*
X116320000Y-115730000D03*
D30*
X130030000Y-100700000D03*
D31*
X127490000Y-100700000D03*
X124950000Y-100700000D03*
X122410000Y-100700000D03*
X122410000Y-108320000D03*
X124950000Y-108320000D03*
X127490000Y-108320000D03*
X130030000Y-108320000D03*
D25*
X137710000Y-111682500D03*
X137710000Y-113757500D03*
D33*
X159500000Y-75090000D03*
D34*
X162040000Y-75090000D03*
X159500000Y-77630000D03*
X162040000Y-77630000D03*
X159500000Y-80170000D03*
X162040000Y-80170000D03*
X159500000Y-82710000D03*
X162040000Y-82710000D03*
X159500000Y-85250000D03*
X162040000Y-85250000D03*
X159500000Y-87790000D03*
X162040000Y-87790000D03*
X159500000Y-90330000D03*
X162040000Y-90330000D03*
X159500000Y-92870000D03*
X162040000Y-92870000D03*
X159500000Y-95410000D03*
X162040000Y-95410000D03*
X159500000Y-97950000D03*
X162040000Y-97950000D03*
X159500000Y-100490000D03*
X162040000Y-100490000D03*
X159500000Y-103030000D03*
X162040000Y-103030000D03*
X159500000Y-105570000D03*
X162040000Y-105570000D03*
X159500000Y-108110000D03*
X162040000Y-108110000D03*
X159500000Y-110650000D03*
X162040000Y-110650000D03*
X159500000Y-113190000D03*
X162040000Y-113190000D03*
X159500000Y-115730000D03*
X162040000Y-115730000D03*
D22*
X108160000Y-66970000D03*
X105960000Y-66970000D03*
D10*
X123552500Y-51690000D03*
X125627500Y-51690000D03*
X101172500Y-53720000D03*
X103247500Y-53720000D03*
D16*
X130460000Y-111970000D03*
X128460000Y-111970000D03*
D29*
X129260000Y-136970000D03*
X123160000Y-136970000D03*
X119260000Y-142220000D03*
X113160000Y-142220000D03*
D18*
X102460000Y-141720000D03*
D20*
X137360000Y-126057500D03*
X137360000Y-123982500D03*
D10*
X148582500Y-85950000D03*
X150657500Y-85950000D03*
D35*
X100860000Y-96370000D03*
X103060000Y-96370000D03*
D36*
X145340000Y-47440000D03*
X140340000Y-47440000D03*
D28*
X106960000Y-90120000D03*
X106960000Y-92120000D03*
D15*
X106210000Y-62720000D03*
X108210000Y-62720000D03*
D33*
X159500000Y-48170000D03*
D34*
X162040000Y-48170000D03*
X159500000Y-50710000D03*
X162040000Y-50710000D03*
X159500000Y-53250000D03*
X162040000Y-53250000D03*
X159500000Y-55790000D03*
X162040000Y-55790000D03*
X159500000Y-58330000D03*
X162040000Y-58330000D03*
X159500000Y-60870000D03*
X162040000Y-60870000D03*
X159500000Y-63410000D03*
X162040000Y-63410000D03*
X159500000Y-65950000D03*
X162040000Y-65950000D03*
X159500000Y-68490000D03*
X162040000Y-68490000D03*
X159500000Y-71030000D03*
X162040000Y-71030000D03*
D35*
X101110000Y-66970000D03*
X103310000Y-66970000D03*
D10*
X102172500Y-113620000D03*
X104247500Y-113620000D03*
D21*
X106747500Y-47970000D03*
X104672500Y-47970000D03*
D18*
X151340000Y-51380000D03*
D37*
X155760000Y-127582500D03*
X156410000Y-127582500D03*
X157060000Y-127582500D03*
X157710000Y-127582500D03*
X158360000Y-127582500D03*
X159010000Y-127582500D03*
X159660000Y-127582500D03*
X159660000Y-121857500D03*
X159010000Y-121857500D03*
X158360000Y-121857500D03*
X157710000Y-121857500D03*
X157060000Y-121857500D03*
X156410000Y-121857500D03*
X155760000Y-121857500D03*
D29*
X129260000Y-142220000D03*
X123160000Y-142220000D03*
X119310000Y-136970000D03*
X113210000Y-136970000D03*
D17*
X101960000Y-85870000D03*
D15*
X101210000Y-62720000D03*
X103210000Y-62720000D03*
D14*
X106960000Y-53970000D03*
X106960000Y-51970000D03*
D10*
X148422500Y-125220000D03*
X150497500Y-125220000D03*
D33*
X113780000Y-57310000D03*
D34*
X116320000Y-57310000D03*
X113780000Y-59850000D03*
X116320000Y-59850000D03*
X113780000Y-62390000D03*
X116320000Y-62390000D03*
X113780000Y-64930000D03*
X116320000Y-64930000D03*
X113780000Y-67470000D03*
X116320000Y-67470000D03*
X113780000Y-70010000D03*
X116320000Y-70010000D03*
X113780000Y-72550000D03*
X116320000Y-72550000D03*
X113780000Y-75090000D03*
X116320000Y-75090000D03*
M02*
