M48
; DRILL file {KiCad 8.0.6} date 2024-12-04T22:51:30+0000
; FORMAT={-:-/ absolute / metric / decimal}
; #@! TF.CreationDate,2024-12-04T22:51:30+00:00
; #@! TF.GenerationSoftware,Kicad,Pcbnew,8.0.6
; #@! TF.FileFunction,Plated,1,4,PTH
FMAT,2
METRIC
; #@! TA.AperFunction,Plated,PTH,ViaDrill
T1C0.300
; #@! TA.AperFunction,Plated,PTH,ComponentDrill
T2C0.800
; #@! TA.AperFunction,Plated,PTH,ComponentDrill
T3C1.000
; #@! TA.AperFunction,Plated,PTH,ComponentDrill
T4C1.020
; #@! TA.AperFunction,Plated,PTH,ComponentDrill
T5C1.100
%
G90
G05
T1
X99.56Y-104.92
X99.66Y-100.62
X100.86Y-98.32
X101.46Y-59.92
X103.16Y-47.92
X103.26Y-51.92
X105.56Y-113.62
X105.96Y-110.42
X108.03Y-119.72
X109.46Y-103.32
X109.66Y-57.72
X109.66Y-62.72
X109.66Y-67.02
X109.76Y-108.82
X110.36Y-142.02
X111.56Y-77.52
X111.615Y-62.765
X118.56Y-76.82
X120.66Y-74.22
X123.36Y-113.72
X123.56Y-96.32
X125.66Y-58.92
X127.36Y-119.12
X127.56Y-53.12
X128.56Y-84.52
X131.66Y-50.42
X132.16Y-111.92
X132.46Y-99.52
X133.36Y-80.72
X134.86Y-124.12
X134.96Y-139.92
X136.16Y-96.42
X136.26Y-129.32
X136.46Y-115.32
X136.96Y-138.257
X137.26Y-122.52
X139.26Y-61.72
X139.71Y-126.22
X139.86Y-44.92
X139.86Y-50.92
X140.46Y-131.72
X140.71Y-141.97
X141.36Y-132.22
X142.06Y-55.52
X142.16Y-84.52
X142.21Y-132.72
X142.66Y-65.02
X143.86Y-53.52
X144.96Y-111.72
X145.71Y-129.22
X145.71Y-141.97
X146.46Y-55.32
X146.46Y-64.72
X147.16Y-83.92
X149.96Y-133.22
X149.96Y-136.97
X150.06Y-77.62
X150.16Y-55.42
X150.46Y-64.72
X150.96Y-77.62
X150.96Y-117.47
X151.76Y-53.82
X151.96Y-134.72
X152.06Y-85.92
X152.21Y-125.22
X153.66Y-109.72
X153.69Y-110.65
X153.785Y-115.645
X154.66Y-71.92
X154.835Y-120.095
X155.46Y-71.92
X155.46Y-129.22
X157.71Y-120.47
X161.335Y-121.095
X164.96Y-122.72
X166.46Y-132.72
T2
X122.41Y-100.7
X122.41Y-108.32
X124.95Y-100.7
X124.95Y-108.32
X127.49Y-100.7
X127.49Y-108.32
X130.03Y-100.7
X130.03Y-108.32
X135.14Y-100.67
X135.14Y-108.29
X137.68Y-100.67
X137.68Y-108.29
X140.22Y-100.67
X140.22Y-108.29
X142.76Y-100.67
X142.76Y-108.29
T3
X113.78Y-57.31
X113.78Y-59.85
X113.78Y-62.39
X113.78Y-64.93
X113.78Y-67.47
X113.78Y-70.01
X113.78Y-72.55
X113.78Y-75.09
X113.78Y-80.17
X113.78Y-82.71
X113.78Y-85.25
X113.78Y-87.79
X113.78Y-90.33
X113.78Y-92.87
X113.78Y-95.41
X113.78Y-97.95
X113.78Y-100.49
X113.78Y-103.03
X113.78Y-105.57
X113.78Y-108.11
X113.78Y-110.65
X113.78Y-113.19
X113.78Y-115.73
X116.32Y-57.31
X116.32Y-59.85
X116.32Y-62.39
X116.32Y-64.93
X116.32Y-67.47
X116.32Y-70.01
X116.32Y-72.55
X116.32Y-75.09
X116.32Y-80.17
X116.32Y-82.71
X116.32Y-85.25
X116.32Y-87.79
X116.32Y-90.33
X116.32Y-92.87
X116.32Y-95.41
X116.32Y-97.95
X116.32Y-100.49
X116.32Y-103.03
X116.32Y-105.57
X116.32Y-108.11
X116.32Y-110.65
X116.32Y-113.19
X116.32Y-115.73
X159.5Y-48.17
X159.5Y-50.71
X159.5Y-53.25
X159.5Y-55.79
X159.5Y-58.33
X159.5Y-60.87
X159.5Y-63.41
X159.5Y-65.95
X159.5Y-68.49
X159.5Y-71.03
X159.5Y-75.09
X159.5Y-77.63
X159.5Y-80.17
X159.5Y-82.71
X159.5Y-85.25
X159.5Y-87.79
X159.5Y-90.33
X159.5Y-92.87
X159.5Y-95.41
X159.5Y-97.95
X159.5Y-100.49
X159.5Y-103.03
X159.5Y-105.57
X159.5Y-108.11
X159.5Y-110.65
X159.5Y-113.19
X159.5Y-115.73
X162.04Y-48.17
X162.04Y-50.71
X162.04Y-53.25
X162.04Y-55.79
X162.04Y-58.33
X162.04Y-60.87
X162.04Y-63.41
X162.04Y-65.95
X162.04Y-68.49
X162.04Y-71.03
X162.04Y-75.09
X162.04Y-77.63
X162.04Y-80.17
X162.04Y-82.71
X162.04Y-85.25
X162.04Y-87.79
X162.04Y-90.33
X162.04Y-92.87
X162.04Y-95.41
X162.04Y-97.95
X162.04Y-100.49
X162.04Y-103.03
X162.04Y-105.57
X162.04Y-108.11
X162.04Y-110.65
X162.04Y-113.19
X162.04Y-115.73
T4
X151.9Y-91.89
X151.9Y-94.43
X151.9Y-102.05
X151.9Y-107.13
T5
X101.96Y-72.97
X101.96Y-77.97
X101.96Y-85.87
X101.96Y-90.97
X102.46Y-122.47
X102.46Y-127.47
X102.46Y-136.72
X102.46Y-141.72
X112.96Y-46.47
X112.96Y-51.47
X118.96Y-46.47
X118.96Y-51.47
X123.21Y-84.22
X123.21Y-89.72
X136.71Y-84.22
X136.71Y-89.72
X151.34Y-46.38
X151.34Y-51.38
X157.51Y-143.47
X163.51Y-143.47
M30
