G04 #@! TF.GenerationSoftware,KiCad,Pcbnew,8.0.6*
G04 #@! TF.CreationDate,2024-12-04T22:51:12+00:00*
G04 #@! TF.ProjectId,Pulse generator daughter board,50756c73-6520-4676-956e-657261746f72,rev?*
G04 #@! TF.SameCoordinates,Original*
G04 #@! TF.FileFunction,Copper,L4,Bot*
G04 #@! TF.FilePolarity,Positive*
%FSLAX46Y46*%
G04 Gerber Fmt 4.6, Leading zero omitted, Abs format (unit mm)*
G04 Created by KiCad (PCBNEW 8.0.6) date 2024-12-04 22:51:12*
%MOMM*%
%LPD*%
G01*
G04 APERTURE LIST*
G04 Aperture macros list*
%AMRoundRect*
0 Rectangle with rounded corners*
0 $1 Rounding radius*
0 $2 $3 $4 $5 $6 $7 $8 $9 X,Y pos of 4 corners*
0 Add a 4 corners polygon primitive as box body*
4,1,4,$2,$3,$4,$5,$6,$7,$8,$9,$2,$3,0*
0 Add four circle primitives for the rounded corners*
1,1,$1+$1,$2,$3*
1,1,$1+$1,$4,$5*
1,1,$1+$1,$6,$7*
1,1,$1+$1,$8,$9*
0 Add four rect primitives between the rounded corners*
20,1,$1+$1,$2,$3,$4,$5,0*
20,1,$1+$1,$4,$5,$6,$7,0*
20,1,$1+$1,$6,$7,$8,$9,0*
20,1,$1+$1,$8,$9,$2,$3,0*%
G04 Aperture macros list end*
G04 #@! TA.AperFunction,ComponentPad*
%ADD10RoundRect,0.250001X-0.799999X0.799999X-0.799999X-0.799999X0.799999X-0.799999X0.799999X0.799999X0*%
G04 #@! TD*
G04 #@! TA.AperFunction,ComponentPad*
%ADD11RoundRect,0.250001X-0.799999X-0.799999X0.799999X-0.799999X0.799999X0.799999X-0.799999X0.799999X0*%
G04 #@! TD*
G04 #@! TA.AperFunction,ComponentPad*
%ADD12RoundRect,0.250001X0.799999X-0.799999X0.799999X0.799999X-0.799999X0.799999X-0.799999X-0.799999X0*%
G04 #@! TD*
G04 #@! TA.AperFunction,ComponentPad*
%ADD13C,1.600000*%
G04 #@! TD*
G04 #@! TA.AperFunction,ComponentPad*
%ADD14R,1.600000X1.600000*%
G04 #@! TD*
G04 #@! TA.AperFunction,ComponentPad*
%ADD15O,1.600000X1.600000*%
G04 #@! TD*
G04 #@! TA.AperFunction,ComponentPad*
%ADD16R,1.700000X1.700000*%
G04 #@! TD*
G04 #@! TA.AperFunction,ComponentPad*
%ADD17O,1.700000X1.700000*%
G04 #@! TD*
G04 #@! TA.AperFunction,ViaPad*
%ADD18C,0.600000*%
G04 #@! TD*
G04 #@! TA.AperFunction,Conductor*
%ADD19C,0.500000*%
G04 #@! TD*
G04 #@! TA.AperFunction,Conductor*
%ADD20C,0.250000*%
G04 #@! TD*
G04 APERTURE END LIST*
D10*
X136710000Y-89720000D03*
X123210000Y-89720000D03*
X136710000Y-84220000D03*
X123210000Y-84220000D03*
D11*
X112960000Y-51470000D03*
X112960000Y-46470000D03*
X157510000Y-143470000D03*
D12*
X101960000Y-72970000D03*
D13*
X151900000Y-91890000D03*
X151900000Y-94430000D03*
X151900000Y-102050000D03*
X151900000Y-107130000D03*
D11*
X102460000Y-122470000D03*
D14*
X142760000Y-100670000D03*
D15*
X140220000Y-100670000D03*
X137680000Y-100670000D03*
X135140000Y-100670000D03*
X135140000Y-108290000D03*
X137680000Y-108290000D03*
X140220000Y-108290000D03*
X142760000Y-108290000D03*
D11*
X102460000Y-127470000D03*
X118960000Y-46470000D03*
X118960000Y-51470000D03*
X163510000Y-143470000D03*
D10*
X101960000Y-90970000D03*
D11*
X102460000Y-136720000D03*
X151340000Y-46380000D03*
D12*
X101960000Y-77970000D03*
D16*
X113780000Y-80170000D03*
D17*
X116320000Y-80170000D03*
X113780000Y-82710000D03*
X116320000Y-82710000D03*
X113780000Y-85250000D03*
X116320000Y-85250000D03*
X113780000Y-87790000D03*
X116320000Y-87790000D03*
X113780000Y-90330000D03*
X116320000Y-90330000D03*
X113780000Y-92870000D03*
X116320000Y-92870000D03*
X113780000Y-95410000D03*
X116320000Y-95410000D03*
X113780000Y-97950000D03*
X116320000Y-97950000D03*
X113780000Y-100490000D03*
X116320000Y-100490000D03*
X113780000Y-103030000D03*
X116320000Y-103030000D03*
X113780000Y-105570000D03*
X116320000Y-105570000D03*
X113780000Y-108110000D03*
X116320000Y-108110000D03*
X113780000Y-110650000D03*
X116320000Y-110650000D03*
X113780000Y-113190000D03*
X116320000Y-113190000D03*
X113780000Y-115730000D03*
X116320000Y-115730000D03*
D14*
X130030000Y-100700000D03*
D15*
X127490000Y-100700000D03*
X124950000Y-100700000D03*
X122410000Y-100700000D03*
X122410000Y-108320000D03*
X124950000Y-108320000D03*
X127490000Y-108320000D03*
X130030000Y-108320000D03*
D16*
X159500000Y-75090000D03*
D17*
X162040000Y-75090000D03*
X159500000Y-77630000D03*
X162040000Y-77630000D03*
X159500000Y-80170000D03*
X162040000Y-80170000D03*
X159500000Y-82710000D03*
X162040000Y-82710000D03*
X159500000Y-85250000D03*
X162040000Y-85250000D03*
X159500000Y-87790000D03*
X162040000Y-87790000D03*
X159500000Y-90330000D03*
X162040000Y-90330000D03*
X159500000Y-92870000D03*
X162040000Y-92870000D03*
X159500000Y-95410000D03*
X162040000Y-95410000D03*
X159500000Y-97950000D03*
X162040000Y-97950000D03*
X159500000Y-100490000D03*
X162040000Y-100490000D03*
X159500000Y-103030000D03*
X162040000Y-103030000D03*
X159500000Y-105570000D03*
X162040000Y-105570000D03*
X159500000Y-108110000D03*
X162040000Y-108110000D03*
X159500000Y-110650000D03*
X162040000Y-110650000D03*
X159500000Y-113190000D03*
X162040000Y-113190000D03*
X159500000Y-115730000D03*
X162040000Y-115730000D03*
D11*
X102460000Y-141720000D03*
D16*
X159500000Y-48170000D03*
D17*
X162040000Y-48170000D03*
X159500000Y-50710000D03*
X162040000Y-50710000D03*
X159500000Y-53250000D03*
X162040000Y-53250000D03*
X159500000Y-55790000D03*
X162040000Y-55790000D03*
X159500000Y-58330000D03*
X162040000Y-58330000D03*
X159500000Y-60870000D03*
X162040000Y-60870000D03*
X159500000Y-63410000D03*
X162040000Y-63410000D03*
X159500000Y-65950000D03*
X162040000Y-65950000D03*
X159500000Y-68490000D03*
X162040000Y-68490000D03*
X159500000Y-71030000D03*
X162040000Y-71030000D03*
D11*
X151340000Y-51380000D03*
D10*
X101960000Y-85870000D03*
D16*
X113780000Y-57310000D03*
D17*
X116320000Y-57310000D03*
X113780000Y-59850000D03*
X116320000Y-59850000D03*
X113780000Y-62390000D03*
X116320000Y-62390000D03*
X113780000Y-64930000D03*
X116320000Y-64930000D03*
X113780000Y-67470000D03*
X116320000Y-67470000D03*
X113780000Y-70010000D03*
X116320000Y-70010000D03*
X113780000Y-72550000D03*
X116320000Y-72550000D03*
X113780000Y-75090000D03*
X116320000Y-75090000D03*
D18*
X153660000Y-109720000D03*
X150060000Y-77620000D03*
X139260000Y-61720000D03*
X133360000Y-80720000D03*
X143860000Y-53520000D03*
X132460000Y-99520000D03*
X120660000Y-74220000D03*
X125660000Y-58920000D03*
X118560000Y-76820000D03*
X150960000Y-77620000D03*
X150460000Y-64720000D03*
X146460000Y-64720000D03*
X142660000Y-65020000D03*
X142060000Y-55520000D03*
X146460000Y-55320000D03*
X150160000Y-55420000D03*
X151760000Y-53820000D03*
X139860000Y-50920000D03*
X139860000Y-44920000D03*
X131660000Y-50420000D03*
X127560000Y-53120000D03*
X109760000Y-108820000D03*
X109460000Y-103320000D03*
X111560000Y-77520000D03*
X134860000Y-124120000D03*
X127360000Y-119120000D03*
X101460000Y-59920000D03*
X111615000Y-62765000D03*
X103160000Y-47920000D03*
X142160000Y-84520000D03*
X153785000Y-115645000D03*
X128560000Y-84520000D03*
X136160000Y-96420000D03*
X123560000Y-96320000D03*
X152060000Y-85920000D03*
X153690000Y-110650000D03*
X137260000Y-122520000D03*
X136260000Y-129320000D03*
X132160000Y-111920000D03*
X144960000Y-111720000D03*
X136460000Y-115320000D03*
X123360000Y-113720000D03*
X134960000Y-139920000D03*
X110360000Y-142020000D03*
X108030000Y-119720000D03*
X105560000Y-113620000D03*
X105960000Y-110420000D03*
X99560000Y-104920000D03*
X99660000Y-100620000D03*
X100860000Y-98320000D03*
X109660000Y-67020000D03*
X109660000Y-62720000D03*
X109660000Y-57720000D03*
X103260000Y-51920000D03*
X154659997Y-71920000D03*
X139710000Y-126220000D03*
X155460000Y-71920000D03*
X140460000Y-131720000D03*
X141360000Y-132220000D03*
X142210000Y-132720000D03*
X136960000Y-138257500D03*
X161335000Y-121095000D03*
X150960000Y-117470000D03*
X155460000Y-129220000D03*
X152210000Y-125220000D03*
X154835000Y-120095000D03*
X157710000Y-120470000D03*
X149960000Y-133220000D03*
X145710000Y-129220000D03*
X151960000Y-134720000D03*
X166460000Y-132720000D03*
X164960000Y-122720000D03*
X149960000Y-136970000D03*
X140710000Y-141970000D03*
X145710000Y-141970000D03*
X147160000Y-83920000D03*
D19*
X143860000Y-57120000D02*
X143860000Y-53520000D01*
X132460000Y-81620000D02*
X133360000Y-80720000D01*
X132460000Y-99520000D02*
X132460000Y-81620000D01*
X139260000Y-61720000D02*
X143860000Y-57120000D01*
X120660000Y-63920000D02*
X125660000Y-58920000D01*
X120660000Y-74220000D02*
X120660000Y-63920000D01*
X118560000Y-76320000D02*
X120660000Y-74220000D01*
X118560000Y-76820000D02*
X118560000Y-76320000D01*
X113030000Y-68220000D02*
X113780000Y-67470000D01*
X111960000Y-76120000D02*
X111960000Y-68220000D01*
X113460000Y-77620000D02*
X111960000Y-76120000D01*
X140860000Y-77620000D02*
X113460000Y-77620000D01*
X111960000Y-68220000D02*
X113030000Y-68220000D01*
X147160000Y-83920000D02*
X140860000Y-77620000D01*
D20*
X158660000Y-59620000D02*
X160750000Y-59620000D01*
X160750000Y-59620000D02*
X162040000Y-58330000D01*
X155260000Y-63020000D02*
X158660000Y-59620000D01*
X155260000Y-68720000D02*
X155260000Y-63020000D01*
X150960000Y-77620000D02*
X150960000Y-73020000D01*
X150960000Y-73020000D02*
X155260000Y-68720000D01*
X109760000Y-103620000D02*
X109760000Y-108820000D01*
X109460000Y-103320000D02*
X109760000Y-103620000D01*
X109560000Y-103320000D02*
X109460000Y-103320000D01*
X110110000Y-102770000D02*
X109560000Y-103320000D01*
X111560000Y-77520000D02*
X111560000Y-81120000D01*
X111560000Y-81120000D02*
X110560000Y-82120000D01*
X110560000Y-82120000D02*
X110560000Y-102320000D01*
X110560000Y-102320000D02*
X110110000Y-102770000D01*
D19*
X127360000Y-119120000D02*
X129860000Y-119120000D01*
X129860000Y-119120000D02*
X134860000Y-124120000D01*
D20*
X111615000Y-62765000D02*
X108770000Y-59920000D01*
X108770000Y-59920000D02*
X101460000Y-59920000D01*
X139560000Y-126070000D02*
X139710000Y-126220000D01*
X139560000Y-118120000D02*
X139560000Y-126070000D01*
X143460000Y-114220000D02*
X139560000Y-118120000D01*
X152960000Y-114220000D02*
X143460000Y-114220000D01*
X154710000Y-71970003D02*
X154710000Y-112470000D01*
X154659997Y-71920000D02*
X154710000Y-71970003D01*
X154710000Y-112470000D02*
X152960000Y-114220000D01*
X143960000Y-114970000D02*
X140460000Y-118470000D01*
X153460000Y-114970000D02*
X143960000Y-114970000D01*
X155460000Y-112970000D02*
X153460000Y-114970000D01*
X155460000Y-71920000D02*
X155460000Y-112970000D01*
X140460000Y-118470000D02*
X140460000Y-131720000D01*
X149860000Y-110620000D02*
X140220000Y-100980000D01*
X153660000Y-110620000D02*
X149860000Y-110620000D01*
X153690000Y-110650000D02*
X153660000Y-110620000D01*
X140220000Y-100980000D02*
X140220000Y-100670000D01*
X141360000Y-118820000D02*
X144460000Y-115720000D01*
X153710000Y-115720000D02*
X153785000Y-115645000D01*
X141360000Y-132220000D02*
X141360000Y-118820000D01*
X144460000Y-115720000D02*
X153710000Y-115720000D01*
X156960000Y-113720000D02*
X156960000Y-73570000D01*
X154210000Y-116470000D02*
X156960000Y-113720000D01*
X156960000Y-73570000D02*
X159500000Y-71030000D01*
X144960000Y-116470000D02*
X154210000Y-116470000D01*
X142210000Y-119220000D02*
X144960000Y-116470000D01*
X142210000Y-132720000D02*
X142210000Y-119220000D01*
D19*
X158710000Y-118470000D02*
X161335000Y-121095000D01*
X150960000Y-117470000D02*
X155710000Y-117470000D01*
X155710000Y-117470000D02*
X156710000Y-118470000D01*
X156710000Y-118470000D02*
X158710000Y-118470000D01*
D20*
X157710000Y-120470000D02*
X157710000Y-125470000D01*
X157710000Y-125470000D02*
X149960000Y-133220000D01*
M02*
